<?xml version="1.0" standalone="no"?>
<!DOCTYPE svg PUBLIC "-//W3C//DTD SVG 1.1//EN" "http://www.w3.org/Graphics/SVG/1.1/DTD/svg11.dtd" >
<svg xmlns="http://www.w3.org/2000/svg" xmlns:xlink="http://www.w3.org/1999/xlink" version="1.1">
<metadata>
Created by FontForge 20190801 at Thu Jul 25 12:09:09 2013
 By Unknown
Copyright (c) 2013 by Jose Luis Vivas and Alejandro Paul. All rights reserved. www.sudtipos.com, with Reserved Font Name "Zulia Pro"
</metadata>
<defs>
<font id="ZuliaPro" horiz-adv-x="558" >
  <font-face 
    font-family="Zulia Pro"
    font-weight="400"
    font-stretch="normal"
    units-per-em="1000"
    panose-1="2 0 5 5 0 0 0 2 0 4"
    ascent="800"
    descent="-200"
    x-height="458"
    cap-height="718"
    bbox="-413 -643 1828 1110"
    underline-thickness="50"
    underline-position="-100"
    unicode-range="U+0020-FB02"
  />
<missing-glyph horiz-adv-x="180" 
 />
    <glyph glyph-name="E_s" unicode="Es" horiz-adv-x="1005" 
d="M646 18c0 43 69 107 154 153c-11 31 -31 67 -46 104c-63 -165 -376 -552 -521 -552c-94 0 -233 216 -233 336c0 158 164 306 324 381c-42 29 -81 71 -81 109c0 100 173 163 269 163c60 0 99 -14 122 -31c19 36 41 64 59 64c76 0 95 -44 95 -65c0 -25 -127 -133 -130 -175
c0 -2 -3 -5 -7 -5c-36 0 -57 18 -57 56c0 14 4 33 11 55c-155 -9 -209 -81 -209 -126c0 -5 1 -10 3 -14c42 14 83 22 117 22c49 0 131 -44 131 -90c0 -21 -8 -30 -45 -30c-221 0 -441 -325 -441 -487c0 -54 25 -90 81 -90c145 0 469 418 500 514c-4 14 -6 28 -6 42
c0 74 61 171 123 171s109 -84 109 -90s-6 -21 -17 -21c-12 0 -98 -12 -98 -106c0 -33 21 -64 42 -94c32 10 64 16 93 16c59 0 94 -18 94 -30c0 -13 -25 -34 -35 -34c-5 0 -6 4 -6 10s-6 31 -53 31c-27 0 -54 -4 -79 -11c19 -27 35 -55 35 -84c0 -130 -130 -151 -158 -151
s-140 17 -140 59zM808 134c0 4 -1 9 -2 14c-71 -43 -119 -99 -119 -118c0 -5 2 -7 8 -7c48 0 113 57 113 111z" />
    <glyph glyph-name="ff" unicode="ff" horiz-adv-x="620" 
d="M-7 405c0 11 5 21 12 21s-3 -21 24 -21h88c81 148 166 262 224 262c78 0 133 -19 167 -40c19 25 34 39 44 39c39 0 90 -49 108 -85c20 42 43 78 59 78c22 0 41 -24 41 -35c0 -7 -105 -152 -105 -193c0 -2 -2 -5 -6 -5c-8 0 -33 8 -33 33c0 7 5 27 14 51
c-20 -26 -44 -60 -69 -100h36c42 0 52 -33 52 -41c0 -16 -24 -59 -28 -59s-7 3 -7 16c0 18 -23 30 -46 30h-39c-117 -196 -251 -480 -251 -630c0 -14 -8 -20 -21 -20c-41 0 -127 58 -127 83c0 102 109 360 218 570c-24 0 -47 0 -70 1c-118 -206 -242 -500 -242 -635
c0 -14 -8 -20 -21 -20c-41 0 -127 59 -127 83c0 103 96 364 206 575c-23 1 -38 1 -42 1c-23 0 -59 12 -59 41zM459 581c-33 0 -90 -71 -153 -173h68c36 67 71 126 100 171c-4 1 -9 2 -15 2z" />
    <glyph glyph-name="i_t" unicode="it" horiz-adv-x="545" 
d="M317 476h-4c-56 0 -120 34 -120 82c0 46 29 63 61 63c42 0 90 -28 90 -51c0 -22 -22 -16 -22 -39c0 -14 22 -19 57 -19h24c38 80 69 138 69 145c0 15 10 22 17 22c43 0 132 -67 132 -97c0 -12 -5 -28 -13 -48c48 6 95 10 133 10c53 0 89 -8 89 -33c0 -7 -3 -13 -8 -18
c-6 -6 -10 -9 -13 -9c-1 0 -3 1 -4 2s-1 2 -1 3c0 2 1 4 1 6c0 12 -22 17 -58 17c-39 0 -94 -6 -154 -12c-64 -134 -213 -369 -213 -523c0 -16 -13 -33 -22 -33c-24 0 -118 44 -118 110v16c-33 -51 -76 -104 -114 -104c-51 0 -136 65 -136 132c0 112 137 330 137 348
c0 15 11 22 17 22c43 0 136 -50 136 -80s-148 -258 -148 -370c0 -2 1 -13 10 -13c24 0 58 42 111 135c25 102 84 233 134 338c-26 -2 -49 -2 -70 -2z" />
    <glyph glyph-name="i_t_h" unicode="ith" horiz-adv-x="1038" 
d="M913 609c-11 0 -43 -47 -82 -112c56 27 88 63 88 104c0 5 -1 8 -6 8zM938 610c0 -70 -54 -119 -130 -152c-76 -133 -165 -313 -165 -348c0 -2 1 -2 1 -2c6 0 176 340 260 340c56 0 129 -69 129 -108c0 -48 -123 -244 -123 -338c0 -1 1 -13 10 -13c28 0 83 71 149 201
c1 3 3 4 5 4c6 0 12 -11 12 -21c0 -3 -1 -5 -2 -8c-12 -25 -110 -215 -180 -215c-51 0 -143 62 -143 142c0 108 113 266 113 290c0 2 -1 3 -3 3c-48 0 -229 -324 -229 -374c0 -23 -20 -37 -33 -37c-24 0 -128 42 -128 116c0 48 55 187 119 321c-17 -2 -35 -3 -52 -3
c-72 -133 -166 -306 -166 -429c0 -16 -13 -33 -22 -33c-24 0 -117 44 -117 110v15c-33 -51 -76 -104 -114 -104c-52 0 -137 66 -137 133c0 112 138 329 138 348c0 15 10 22 16 22c44 0 136 -50 136 -80s-147 -258 -147 -370c0 -2 1 -13 9 -13c24 0 59 43 112 138
c22 83 65 186 107 278c-138 31 -167 97 -167 122c0 50 35 67 71 67c42 0 87 -23 87 -45c0 -26 -29 -19 -29 -48c0 -20 24 -38 59 -50c49 102 91 182 91 190c0 15 10 22 16 22c43 0 133 -67 133 -97c0 -26 -24 -77 -57 -140c17 1 34 1 51 3c55 112 114 214 147 247
c9 9 21 12 36 12c55 0 137 -52 137 -96z" />
    <glyph glyph-name="l_t" unicode="lt" horiz-adv-x="597" 
d="M398 564c-4 0 -19 -19 -39 -49l33 3c7 17 12 30 12 37c0 5 -1 9 -6 9zM334 477c-46 -71 -106 -177 -151 -273c59 60 144 189 189 275zM124 13c0 -1 1 -12 9 -12c27 0 127 58 192 184c28 94 78 206 122 298l-48 -3c-53 -111 -169 -278 -236 -324
c-24 -57 -39 -108 -39 -143zM954 482c-4 -4 -16 -6 -16 -6c-1 1 -1 1 -1 2c0 2 1 4 1 6c0 16 -39 21 -100 21c-50 0 -116 -4 -188 -9c-67 -136 -209 -364 -209 -515c0 -16 -13 -33 -22 -33c-24 0 -118 44 -118 111c0 14 2 31 5 48c-49 -63 -127 -141 -191 -141
c-55 0 -122 73 -122 132c0 79 71 246 147 380c-77 7 -126 22 -126 54c0 12 8 16 12 16c2 0 3 -1 3 -2c0 -3 -2 -3 -4 -3s-5 0 -5 -8c0 -16 63 -28 136 -28c56 93 112 164 143 164c51 0 128 -50 128 -106c0 -11 -4 -26 -11 -45c17 2 34 3 51 4c38 79 68 136 68 143
c0 15 10 23 16 23c44 0 134 -68 134 -98c0 -12 -5 -30 -14 -51c65 5 126 8 179 8c85 0 112 -27 112 -49c0 -7 -3 -13 -8 -18z" />
    <glyph glyph-name="l_v" unicode="lv" horiz-adv-x="806" 
d="M703 401c0 -12 7 -32 22 -48c11 29 19 55 19 76c0 9 -6 15 -14 15s-27 -11 -27 -43zM397 563c-13 0 -137 -192 -214 -359c83 86 220 310 220 350c0 5 -1 9 -6 9zM804 420c0 -13 -16 -46 -41 -88c4 -1 8 -1 12 -1c80 0 142 63 142 75c0 2 1 3 2 3c4 0 14 -15 14 -47
c0 -12 -44 -53 -159 -53c-8 0 -16 0 -23 1c-79 -130 -220 -323 -252 -323c-46 0 -128 39 -128 74c0 26 8 73 20 124c-78 -129 -211 -220 -278 -220c-54 0 -121 73 -121 132c0 142 230 573 306 573c51 0 128 -49 128 -106c0 -72 -174 -347 -264 -409
c-24 -57 -39 -108 -39 -143c0 -1 1 -12 9 -12c56 0 245 129 293 340c7 33 11 61 11 79c0 10 -2 18 -5 21c-2 2 -3 5 -3 8c0 11 10 25 20 25c61 0 151 -58 151 -88c0 -82 -80 -353 -80 -353s129 160 192 289c-36 14 -65 40 -65 76c0 46 41 89 67 89c44 0 91 -38 91 -66z" />
    <glyph glyph-name="s_s" unicode="ss" horiz-adv-x="689" 
d="M137 -37c-109 0 -148 34 -148 71c0 6 4 19 17 19c26 0 48 -9 66 -20c42 15 85 61 85 105c0 34 -32 83 -55 134c-30 -59 -56 -106 -62 -118c-3 -5 -7 -8 -10 -8c-5 0 -10 7 -10 16c0 5 2 11 5 18c5 10 34 62 64 125c-5 16 -8 32 -8 48c0 74 61 171 122 171
s108 -83 108 -90c0 -6 -6 -21 -17 -21c-12 0 -97 -11 -97 -105c0 -68 95 -124 95 -194c0 -19 -3 -36 -8 -50c33 36 56 78 71 107c18 35 45 87 68 134c-5 16 -8 31 -8 47c0 75 62 172 123 172c63 0 110 -84 110 -90c0 -7 -7 -22 -18 -22c-12 0 -97 -12 -97 -106
c0 -33 22 -63 45 -94c32 11 65 17 95 17c58 0 93 -19 93 -31s-25 -33 -35 -33c-5 0 -6 3 -6 9s-6 32 -52 32c-28 0 -55 -5 -82 -12c20 -27 37 -54 37 -84c0 -130 -130 -150 -158 -150s-139 16 -139 58c0 43 68 107 153 154c-11 29 -32 64 -48 99c-21 -41 -40 -77 -55 -104
c-18 -35 -105 -204 -244 -204zM493 135c0 4 -1 9 -2 14c-71 -44 -120 -100 -120 -119c0 -5 2 -7 8 -7c48 0 114 58 114 112z" />
    <glyph glyph-name="t_i" unicode="ti" horiz-adv-x="537" 
d="M384 590c0 -6 -2 -14 -4 -23c80 5 129 27 129 92c0 15 13 22 30 22c40 0 105 -38 105 -110c0 -50 -35 -64 -111 -64c-35 0 -80 3 -133 7l-40 3c-60 -131 -217 -374 -217 -532c0 -15 -13 -33 -22 -33c-24 0 -117 44 -117 110c0 110 97 324 166 465c-35 1 -72 2 -111 2
c-35 0 -55 -10 -55 -42c0 -5 -2 -7 -4 -7c-8 0 -24 21 -24 43c0 24 20 49 90 49c43 0 85 -1 124 -3c26 54 45 90 45 96c0 15 11 22 17 22c43 0 132 -67 132 -97zM422 19c0 -1 1 -13 9 -13c28 0 70 57 138 185c2 3 4 4 6 4c6 0 12 -10 12 -20c0 -4 -1 -7 -3 -11
c-26 -50 -102 -197 -168 -197c-52 0 -137 65 -137 133c0 111 138 329 138 348c0 15 10 22 16 22c44 0 136 -51 136 -81c0 -29 -147 -257 -147 -370z" />
    <glyph glyph-name="t_r" unicode="tr" horiz-adv-x="850" 
d="M-48 438c0 6 1 18 9 18c9 0 4 -19 42 -19c13 0 49 2 98 5c54 110 108 207 108 224c0 2 -1 2 -2 2c0 15 8 23 15 23c43 0 133 -67 133 -97c0 -25 -23 -79 -54 -144c25 0 52 1 78 1c41 0 69 -26 69 -48c0 -23 -42 -63 -47 -63c-4 0 -9 3 -9 6c0 4 6 4 6 16
c0 22 -54 32 -122 37c-64 -128 -141 -281 -141 -351c0 -25 9 -36 25 -36c71 0 276 220 372 432c0 13 10 20 16 20c43 0 136 -50 136 -80c0 -13 -61 -108 -106 -210c45 85 109 187 145 223c8 69 39 95 64 95c36 0 117 -33 117 -68c0 -29 -104 -71 -104 -155
c0 -19 14 -26 18 -26c12 0 13 15 18 15s7 -7 7 -11s-11 -26 -41 -26c-29 0 -79 26 -81 131c-54 -65 -179 -275 -192 -354c0 -15 -19 -20 -32 -20c-24 0 -117 44 -117 110c0 16 7 41 19 71c-82 -100 -175 -181 -241 -181c-86 0 -167 107 -167 162c0 57 43 161 91 262
c-26 0 -49 -1 -76 -1s-54 21 -54 37z" />
    <glyph glyph-name="t_t" unicode="tt" horiz-adv-x="534" 
d="M22 568c0 6 1 17 9 17c9 0 4 -18 42 -18c9 0 46 1 99 2c42 96 76 167 76 174c0 15 10 22 17 22c43 0 132 -66 132 -96c0 -22 -11 -54 -29 -95c14 1 29 1 43 1c41 93 73 161 73 168c0 15 11 22 17 22c43 0 132 -66 132 -96c0 -21 -10 -51 -27 -90c27 1 52 1 73 1
c40 0 69 -25 69 -48s-42 -62 -47 -62s-9 2 -9 6c0 3 6 3 6 15c0 16 -48 26 -117 32c-75 -160 -207 -402 -207 -593c0 -16 -13 -33 -22 -33c-24 0 -123 51 -123 145c0 101 90 323 163 490c-14 0 -29 1 -43 1c-74 -161 -211 -408 -211 -603c0 -16 -13 -33 -22 -33
c-24 0 -123 51 -123 145c0 101 90 323 163 490c-29 0 -52 -1 -66 -1h-14c-27 0 -54 21 -54 37z" />
    <glyph glyph-name="z_z.003" unicode="zz" horiz-adv-x="764" 
d="M493 -37c0 8 -1 14 -2 19c-94 -92 -169 -188 -169 -233c0 -8 4 -10 11 -10c63 0 160 142 160 224zM183 -34c0 22 -13 33 -20 39h-5c-80 -113 -140 -215 -140 -256c0 -8 4 -10 10 -10c64 0 155 130 155 227zM31 139c-2 -4 -6 -5 -10 -5c-6 0 -13 4 -13 11c0 2 1 4 2 7
c61 121 159 306 225 306c46 0 138 -47 153 -115c67 69 123 115 151 115c50 0 154 -56 154 -134c0 -55 -30 -126 -70 -187c88 70 171 120 213 120c6 0 25 -2 25 -39c0 -31 -16 -46 -26 -46c-2 0 -4 1 -4 3c0 17 -8 21 -20 21c-46 0 -124 -47 -205 -111c27 -25 44 -58 44 -101
c0 -101 -85 -275 -318 -275c-23 0 -41 20 -41 39c0 55 81 159 182 258c-3 -1 -6 -1 -9 -1c-43 0 -115 51 -115 87c0 4 0 7 2 10v1c1 0 1 1 1 2c11 20 47 32 90 34c62 56 96 194 96 252c0 15 -2 25 -7 26c-23 -1 -78 -51 -144 -124c-11 -67 -56 -148 -107 -207
c36 -25 62 -59 62 -103c0 -62 -97 -274 -315 -274c-23 0 -40 20 -40 39c0 52 57 155 134 267c-37 16 -75 51 -75 77v3c0 4 1 8 4 11c10 16 41 25 78 25c69 49 107 199 107 260c0 16 -2 26 -8 26c-42 0 -124 -154 -196 -278z" />
    <glyph glyph-name=".notdef" horiz-adv-x="180" 
 />
    <glyph glyph-name=".notdef" horiz-adv-x="180" 
 />
    <glyph glyph-name="A" unicode="A" horiz-adv-x="1065" 
d="M54 192c-13 0 -54 67 -54 116c0 156 270 188 356 188c33 0 66 -2 97 -6c127 123 283 228 432 228c114 0 202 -133 202 -194c0 -115 -149 -461 -151 -504c-2 -42 -11 -58 -29 -58s-137 62 -137 146v4c0 16 9 46 22 83c-33 53 -119 113 -294 124
c-59 -104 -94 -209 -94 -281c0 -109 38 -82 38 -103c-1 -22 -25 -37 -34 -37c-53 0 -228 112 -228 205c0 31 46 114 118 210c-171 -20 -239 -71 -239 -94c0 -8 6 -16 6 -21c0 -3 -2 -6 -11 -6zM941 629c0 12 -3 19 -11 19c-127 0 -244 -83 -336 -191
c99 -34 179 -90 237 -157c49 127 110 276 110 329z" />
    <glyph glyph-name="A.ss01" horiz-adv-x="868" 
d="M110 308c0 19 8 22 15 22c5 0 9 -2 9 -4v-1c-3 -3 -4 -5 -4 -8c0 -26 127 -40 251 -48c126 134 250 292 317 388c15 37 29 63 42 76c6 6 16 9 27 9c54 0 156 -60 156 -103c0 -7 -2 -13 -8 -19c-41 -41 -149 -317 -149 -565c0 -71 15 -86 15 -97c0 -21 -35 -24 -48 -24
c-68 0 -183 47 -183 96c0 37 8 97 22 168c-19 1 -39 1 -61 1c-31 0 -66 0 -102 -2c-119 -150 -237 -277 -294 -277c-50 0 -115 96 -115 118c0 18 6 28 20 28c4 0 4 -2 4 -5v-8c0 -9 3 -19 31 -19c63 0 156 68 254 162h-28c-170 0 -171 70 -171 112zM652 521
c-54 -74 -121 -166 -190 -256c50 -2 94 -4 122 -4c19 85 43 179 68 260z" />
    <glyph glyph-name="A.ss02" horiz-adv-x="1118" 
d="M360 315c0 12 8 16 15 16c5 0 9 -3 9 -5c-3 -4 -4 -6 -4 -9c0 -25 127 -39 252 -47c126 134 250 292 317 388c3 7 5 14 8 20c-79 3 -152 7 -225 7c-221 0 -529 -21 -634 -137c-38 -42 -47 -64 -47 -78c0 -12 6 -16 6 -21c0 -1 0 -3 -2 -5c-1 -1 -4 -2 -8 -2
c-7 0 -17 3 -25 8c-19 14 -25 116 -25 134c0 55 12 120 60 172c28 31 77 42 146 42c159 0 426 -60 790 -62c6 4 15 6 24 6c54 0 156 -60 156 -103c0 -7 -2 -12 -8 -18c-41 -41 -149 -318 -149 -566c0 -70 15 -86 15 -97c0 -20 -37 -23 -49 -23c-68 0 -182 47 -182 95
c0 37 8 98 22 169c-19 1 -41 1 -64 1c-30 0 -63 -1 -98 -1c-120 -151 -238 -279 -295 -279c-50 0 -115 97 -115 118c0 19 6 28 20 28c4 0 4 -2 4 -5v-8c0 -9 3 -19 31 -19c63 0 157 68 255 163h-29c-91 0 -133 20 -153 45c-17 22 -18 47 -18 73zM901 521
c-53 -73 -119 -165 -188 -255c50 -2 93 -4 122 -4c18 85 42 178 66 259z" />
    <glyph glyph-name="A.ss03" horiz-adv-x="875" 
d="M117 312c0 19 8 22 15 22c5 0 9 -2 9 -4v-1c-3 -3 -4 -5 -4 -8c0 -25 127 -39 252 -47c127 135 252 294 318 390l7 16c-28 1 -84 4 -151 4c-158 0 -377 -13 -446 -82c-21 -21 -28 -41 -28 -58c0 -22 12 -40 20 -48c1 -1 2 -3 2 -5c0 -6 -6 -14 -14 -14c-3 0 -7 1 -11 5
c-10 10 -85 112 -85 197c0 90 86 105 155 105c128 0 335 -38 617 -38h2c55 -1 155 -61 155 -103c0 -7 -2 -12 -8 -18c-41 -41 -149 -318 -149 -566c0 -71 15 -86 15 -97c0 -20 -37 -23 -49 -23c-68 0 -182 47 -182 95c0 37 8 98 22 169c-19 1 -41 1 -64 1
c-30 0 -63 -1 -98 -1c-120 -151 -238 -279 -295 -279c-50 0 -115 97 -115 118c0 18 6 28 20 28c4 0 4 -2 4 -5v-8c0 -9 3 -19 31 -19c63 0 157 68 255 163h-29c-170 0 -171 70 -171 111zM659 526c-54 -74 -120 -166 -189 -256c50 -2 93 -4 122 -4c18 85 42 178 67 260z" />
    <glyph glyph-name="AE" unicode="&#xc6;" horiz-adv-x="1213" 
d="M100 333c0 19 6 22 15 22c5 0 10 -2 10 -4c-4 -4 -5 -7 -5 -9c0 -31 197 -38 349 -40c116 112 228 237 299 328c-32 31 -40 96 -40 117c0 3 1 6 1 6c1 1 3 2 5 2c5 0 10 -3 10 -7c0 -8 3 -16 46 -16c126 0 412 28 466 28c37 0 53 -53 53 -94c0 -21 -4 -39 -11 -46
c-12 -11 -96 -40 -135 -40c-19 0 -33 34 -33 46c-21 0 -66 -4 -125 -7c-24 -29 -72 -101 -115 -195c55 10 116 19 173 19c26 0 35 -12 35 -29c0 -21 -16 -49 -34 -68c-7 -6 -13 -8 -17 -8c-5 0 -7 2 -7 5c0 1 0 2 1 3s2 3 2 4c0 10 -34 21 -102 21c-31 0 -55 -1 -74 -1
c-35 -85 -62 -181 -68 -274c64 13 143 23 228 23c130 0 136 -48 136 -85v-11c0 -20 -5 -58 -22 -58c-4 0 -9 2 -15 8c-19 19 -50 26 -87 26c-80 0 -183 -32 -237 -49c-8 -5 -21 -8 -37 -8c-68 0 -183 46 -183 95c0 45 18 125 45 214h-18c-30 0 -66 -1 -105 -4
c-146 -168 -294 -320 -357 -320c-50 0 -115 97 -115 119c0 18 6 27 20 27c4 0 4 -2 4 -6v-8c0 -9 3 -18 31 -18c71 0 191 86 315 199c-43 -3 -88 -4 -131 -4c-170 0 -171 56 -171 97zM551 302h92c21 66 46 134 71 196c-49 -59 -104 -128 -163 -196z" />
    <glyph glyph-name="AEacute" unicode="&#x1fc;" horiz-adv-x="1213" 
d="M1037 938c26 0 55 -51 55 -66c0 -52 -119 -84 -157 -84c-9 0 -15 7 -15 12c0 3 2 5 5 5c18 0 96 78 96 108c0 4 -4 7 -4 11c0 5 7 14 20 14zM100 333c0 19 6 22 15 22c5 0 10 -2 10 -4c-4 -4 -5 -7 -5 -9c0 -31 197 -38 349 -40c116 112 228 237 299 328
c-32 31 -40 96 -40 117c0 3 1 6 1 6c1 1 3 2 5 2c5 0 10 -3 10 -7c0 -8 3 -16 46 -16c126 0 412 28 466 28c37 0 53 -53 53 -94c0 -21 -4 -39 -11 -46c-12 -11 -96 -40 -135 -40c-19 0 -33 34 -33 46c-21 0 -66 -4 -125 -7c-24 -29 -72 -101 -115 -195c55 10 116 19 173 19
c26 0 35 -12 35 -29c0 -21 -16 -49 -34 -68c-7 -6 -13 -8 -17 -8c-5 0 -7 2 -7 5c0 1 0 2 1 3s2 3 2 4c0 10 -34 21 -102 21c-31 0 -55 -1 -74 -1c-35 -85 -62 -181 -68 -274c64 13 143 23 228 23c130 0 136 -48 136 -85v-11c0 -20 -5 -58 -22 -58c-4 0 -9 2 -15 8
c-19 19 -50 26 -87 26c-80 0 -183 -32 -237 -49c-8 -5 -21 -8 -37 -8c-68 0 -183 46 -183 95c0 45 18 125 45 214h-18c-30 0 -66 -1 -105 -4c-146 -168 -294 -320 -357 -320c-50 0 -115 97 -115 119c0 18 6 27 20 27c4 0 4 -2 4 -6v-8c0 -9 3 -18 31 -18
c71 0 191 86 315 199c-43 -3 -88 -4 -131 -4c-170 0 -171 56 -171 97zM551 302h92c21 66 46 134 71 196c-49 -59 -104 -128 -163 -196z" />
    <glyph glyph-name="Aacute" unicode="&#xc1;" horiz-adv-x="1065" 
d="M1064 885c26 0 55 -51 55 -66c0 -52 -119 -84 -157 -84c-9 0 -15 7 -15 12c0 3 2 5 5 5c18 0 96 78 96 108c0 4 -4 7 -4 11c0 5 7 14 20 14zM54 192c-13 0 -54 67 -54 116c0 156 270 188 356 188c33 0 66 -2 97 -6c127 123 283 228 432 228c114 0 202 -133 202 -194
c0 -115 -149 -461 -151 -504c-2 -42 -11 -58 -29 -58s-137 62 -137 146v4c0 16 9 46 22 83c-33 53 -119 113 -294 124c-59 -104 -94 -209 -94 -281c0 -109 38 -82 38 -103c-1 -22 -25 -37 -34 -37c-53 0 -228 112 -228 205c0 31 46 114 118 210c-171 -20 -239 -71 -239 -94
c0 -8 6 -16 6 -21c0 -3 -2 -6 -11 -6zM941 629c0 12 -3 19 -11 19c-127 0 -244 -83 -336 -191c99 -34 179 -90 237 -157c49 127 110 276 110 329z" />
    <glyph glyph-name="Aacute.ss01" horiz-adv-x="868" 
d="M110 308c0 19 8 22 15 22c5 0 9 -2 9 -4v-1c-3 -3 -4 -5 -4 -8c0 -26 127 -40 251 -48c126 134 250 292 317 388c15 37 29 63 42 76c6 6 16 9 27 9c54 0 156 -60 156 -103c0 -7 -2 -13 -8 -19c-41 -41 -149 -317 -149 -565c0 -71 15 -86 15 -97c0 -21 -35 -24 -48 -24
c-68 0 -183 47 -183 96c0 37 8 97 22 168c-19 1 -39 1 -61 1c-31 0 -66 0 -102 -2c-119 -150 -237 -277 -294 -277c-50 0 -115 96 -115 118c0 18 6 28 20 28c4 0 4 -2 4 -5v-8c0 -9 3 -19 31 -19c63 0 156 68 254 162h-28c-170 0 -171 70 -171 112zM652 521
c-54 -74 -121 -166 -190 -256c50 -2 94 -4 122 -4c19 85 43 179 68 260zM932 913c26 0 55 -51 55 -66c0 -52 -119 -84 -157 -84c-9 0 -15 7 -15 12c0 3 2 5 5 5c18 0 96 78 96 108c0 4 -4 7 -4 11c0 5 7 14 20 14z" />
    <glyph glyph-name="Aacute.ss02" horiz-adv-x="1118" 
d="M360 315c0 12 8 16 15 16c5 0 9 -3 9 -5c-3 -4 -4 -6 -4 -9c0 -25 127 -39 252 -47c126 134 250 292 317 388c3 7 5 14 8 20c-79 3 -152 7 -225 7c-221 0 -529 -21 -634 -137c-38 -42 -47 -64 -47 -78c0 -12 6 -16 6 -21c0 -1 0 -3 -2 -5c-1 -1 -4 -2 -8 -2
c-7 0 -17 3 -25 8c-19 14 -25 116 -25 134c0 55 12 120 60 172c28 31 77 42 146 42c159 0 426 -60 790 -62c6 4 15 6 24 6c54 0 156 -60 156 -103c0 -7 -2 -12 -8 -18c-41 -41 -149 -318 -149 -566c0 -70 15 -86 15 -97c0 -20 -37 -23 -49 -23c-68 0 -182 47 -182 95
c0 37 8 98 22 169c-19 1 -41 1 -64 1c-30 0 -63 -1 -98 -1c-120 -151 -238 -279 -295 -279c-50 0 -115 97 -115 118c0 19 6 28 20 28c4 0 4 -2 4 -5v-8c0 -9 3 -19 31 -19c63 0 157 68 255 163h-29c-91 0 -133 20 -153 45c-17 22 -18 47 -18 73zM901 521
c-53 -73 -119 -165 -188 -255c50 -2 93 -4 122 -4c18 85 42 178 66 259zM1183 913c26 0 55 -51 55 -66c0 -52 -119 -84 -157 -84c-9 0 -15 7 -15 12c0 3 2 5 5 5c18 0 96 78 96 108c0 4 -4 7 -4 11c0 5 7 14 20 14z" />
    <glyph glyph-name="Aacute.ss03" horiz-adv-x="875" 
d="M117 312c0 19 8 22 15 22c5 0 9 -2 9 -4v-1c-3 -3 -4 -5 -4 -8c0 -25 127 -39 252 -47c127 135 252 294 318 390l7 16c-28 1 -84 4 -151 4c-158 0 -377 -13 -446 -82c-21 -21 -28 -41 -28 -58c0 -22 12 -40 20 -48c1 -1 2 -3 2 -5c0 -6 -6 -14 -14 -14c-3 0 -7 1 -11 5
c-10 10 -85 112 -85 197c0 90 86 105 155 105c128 0 335 -38 617 -38h2c55 -1 155 -61 155 -103c0 -7 -2 -12 -8 -18c-41 -41 -149 -318 -149 -566c0 -71 15 -86 15 -97c0 -20 -37 -23 -49 -23c-68 0 -182 47 -182 95c0 37 8 98 22 169c-19 1 -41 1 -64 1
c-30 0 -63 -1 -98 -1c-120 -151 -238 -279 -295 -279c-50 0 -115 97 -115 118c0 18 6 28 20 28c4 0 4 -2 4 -5v-8c0 -9 3 -19 31 -19c63 0 157 68 255 163h-29c-170 0 -171 70 -171 111zM659 526c-54 -74 -120 -166 -189 -256c50 -2 93 -4 122 -4c18 85 42 178 67 260z
M945 913c26 0 55 -51 55 -66c0 -52 -119 -84 -157 -84c-9 0 -15 7 -15 12c0 3 2 5 5 5c18 0 96 78 96 108c0 4 -4 7 -4 11c0 5 7 14 20 14z" />
    <glyph glyph-name="Abreve" unicode="&#x102;" horiz-adv-x="1065" 
d="M1009 723c-54 0 -87 44 -87 87c0 20 6 37 21 54c4 5 12 9 19 9c23 0 54 -25 54 -37c0 -2 -1 -3 -2 -4c-12 -12 -18 -23 -18 -32c0 -17 18 -29 38 -29c22 0 46 14 46 49c0 4 -1 7 -3 9c-1 1 -1 2 -1 3c0 4 4 8 9 8c4 0 7 -3 7 -12c0 -53 -40 -105 -83 -105zM54 192
c-13 0 -54 67 -54 116c0 156 270 188 356 188c33 0 66 -2 97 -6c127 123 283 228 432 228c114 0 202 -133 202 -194c0 -115 -149 -461 -151 -504c-2 -42 -11 -58 -29 -58s-137 62 -137 146v4c0 16 9 46 22 83c-33 53 -119 113 -294 124c-59 -104 -94 -209 -94 -281
c0 -109 38 -82 38 -103c-1 -22 -25 -37 -34 -37c-53 0 -228 112 -228 205c0 31 46 114 118 210c-171 -20 -239 -71 -239 -94c0 -8 6 -16 6 -21c0 -3 -2 -6 -11 -6zM941 629c0 12 -3 19 -11 19c-127 0 -244 -83 -336 -191c99 -34 179 -90 237 -157c49 127 110 276 110 329z
" />
    <glyph glyph-name="Abreve.001" horiz-adv-x="868" 
d="M888 741c-54 0 -87 44 -87 87c0 20 6 37 21 54c4 5 12 9 19 9c23 0 54 -25 54 -37c0 -2 -1 -3 -2 -4c-12 -12 -18 -23 -18 -32c0 -17 18 -29 38 -29c22 0 46 14 46 49c0 4 -1 7 -3 9c-1 1 -1 2 -1 3c0 4 4 8 9 8c4 0 7 -3 7 -12c0 -53 -40 -105 -83 -105zM110 308
c0 19 8 22 15 22c5 0 9 -2 9 -4v-1c-3 -3 -4 -5 -4 -8c0 -26 127 -40 251 -48c126 134 250 292 317 388c15 37 29 63 42 76c6 6 16 9 27 9c54 0 156 -60 156 -103c0 -7 -2 -13 -8 -19c-41 -41 -149 -317 -149 -565c0 -71 15 -86 15 -97c0 -21 -35 -24 -48 -24
c-68 0 -183 47 -183 96c0 37 8 97 22 168c-19 1 -39 1 -61 1c-31 0 -66 0 -102 -2c-119 -150 -237 -277 -294 -277c-50 0 -115 96 -115 118c0 18 6 28 20 28c4 0 4 -2 4 -5v-8c0 -9 3 -19 31 -19c63 0 156 68 254 162h-28c-170 0 -171 70 -171 112zM652 521
c-54 -74 -121 -166 -190 -256c50 -2 94 -4 122 -4c19 85 43 179 68 260z" />
    <glyph glyph-name="Acircumflex" unicode="&#xc2;" horiz-adv-x="1065" 
d="M1094 814c-13 -1 -18 -26 -18 -56c0 -37 8 -80 16 -87c2 -2 2 -4 2 -5c0 -4 -5 -6 -11 -6c-20 0 -58 49 -73 99c-15 -9 -38 -12 -61 -12c-39 0 -78 10 -78 27c0 4 1 7 4 7c1 0 2 0 3 -1c3 -3 8 -4 14 -4c28 0 83 32 108 58c1 17 8 42 27 42c25 0 74 -31 74 -49
c0 -5 -4 -13 -7 -13zM54 192c-13 0 -54 67 -54 116c0 156 270 188 356 188c33 0 66 -2 97 -6c127 123 283 228 432 228c114 0 202 -133 202 -194c0 -115 -149 -461 -151 -504c-2 -42 -11 -58 -29 -58s-137 62 -137 146v4c0 16 9 46 22 83c-33 53 -119 113 -294 124
c-59 -104 -94 -209 -94 -281c0 -109 38 -82 38 -103c-1 -22 -25 -37 -34 -37c-53 0 -228 112 -228 205c0 31 46 114 118 210c-171 -20 -239 -71 -239 -94c0 -8 6 -16 6 -21c0 -3 -2 -6 -11 -6zM941 629c0 12 -3 19 -11 19c-127 0 -244 -83 -336 -191
c99 -34 179 -90 237 -157c49 127 110 276 110 329z" />
    <glyph glyph-name="Acircumflex.ss01" horiz-adv-x="868" 
d="M110 308c0 19 8 22 15 22c5 0 9 -2 9 -4v-1c-3 -3 -4 -5 -4 -8c0 -26 127 -40 251 -48c126 134 250 292 317 388c15 37 29 63 42 76c6 6 16 9 27 9c54 0 156 -60 156 -103c0 -7 -2 -13 -8 -19c-41 -41 -149 -317 -149 -565c0 -71 15 -86 15 -97c0 -21 -35 -24 -48 -24
c-68 0 -183 47 -183 96c0 37 8 97 22 168c-19 1 -39 1 -61 1c-31 0 -66 0 -102 -2c-119 -150 -237 -277 -294 -277c-50 0 -115 96 -115 118c0 18 6 28 20 28c4 0 4 -2 4 -5v-8c0 -9 3 -19 31 -19c63 0 156 68 254 162h-28c-170 0 -171 70 -171 112zM652 521
c-54 -74 -121 -166 -190 -256c50 -2 94 -4 122 -4c19 85 43 179 68 260zM965 839c-13 -1 -18 -26 -18 -56c0 -37 8 -80 16 -87c2 -2 2 -4 2 -5c0 -4 -5 -6 -11 -6c-20 0 -58 49 -73 99c-15 -9 -38 -12 -61 -12c-39 0 -78 10 -78 27c0 4 1 7 4 7c1 0 2 0 3 -1
c3 -3 8 -4 14 -4c28 0 83 32 108 58c1 17 8 42 27 42c25 0 74 -31 74 -49c0 -5 -4 -13 -7 -13z" />
    <glyph glyph-name="Acircumflex.ss02" horiz-adv-x="1118" 
d="M360 315c0 12 8 16 15 16c5 0 9 -3 9 -5c-3 -4 -4 -6 -4 -9c0 -25 127 -39 252 -47c126 134 250 292 317 388c3 7 5 14 8 20c-79 3 -152 7 -225 7c-221 0 -529 -21 -634 -137c-38 -42 -47 -64 -47 -78c0 -12 6 -16 6 -21c0 -1 0 -3 -2 -5c-1 -1 -4 -2 -8 -2
c-7 0 -17 3 -25 8c-19 14 -25 116 -25 134c0 55 12 120 60 172c28 31 77 42 146 42c159 0 426 -60 790 -62c6 4 15 6 24 6c54 0 156 -60 156 -103c0 -7 -2 -12 -8 -18c-41 -41 -149 -318 -149 -566c0 -70 15 -86 15 -97c0 -20 -37 -23 -49 -23c-68 0 -182 47 -182 95
c0 37 8 98 22 169c-19 1 -41 1 -64 1c-30 0 -63 -1 -98 -1c-120 -151 -238 -279 -295 -279c-50 0 -115 97 -115 118c0 19 6 28 20 28c4 0 4 -2 4 -5v-8c0 -9 3 -19 31 -19c63 0 157 68 255 163h-29c-91 0 -133 20 -153 45c-17 22 -18 47 -18 73zM901 521
c-53 -73 -119 -165 -188 -255c50 -2 93 -4 122 -4c18 85 42 178 66 259zM1216 839c-13 -1 -18 -26 -18 -56c0 -37 8 -80 16 -87c2 -2 2 -4 2 -5c0 -4 -5 -6 -11 -6c-20 0 -58 49 -73 99c-15 -9 -38 -12 -61 -12c-39 0 -78 10 -78 27c0 4 1 7 4 7c1 0 2 0 3 -1
c3 -3 8 -4 14 -4c28 0 83 32 108 58c1 17 8 42 27 42c25 0 74 -31 74 -49c0 -5 -4 -13 -7 -13z" />
    <glyph glyph-name="Acircumflex.ss03" horiz-adv-x="875" 
d="M117 312c0 19 8 22 15 22c5 0 9 -2 9 -4v-1c-3 -3 -4 -5 -4 -8c0 -25 127 -39 252 -47c127 135 252 294 318 390l7 16c-28 1 -84 4 -151 4c-158 0 -377 -13 -446 -82c-21 -21 -28 -41 -28 -58c0 -22 12 -40 20 -48c1 -1 2 -3 2 -5c0 -6 -6 -14 -14 -14c-3 0 -7 1 -11 5
c-10 10 -85 112 -85 197c0 90 86 105 155 105c128 0 335 -38 617 -38h2c55 -1 155 -61 155 -103c0 -7 -2 -12 -8 -18c-41 -41 -149 -318 -149 -566c0 -71 15 -86 15 -97c0 -20 -37 -23 -49 -23c-68 0 -182 47 -182 95c0 37 8 98 22 169c-19 1 -41 1 -64 1
c-30 0 -63 -1 -98 -1c-120 -151 -238 -279 -295 -279c-50 0 -115 97 -115 118c0 18 6 28 20 28c4 0 4 -2 4 -5v-8c0 -9 3 -19 31 -19c63 0 157 68 255 163h-29c-170 0 -171 70 -171 111zM659 526c-54 -74 -120 -166 -189 -256c50 -2 93 -4 122 -4c18 85 42 178 67 260z
M978 839c-13 -1 -18 -26 -18 -56c0 -37 8 -80 16 -87c2 -2 2 -4 2 -5c0 -4 -5 -6 -11 -6c-20 0 -58 49 -73 99c-15 -9 -38 -12 -61 -12c-39 0 -78 10 -78 27c0 4 1 7 4 7c1 0 2 0 3 -1c3 -3 8 -4 14 -4c28 0 83 32 108 58c1 17 8 42 27 42c25 0 74 -31 74 -49
c0 -5 -4 -13 -7 -13z" />
    <glyph glyph-name="Adieresis" unicode="&#xc4;" horiz-adv-x="1065" 
d="M878 808c0 42 17 57 37 57c32 0 73 -36 73 -61c0 -17 -16 -13 -16 -44c0 -6 -3 -13 -20 -13c-45 0 -74 35 -74 61zM1010 758c0 41 17 55 37 55c32 0 74 -36 74 -62c0 -16 -15 -24 -15 -42c0 -6 -4 -14 -20 -14c-46 0 -76 36 -76 63zM54 192c-13 0 -54 67 -54 116
c0 156 270 188 356 188c33 0 66 -2 97 -6c127 123 283 228 432 228c114 0 202 -133 202 -194c0 -115 -149 -461 -151 -504c-2 -42 -11 -58 -29 -58s-137 62 -137 146v4c0 16 9 46 22 83c-33 53 -119 113 -294 124c-59 -104 -94 -209 -94 -281c0 -109 38 -82 38 -103
c-1 -22 -25 -37 -34 -37c-53 0 -228 112 -228 205c0 31 46 114 118 210c-171 -20 -239 -71 -239 -94c0 -8 6 -16 6 -21c0 -3 -2 -6 -11 -6zM941 629c0 12 -3 19 -11 19c-127 0 -244 -83 -336 -191c99 -34 179 -90 237 -157c49 127 110 276 110 329z" />
    <glyph glyph-name="Adieresis.ss01" horiz-adv-x="868" 
d="M110 308c0 19 8 22 15 22c5 0 9 -2 9 -4v-1c-3 -3 -4 -5 -4 -8c0 -26 127 -40 251 -48c126 134 250 292 317 388c15 37 29 63 42 76c6 6 16 9 27 9c54 0 156 -60 156 -103c0 -7 -2 -13 -8 -19c-41 -41 -149 -317 -149 -565c0 -71 15 -86 15 -97c0 -21 -35 -24 -48 -24
c-68 0 -183 47 -183 96c0 37 8 97 22 168c-19 1 -39 1 -61 1c-31 0 -66 0 -102 -2c-119 -150 -237 -277 -294 -277c-50 0 -115 96 -115 118c0 18 6 28 20 28c4 0 4 -2 4 -5v-8c0 -9 3 -19 31 -19c63 0 156 68 254 162h-28c-170 0 -171 70 -171 112zM652 521
c-54 -74 -121 -166 -190 -256c50 -2 94 -4 122 -4c19 85 43 179 68 260zM770 826c0 42 17 57 37 57c32 0 73 -36 73 -61c0 -17 -16 -13 -16 -44c0 -6 -3 -13 -20 -13c-45 0 -74 35 -74 61zM902 776c0 41 17 55 37 55c32 0 74 -36 74 -62c0 -16 -15 -24 -15 -42
c0 -6 -4 -14 -20 -14c-46 0 -76 36 -76 63z" />
    <glyph glyph-name="Adieresis.ss02" horiz-adv-x="1118" 
d="M360 315c0 12 8 16 15 16c5 0 9 -3 9 -5c-3 -4 -4 -6 -4 -9c0 -25 127 -39 252 -47c126 134 250 292 317 388c3 7 5 14 8 20c-79 3 -152 7 -225 7c-221 0 -529 -21 -634 -137c-38 -42 -47 -64 -47 -78c0 -12 6 -16 6 -21c0 -1 0 -3 -2 -5c-1 -1 -4 -2 -8 -2
c-7 0 -17 3 -25 8c-19 14 -25 116 -25 134c0 55 12 120 60 172c28 31 77 42 146 42c159 0 426 -60 790 -62c6 4 15 6 24 6c54 0 156 -60 156 -103c0 -7 -2 -12 -8 -18c-41 -41 -149 -318 -149 -566c0 -70 15 -86 15 -97c0 -20 -37 -23 -49 -23c-68 0 -182 47 -182 95
c0 37 8 98 22 169c-19 1 -41 1 -64 1c-30 0 -63 -1 -98 -1c-120 -151 -238 -279 -295 -279c-50 0 -115 97 -115 118c0 19 6 28 20 28c4 0 4 -2 4 -5v-8c0 -9 3 -19 31 -19c63 0 157 68 255 163h-29c-91 0 -133 20 -153 45c-17 22 -18 47 -18 73zM901 521
c-53 -73 -119 -165 -188 -255c50 -2 93 -4 122 -4c18 85 42 178 66 259zM1022 842c0 42 17 57 37 57c32 0 73 -36 73 -61c0 -17 -16 -13 -16 -44c0 -6 -3 -13 -20 -13c-45 0 -74 35 -74 61zM1154 792c0 41 17 55 37 55c32 0 74 -36 74 -62c0 -16 -15 -24 -15 -42
c0 -6 -4 -14 -20 -14c-46 0 -76 36 -76 63z" />
    <glyph glyph-name="Adieresis.ss03" horiz-adv-x="875" 
d="M117 312c0 19 8 22 15 22c5 0 9 -2 9 -4v-1c-3 -3 -4 -5 -4 -8c0 -25 127 -39 252 -47c127 135 252 294 318 390l7 16c-28 1 -84 4 -151 4c-158 0 -377 -13 -446 -82c-21 -21 -28 -41 -28 -58c0 -22 12 -40 20 -48c1 -1 2 -3 2 -5c0 -6 -6 -14 -14 -14c-3 0 -7 1 -11 5
c-10 10 -85 112 -85 197c0 90 86 105 155 105c128 0 335 -38 617 -38h2c55 -1 155 -61 155 -103c0 -7 -2 -12 -8 -18c-41 -41 -149 -318 -149 -566c0 -71 15 -86 15 -97c0 -20 -37 -23 -49 -23c-68 0 -182 47 -182 95c0 37 8 98 22 169c-19 1 -41 1 -64 1
c-30 0 -63 -1 -98 -1c-120 -151 -238 -279 -295 -279c-50 0 -115 97 -115 118c0 18 6 28 20 28c4 0 4 -2 4 -5v-8c0 -9 3 -19 31 -19c63 0 157 68 255 163h-29c-170 0 -171 70 -171 111zM659 526c-54 -74 -120 -166 -189 -256c50 -2 93 -4 122 -4c18 85 42 178 67 260z
M784 842c0 42 17 57 37 57c32 0 73 -36 73 -61c0 -17 -16 -13 -16 -44c0 -6 -3 -13 -20 -13c-45 0 -74 35 -74 61zM916 792c0 41 17 55 37 55c32 0 74 -36 74 -62c0 -16 -15 -24 -15 -42c0 -6 -4 -14 -20 -14c-46 0 -76 36 -76 63z" />
    <glyph glyph-name="Agrave" unicode="&#xc0;" horiz-adv-x="1065" 
d="M962 866c14 0 21 -9 21 -14c0 -4 -4 -7 -4 -11c0 -30 78 -108 96 -108c3 0 5 -1 5 -4c0 -5 -6 -13 -16 -13c-37 0 -157 32 -157 84c0 15 30 66 55 66zM54 192c-13 0 -54 67 -54 116c0 156 270 188 356 188c33 0 66 -2 97 -6c127 123 283 228 432 228
c114 0 202 -133 202 -194c0 -115 -149 -461 -151 -504c-2 -42 -11 -58 -29 -58s-137 62 -137 146v4c0 16 9 46 22 83c-33 53 -119 113 -294 124c-59 -104 -94 -209 -94 -281c0 -109 38 -82 38 -103c-1 -22 -25 -37 -34 -37c-53 0 -228 112 -228 205c0 31 46 114 118 210
c-171 -20 -239 -71 -239 -94c0 -8 6 -16 6 -21c0 -3 -2 -6 -11 -6zM941 629c0 12 -3 19 -11 19c-127 0 -244 -83 -336 -191c99 -34 179 -90 237 -157c49 127 110 276 110 329z" />
    <glyph glyph-name="Agrave.ss01" horiz-adv-x="868" 
d="M110 308c0 19 8 22 15 22c5 0 9 -2 9 -4v-1c-3 -3 -4 -5 -4 -8c0 -26 127 -40 251 -48c126 134 250 292 317 388c15 37 29 63 42 76c6 6 16 9 27 9c54 0 156 -60 156 -103c0 -7 -2 -13 -8 -19c-41 -41 -149 -317 -149 -565c0 -71 15 -86 15 -97c0 -21 -35 -24 -48 -24
c-68 0 -183 47 -183 96c0 37 8 97 22 168c-19 1 -39 1 -61 1c-31 0 -66 0 -102 -2c-119 -150 -237 -277 -294 -277c-50 0 -115 96 -115 118c0 18 6 28 20 28c4 0 4 -2 4 -5v-8c0 -9 3 -19 31 -19c63 0 156 68 254 162h-28c-170 0 -171 70 -171 112zM652 521
c-54 -74 -121 -166 -190 -256c50 -2 94 -4 122 -4c19 85 43 179 68 260zM848 893c14 0 21 -9 21 -14c0 -4 -4 -7 -4 -11c0 -30 78 -108 96 -108c3 0 5 -1 5 -4c0 -5 -6 -13 -16 -13c-37 0 -157 32 -157 84c0 15 30 66 55 66z" />
    <glyph glyph-name="Agrave.ss02" horiz-adv-x="1118" 
d="M360 315c0 12 8 16 15 16c5 0 9 -3 9 -5c-3 -4 -4 -6 -4 -9c0 -25 127 -39 252 -47c126 134 250 292 317 388c3 7 5 14 8 20c-79 3 -152 7 -225 7c-221 0 -529 -21 -634 -137c-38 -42 -47 -64 -47 -78c0 -12 6 -16 6 -21c0 -1 0 -3 -2 -5c-1 -1 -4 -2 -8 -2
c-7 0 -17 3 -25 8c-19 14 -25 116 -25 134c0 55 12 120 60 172c28 31 77 42 146 42c159 0 426 -60 790 -62c6 4 15 6 24 6c54 0 156 -60 156 -103c0 -7 -2 -12 -8 -18c-41 -41 -149 -318 -149 -566c0 -70 15 -86 15 -97c0 -20 -37 -23 -49 -23c-68 0 -182 47 -182 95
c0 37 8 98 22 169c-19 1 -41 1 -64 1c-30 0 -63 -1 -98 -1c-120 -151 -238 -279 -295 -279c-50 0 -115 97 -115 118c0 19 6 28 20 28c4 0 4 -2 4 -5v-8c0 -9 3 -19 31 -19c63 0 157 68 255 163h-29c-91 0 -133 20 -153 45c-17 22 -18 47 -18 73zM901 521
c-53 -73 -119 -165 -188 -255c50 -2 93 -4 122 -4c18 85 42 178 66 259zM1099 893c14 0 21 -9 21 -14c0 -4 -4 -7 -4 -11c0 -30 78 -108 96 -108c3 0 5 -1 5 -4c0 -5 -6 -13 -16 -13c-37 0 -157 32 -157 84c0 15 30 66 55 66z" />
    <glyph glyph-name="Agrave.ss03" horiz-adv-x="875" 
d="M117 312c0 19 8 22 15 22c5 0 9 -2 9 -4v-1c-3 -3 -4 -5 -4 -8c0 -25 127 -39 252 -47c127 135 252 294 318 390l7 16c-28 1 -84 4 -151 4c-158 0 -377 -13 -446 -82c-21 -21 -28 -41 -28 -58c0 -22 12 -40 20 -48c1 -1 2 -3 2 -5c0 -6 -6 -14 -14 -14c-3 0 -7 1 -11 5
c-10 10 -85 112 -85 197c0 90 86 105 155 105c128 0 335 -38 617 -38h2c55 -1 155 -61 155 -103c0 -7 -2 -12 -8 -18c-41 -41 -149 -318 -149 -566c0 -71 15 -86 15 -97c0 -20 -37 -23 -49 -23c-68 0 -182 47 -182 95c0 37 8 98 22 169c-19 1 -41 1 -64 1
c-30 0 -63 -1 -98 -1c-120 -151 -238 -279 -295 -279c-50 0 -115 97 -115 118c0 18 6 28 20 28c4 0 4 -2 4 -5v-8c0 -9 3 -19 31 -19c63 0 157 68 255 163h-29c-170 0 -171 70 -171 111zM659 526c-54 -74 -120 -166 -189 -256c50 -2 93 -4 122 -4c18 85 42 178 67 260z
M861 893c14 0 21 -9 21 -14c0 -4 -4 -7 -4 -11c0 -30 78 -108 96 -108c3 0 5 -1 5 -4c0 -5 -6 -13 -16 -13c-37 0 -157 32 -157 84c0 15 30 66 55 66z" />
    <glyph glyph-name="Amacron" unicode="&#x100;" horiz-adv-x="1065" 
d="M1174 765v-4c-2 -16 -10 -38 -27 -38c-42 0 -206 52 -280 52c-14 0 -24 -2 -30 -6c-1 -1 -2 -1 -3 -1c-4 0 -7 5 -7 11c1 7 4 26 20 36c4 3 12 4 23 4c77 0 276 -51 287 -51c6 0 11 2 14 2c2 0 3 -1 3 -5zM54 192c-13 0 -54 67 -54 116c0 156 270 188 356 188
c33 0 66 -2 97 -6c127 123 283 228 432 228c114 0 202 -133 202 -194c0 -115 -149 -461 -151 -504c-2 -42 -11 -58 -29 -58s-137 62 -137 146v4c0 16 9 46 22 83c-33 53 -119 113 -294 124c-59 -104 -94 -209 -94 -281c0 -109 38 -82 38 -103c-1 -22 -25 -37 -34 -37
c-53 0 -228 112 -228 205c0 31 46 114 118 210c-171 -20 -239 -71 -239 -94c0 -8 6 -16 6 -21c0 -3 -2 -6 -11 -6zM941 629c0 12 -3 19 -11 19c-127 0 -244 -83 -336 -191c99 -34 179 -90 237 -157c49 127 110 276 110 329z" />
    <glyph glyph-name="Amacron.001" horiz-adv-x="868" 
d="M1032 765v-4c-2 -16 -10 -38 -27 -38c-42 0 -206 52 -280 52c-14 0 -24 -2 -30 -6c-1 -1 -2 -1 -3 -1c-4 0 -7 5 -7 11c1 7 4 26 20 36c4 3 12 4 23 4c77 0 276 -51 287 -51c6 0 11 2 14 2c2 0 3 -1 3 -5zM110 308c0 19 8 22 15 22c5 0 9 -2 9 -4v-1c-3 -3 -4 -5 -4 -8
c0 -26 127 -40 251 -48c126 134 250 292 317 388c15 37 29 63 42 76c6 6 16 9 27 9c54 0 156 -60 156 -103c0 -7 -2 -13 -8 -19c-41 -41 -149 -317 -149 -565c0 -71 15 -86 15 -97c0 -21 -35 -24 -48 -24c-68 0 -183 47 -183 96c0 37 8 97 22 168c-19 1 -39 1 -61 1
c-31 0 -66 0 -102 -2c-119 -150 -237 -277 -294 -277c-50 0 -115 96 -115 118c0 18 6 28 20 28c4 0 4 -2 4 -5v-8c0 -9 3 -19 31 -19c63 0 156 68 254 162h-28c-170 0 -171 70 -171 112zM652 521c-54 -74 -121 -166 -190 -256c50 -2 94 -4 122 -4c19 85 43 179 68 260z" />
    <glyph glyph-name="Aogonek" unicode="&#x104;" horiz-adv-x="1065" 
d="M54 192c-13 0 -54 67 -54 116c0 156 270 188 356 188c33 0 66 -2 97 -6c127 123 283 228 432 228c114 0 202 -133 202 -194c0 -115 -149 -461 -151 -504c-2 -42 -11 -58 -29 -58c-1 0 -2 0 -4 1c-27 -5 -56 -27 -56 -63c0 -34 15 -56 35 -56c39 0 32 41 34 44
c1 1 2 1 3 1c4 0 8 -5 8 -10c0 -3 -8 -45 -46 -45c-48 0 -93 27 -93 78c0 50 34 78 54 83c-36 26 -72 66 -72 113v4c0 16 9 46 22 83c-33 53 -119 113 -294 124c-59 -104 -94 -209 -94 -281c0 -109 38 -82 38 -103c-1 -22 -25 -37 -34 -37c-53 0 -228 112 -228 205
c0 31 46 114 118 210c-171 -20 -239 -71 -239 -94c0 -8 6 -16 6 -21c0 -3 -2 -6 -11 -6zM941 629c0 12 -3 19 -11 19c-127 0 -244 -83 -336 -191c99 -34 179 -90 237 -157c49 127 110 276 110 329z" />
    <glyph glyph-name="Aogonek.001" horiz-adv-x="868" 
d="M110 308c0 19 8 22 15 22c5 0 9 -2 9 -4v-1c-3 -3 -4 -5 -4 -8c0 -26 127 -40 251 -48c126 134 250 292 317 388c15 37 29 63 42 76c6 6 16 9 27 9c54 0 156 -60 156 -103c0 -7 -2 -13 -8 -19c-41 -41 -149 -317 -149 -565c0 -71 15 -86 15 -97c0 -21 -35 -24 -48 -24h-1
c-22 -8 -43 -29 -43 -59c0 -34 15 -56 35 -56c39 0 32 41 34 44c1 1 2 1 3 1c4 0 8 -5 8 -10c0 -3 -8 -45 -46 -45c-48 0 -93 27 -93 78c0 27 10 48 23 62c-54 18 -103 49 -103 81c0 37 8 97 22 168c-19 1 -39 1 -61 1c-31 0 -66 0 -102 -2c-119 -150 -237 -277 -294 -277
c-50 0 -115 96 -115 118c0 18 6 28 20 28c4 0 4 -2 4 -5v-8c0 -9 3 -19 31 -19c63 0 156 68 254 162h-28c-170 0 -171 70 -171 112zM652 521c-54 -74 -121 -166 -190 -256c50 -2 94 -4 122 -4c19 85 43 179 68 260z" />
    <glyph glyph-name="Aring" unicode="&#xc5;" horiz-adv-x="1065" 
d="M1021 878c22 0 62 -14 62 -39c0 -8 -3 -16 -9 -22c-2 -2 -4 -3 -6 -3c-4 0 -7 3 -7 6c0 1 0 2 1 3c4 4 6 7 6 11c0 10 -12 20 -29 20c-26 0 -43 -24 -43 -50c0 -21 15 -40 42 -40c25 0 51 28 51 45c0 4 -4 8 -4 11c0 4 4 8 9 8c4 0 7 -3 7 -12c0 -53 -40 -105 -83 -105
c-18 0 -72 23 -72 75s45 92 75 92zM54 192c-13 0 -54 67 -54 116c0 156 270 188 356 188c33 0 66 -2 97 -6c127 123 283 228 432 228c114 0 202 -133 202 -194c0 -115 -149 -461 -151 -504c-2 -42 -11 -58 -29 -58s-137 62 -137 146v4c0 16 9 46 22 83
c-33 53 -119 113 -294 124c-59 -104 -94 -209 -94 -281c0 -109 38 -82 38 -103c-1 -22 -25 -37 -34 -37c-53 0 -228 112 -228 205c0 31 46 114 118 210c-171 -20 -239 -71 -239 -94c0 -8 6 -16 6 -21c0 -3 -2 -6 -11 -6zM941 629c0 12 -3 19 -11 19
c-127 0 -244 -83 -336 -191c99 -34 179 -90 237 -157c49 127 110 276 110 329z" />
    <glyph glyph-name="Aring.ss01" horiz-adv-x="868" 
d="M110 308c0 19 8 22 15 22c5 0 9 -2 9 -4v-1c-3 -3 -4 -5 -4 -8c0 -26 127 -40 251 -48c126 134 250 292 317 388c15 37 29 63 42 76c6 6 16 9 27 9c54 0 156 -60 156 -103c0 -7 -2 -13 -8 -19c-41 -41 -149 -317 -149 -565c0 -71 15 -86 15 -97c0 -21 -35 -24 -48 -24
c-68 0 -183 47 -183 96c0 37 8 97 22 168c-19 1 -39 1 -61 1c-31 0 -66 0 -102 -2c-119 -150 -237 -277 -294 -277c-50 0 -115 96 -115 118c0 18 6 28 20 28c4 0 4 -2 4 -5v-8c0 -9 3 -19 31 -19c63 0 156 68 254 162h-28c-170 0 -171 70 -171 112zM652 521
c-54 -74 -121 -166 -190 -256c50 -2 94 -4 122 -4c19 85 43 179 68 260zM893 909c22 0 62 -14 62 -39c0 -8 -3 -16 -9 -22c-2 -2 -4 -3 -6 -3c-4 0 -7 3 -7 6c0 1 0 2 1 3c4 4 6 7 6 11c0 10 -12 20 -29 20c-26 0 -43 -24 -43 -50c0 -21 15 -40 42 -40c25 0 51 28 51 45
c0 4 -4 8 -4 11c0 4 4 8 9 8c4 0 7 -3 7 -12c0 -53 -40 -105 -83 -105c-18 0 -72 23 -72 75s45 92 75 92z" />
    <glyph glyph-name="Aring.ss02" horiz-adv-x="1118" 
d="M360 315c0 12 8 16 15 16c5 0 9 -3 9 -5c-3 -4 -4 -6 -4 -9c0 -25 127 -39 252 -47c126 134 250 292 317 388c3 7 5 14 8 20c-79 3 -152 7 -225 7c-221 0 -529 -21 -634 -137c-38 -42 -47 -64 -47 -78c0 -12 6 -16 6 -21c0 -1 0 -3 -2 -5c-1 -1 -4 -2 -8 -2
c-7 0 -17 3 -25 8c-19 14 -25 116 -25 134c0 55 12 120 60 172c28 31 77 42 146 42c159 0 426 -60 790 -62c6 4 15 6 24 6c54 0 156 -60 156 -103c0 -7 -2 -12 -8 -18c-41 -41 -149 -318 -149 -566c0 -70 15 -86 15 -97c0 -20 -37 -23 -49 -23c-68 0 -182 47 -182 95
c0 37 8 98 22 169c-19 1 -41 1 -64 1c-30 0 -63 -1 -98 -1c-120 -151 -238 -279 -295 -279c-50 0 -115 97 -115 118c0 19 6 28 20 28c4 0 4 -2 4 -5v-8c0 -9 3 -19 31 -19c63 0 157 68 255 163h-29c-91 0 -133 20 -153 45c-17 22 -18 47 -18 73zM901 521
c-53 -73 -119 -165 -188 -255c50 -2 93 -4 122 -4c18 85 42 178 66 259zM1139 909c22 0 62 -14 62 -39c0 -8 -3 -16 -9 -22c-2 -2 -4 -3 -6 -3c-4 0 -7 3 -7 6c0 1 0 2 1 3c4 4 6 7 6 11c0 10 -12 20 -29 20c-26 0 -43 -24 -43 -50c0 -21 15 -40 42 -40c25 0 51 28 51 45
c0 4 -4 8 -4 11c0 4 4 8 9 8c4 0 7 -3 7 -12c0 -53 -40 -105 -83 -105c-18 0 -72 23 -72 75s45 92 75 92z" />
    <glyph glyph-name="Aring.ss03" horiz-adv-x="875" 
d="M117 312c0 19 8 22 15 22c5 0 9 -2 9 -4v-1c-3 -3 -4 -5 -4 -8c0 -25 127 -39 252 -47c127 135 252 294 318 390l7 16c-28 1 -84 4 -151 4c-158 0 -377 -13 -446 -82c-21 -21 -28 -41 -28 -58c0 -22 12 -40 20 -48c1 -1 2 -3 2 -5c0 -6 -6 -14 -14 -14c-3 0 -7 1 -11 5
c-10 10 -85 112 -85 197c0 90 86 105 155 105c128 0 335 -38 617 -38h2c55 -1 155 -61 155 -103c0 -7 -2 -12 -8 -18c-41 -41 -149 -318 -149 -566c0 -71 15 -86 15 -97c0 -20 -37 -23 -49 -23c-68 0 -182 47 -182 95c0 37 8 98 22 169c-19 1 -41 1 -64 1
c-30 0 -63 -1 -98 -1c-120 -151 -238 -279 -295 -279c-50 0 -115 97 -115 118c0 18 6 28 20 28c4 0 4 -2 4 -5v-8c0 -9 3 -19 31 -19c63 0 157 68 255 163h-29c-170 0 -171 70 -171 111zM659 526c-54 -74 -120 -166 -189 -256c50 -2 93 -4 122 -4c18 85 42 178 67 260z
M901 909c22 0 62 -14 62 -39c0 -8 -3 -16 -9 -22c-2 -2 -4 -3 -6 -3c-4 0 -7 3 -7 6c0 1 0 2 1 3c4 4 6 7 6 11c0 10 -12 20 -29 20c-26 0 -43 -24 -43 -50c0 -21 15 -40 42 -40c25 0 51 28 51 45c0 4 -4 8 -4 11c0 4 4 8 9 8c4 0 7 -3 7 -12c0 -53 -40 -105 -83 -105
c-18 0 -72 23 -72 75s45 92 75 92z" />
    <glyph glyph-name="Atilde" unicode="&#xc3;" horiz-adv-x="1065" 
d="M1120 750c0 -15 -16 -29 -22 -29c-5 0 -9 2 -9 5c0 1 0 3 2 5c4 4 6 7 6 10c0 15 -58 18 -205 18c-53 0 -61 50 -61 74c0 7 1 13 1 13c2 2 5 4 7 4c3 0 6 -3 6 -11c0 -38 275 -10 275 -89zM54 192c-13 0 -54 67 -54 116c0 156 270 188 356 188c33 0 66 -2 97 -6
c127 123 283 228 432 228c114 0 202 -133 202 -194c0 -115 -149 -461 -151 -504c-2 -42 -11 -58 -29 -58s-137 62 -137 146v4c0 16 9 46 22 83c-33 53 -119 113 -294 124c-59 -104 -94 -209 -94 -281c0 -109 38 -82 38 -103c-1 -22 -25 -37 -34 -37c-53 0 -228 112 -228 205
c0 31 46 114 118 210c-171 -20 -239 -71 -239 -94c0 -8 6 -16 6 -21c0 -3 -2 -6 -11 -6zM941 629c0 12 -3 19 -11 19c-127 0 -244 -83 -336 -191c99 -34 179 -90 237 -157c49 127 110 276 110 329z" />
    <glyph glyph-name="Atilde.ss01" horiz-adv-x="868" 
d="M110 308c0 19 8 22 15 22c5 0 9 -2 9 -4v-1c-3 -3 -4 -5 -4 -8c0 -26 127 -40 251 -48c126 134 250 292 317 388c15 37 29 63 42 76c6 6 16 9 27 9c54 0 156 -60 156 -103c0 -7 -2 -13 -8 -19c-41 -41 -149 -317 -149 -565c0 -71 15 -86 15 -97c0 -21 -35 -24 -48 -24
c-68 0 -183 47 -183 96c0 37 8 97 22 168c-19 1 -39 1 -61 1c-31 0 -66 0 -102 -2c-119 -150 -237 -277 -294 -277c-50 0 -115 96 -115 118c0 18 6 28 20 28c4 0 4 -2 4 -5v-8c0 -9 3 -19 31 -19c63 0 156 68 254 162h-28c-170 0 -171 70 -171 112zM652 521
c-54 -74 -121 -166 -190 -256c50 -2 94 -4 122 -4c19 85 43 179 68 260zM1012 764c0 -15 -16 -29 -22 -29c-5 0 -9 2 -9 5c0 1 0 3 2 5c4 4 6 7 6 10c0 15 -58 18 -205 18c-53 0 -61 50 -61 74c0 7 1 13 1 13c2 2 5 4 7 4c3 0 6 -3 6 -11c0 -38 275 -10 275 -89z" />
    <glyph glyph-name="Atilde.ss02" horiz-adv-x="1118" 
d="M360 315c0 12 8 16 15 16c5 0 9 -3 9 -5c-3 -4 -4 -6 -4 -9c0 -25 127 -39 252 -47c126 134 250 292 317 388c3 7 5 14 8 20c-79 3 -152 7 -225 7c-221 0 -529 -21 -634 -137c-38 -42 -47 -64 -47 -78c0 -12 6 -16 6 -21c0 -1 0 -3 -2 -5c-1 -1 -4 -2 -8 -2
c-7 0 -17 3 -25 8c-19 14 -25 116 -25 134c0 55 12 120 60 172c28 31 77 42 146 42c159 0 426 -60 790 -62c6 4 15 6 24 6c54 0 156 -60 156 -103c0 -7 -2 -12 -8 -18c-41 -41 -149 -318 -149 -566c0 -70 15 -86 15 -97c0 -20 -37 -23 -49 -23c-68 0 -182 47 -182 95
c0 37 8 98 22 169c-19 1 -41 1 -64 1c-30 0 -63 -1 -98 -1c-120 -151 -238 -279 -295 -279c-50 0 -115 97 -115 118c0 19 6 28 20 28c4 0 4 -2 4 -5v-8c0 -9 3 -19 31 -19c63 0 157 68 255 163h-29c-91 0 -133 20 -153 45c-17 22 -18 47 -18 73zM901 521
c-53 -73 -119 -165 -188 -255c50 -2 93 -4 122 -4c18 85 42 178 66 259zM1263 764c0 -15 -16 -29 -22 -29c-5 0 -9 2 -9 5c0 1 0 3 2 5c4 4 6 7 6 10c0 15 -58 18 -205 18c-53 0 -61 50 -61 74c0 7 1 13 1 13c2 2 5 4 7 4c3 0 6 -3 6 -11c0 -38 275 -10 275 -89z" />
    <glyph glyph-name="Atilde.ss03" horiz-adv-x="875" 
d="M117 312c0 19 8 22 15 22c5 0 9 -2 9 -4v-1c-3 -3 -4 -5 -4 -8c0 -25 127 -39 252 -47c127 135 252 294 318 390l7 16c-28 1 -84 4 -151 4c-158 0 -377 -13 -446 -82c-21 -21 -28 -41 -28 -58c0 -22 12 -40 20 -48c1 -1 2 -3 2 -5c0 -6 -6 -14 -14 -14c-3 0 -7 1 -11 5
c-10 10 -85 112 -85 197c0 90 86 105 155 105c128 0 335 -38 617 -38h2c55 -1 155 -61 155 -103c0 -7 -2 -12 -8 -18c-41 -41 -149 -318 -149 -566c0 -71 15 -86 15 -97c0 -20 -37 -23 -49 -23c-68 0 -182 47 -182 95c0 37 8 98 22 169c-19 1 -41 1 -64 1
c-30 0 -63 -1 -98 -1c-120 -151 -238 -279 -295 -279c-50 0 -115 97 -115 118c0 18 6 28 20 28c4 0 4 -2 4 -5v-8c0 -9 3 -19 31 -19c63 0 157 68 255 163h-29c-170 0 -171 70 -171 111zM659 526c-54 -74 -120 -166 -189 -256c50 -2 93 -4 122 -4c18 85 42 178 67 260z
M1025 764c0 -15 -16 -29 -22 -29c-5 0 -9 2 -9 5c0 1 0 3 2 5c4 4 6 7 6 10c0 15 -58 18 -205 18c-53 0 -61 50 -61 74c0 7 1 13 1 13c2 2 5 4 7 4c3 0 6 -3 6 -11c0 -38 275 -10 275 -89z" />
    <glyph glyph-name="B" unicode="B" horiz-adv-x="780" 
d="M118 623c0 11 11 24 19 24c2 0 3 -1 4 -2c5 -5 -6 -19 24 -19c4 0 25 7 56 18c4 11 7 18 7 23c0 24 18 34 32 34c20 0 41 -11 60 -26c65 19 138 36 196 36c59 0 196 -34 196 -131c0 -75 -57 -146 -131 -203c93 -31 139 -111 139 -178c0 -194 -228 -307 -351 -307
c-106 0 -133 14 -149 30c-13 14 -58 82 -74 126c-5 -15 -8 -26 -8 -33c0 -17 -25 -33 -39 -33c-26 0 -124 92 -124 148c0 57 112 257 187 397c-25 30 -44 68 -44 96zM248 270c-34 -68 -66 -134 -87 -183c14 -12 40 -35 81 -35c189 0 360 130 360 248c0 25 -29 35 -70 35h-12
c-88 -54 -183 -88 -228 -88c-12 0 -28 10 -44 23zM394 566c0 -10 -45 -98 -97 -200c33 7 72 14 111 18c130 52 219 145 219 223c0 21 -17 29 -45 29c-46 0 -120 -24 -191 -56c2 -5 3 -10 3 -14z" />
    <glyph glyph-name="B.001" horiz-adv-x="989" 
d="M142 112c0 81 237 387 262 457c-160 -84 -276 -217 -276 -343c0 -14 2 -18 5 -18s6 3 7 3c0 0 1 0 1 -1c0 -8 -1 -21 -13 -21c-37 0 -128 115 -128 157c0 169 343 391 629 391c175 0 281 -108 281 -174c0 -55 -47 -110 -111 -156c81 -55 130 -137 130 -208
c0 -205 -271 -316 -401 -316c-112 0 -176 51 -193 69c-8 8 -26 31 -44 57v-3c0 -18 -25 -34 -39 -34c-26 0 -110 84 -110 140zM449 314c-47 -80 -99 -169 -130 -232c38 -16 83 -24 131 -24c160 0 344 90 344 233c0 34 -25 58 -60 75c-78 -42 -165 -69 -223 -69
c-14 0 -38 6 -62 17zM557 506c0 -4 -6 -16 -17 -35c14 0 29 1 46 1c29 0 57 -3 84 -9c79 50 141 116 141 157c0 23 -19 38 -65 38c-92 0 -184 -20 -268 -54c44 -21 79 -71 79 -98z" />
    <glyph glyph-name="B.002" horiz-adv-x="989" 
d="M142 129c0 81 237 387 262 457c-160 -84 -276 -217 -276 -343c0 -14 3 -17 6 -17c1 0 4 3 6 3c1 0 1 -2 1 -3c0 -8 -1 -20 -13 -20c-37 0 -128 115 -128 157c0 169 343 391 629 391c175 0 281 -108 281 -174c0 -55 -47 -110 -111 -156c81 -55 130 -137 130 -208
c0 -92 -59 -177 -135 -243c221 -75 462 -158 717 -158c196 0 266 88 266 120c0 9 4 13 9 13c8 0 18 -9 18 -19c0 -41 -128 -336 -307 -336c-307 0 -500 208 -756 339c-83 -59 -176 -95 -235 -95c-85 0 -200 98 -231 161c-8 -6 -17 -9 -23 -9c-26 0 -110 84 -110 140z
M449 331c-58 -98 -121 -209 -147 -270c14 5 31 8 51 8c67 0 138 -12 211 -29c118 52 230 158 230 268c0 34 -25 58 -60 75c-78 -42 -165 -69 -223 -69c-14 0 -38 6 -62 17zM557 523c0 -4 -6 -16 -17 -35c14 0 29 1 46 1c29 0 57 -3 84 -9c79 50 141 116 141 157
c0 23 -19 38 -65 38c-92 0 -184 -20 -268 -54c44 -21 79 -71 79 -98zM421 5c25 0 53 4 81 12c-53 11 -109 18 -170 18c-5 0 -16 -7 -16 -11c0 -9 24 -19 105 -19z" />
    <glyph glyph-name="C" unicode="C" horiz-adv-x="588" 
d="M428 793c56 0 231 -62 231 -141c0 -80 -228 -375 -314 -375c-36 0 -95 56 -95 76c0 11 6 14 12 14c5 0 11 -2 15 -2c51 0 305 258 305 301c0 4 -3 6 -7 6c-139 0 -429 -283 -429 -522c0 -117 40 -162 98 -162c77 0 186 78 279 171c1 1 3 2 5 2c11 0 24 -26 24 -52
c0 -13 -5 -26 -13 -36c-21 -26 -121 -152 -209 -152c-39 0 -103 10 -163 57c-93 71 -167 218 -167 298c0 208 248 517 428 517z" />
    <glyph glyph-name="C.001" horiz-adv-x="560" 
d="M522 154c0 -94 -162 -248 -277 -248c-107 0 -245 106 -245 264c0 140 144 535 369 535c87 0 158 -12 204 -37c25 36 50 61 64 61c56 0 97 -68 97 -108c0 -20 -180 -147 -180 -207c0 -3 -3 -5 -7 -5c-38 0 -68 23 -68 61c0 23 20 73 47 122c-142 -2 -358 -331 -358 -517
c0 -62 35 -101 70 -101c127 0 221 163 221 236c0 5 -4 10 -4 13c0 1 1 3 3 3c9 0 64 -39 64 -72z" />
    <glyph glyph-name="C.002" horiz-adv-x="552" 
d="M369 -237c-39 0 -103 10 -164 57c-93 72 -205 214 -205 294c0 313 243 652 424 652c56 0 232 -61 232 -141s-114 -251 -170 -251c-36 0 -76 32 -76 52c0 13 9 19 19 19c49 0 149 154 149 192c0 5 -2 8 -6 8c-129 0 -394 -375 -394 -598c0 -94 48 -162 173 -162
c114 0 445 71 615 71c180 0 262 -275 262 -316c0 -9 -9 -18 -17 -18c-5 0 -9 4 -9 13c0 121 -129 148 -308 148c-154 0 -345 -20 -525 -20z" />
    <glyph glyph-name="Cacute" unicode="&#x106;" horiz-adv-x="588" 
d="M626 948c26 0 55 -51 55 -66c0 -52 -119 -84 -157 -84c-9 0 -15 7 -15 12c0 3 2 5 5 5c18 0 96 78 96 108c0 4 -4 7 -4 11c0 5 7 14 20 14zM428 793c56 0 231 -62 231 -141c0 -80 -228 -375 -314 -375c-36 0 -95 56 -95 76c0 11 6 14 12 14c5 0 11 -2 15 -2
c51 0 305 258 305 301c0 4 -3 6 -7 6c-139 0 -429 -283 -429 -522c0 -117 40 -162 98 -162c77 0 186 78 279 171c1 1 3 2 5 2c11 0 24 -26 24 -52c0 -13 -5 -26 -13 -36c-21 -26 -121 -152 -209 -152c-39 0 -103 10 -163 57c-93 71 -167 218 -167 298c0 208 248 517 428 517
z" />
    <glyph glyph-name="Cacute.001" horiz-adv-x="560" 
d="M595 891c26 0 55 -51 55 -66c0 -52 -119 -84 -157 -84c-9 0 -15 7 -15 12c0 3 2 5 5 5c18 0 96 78 96 108c0 4 -4 7 -4 11c0 5 7 14 20 14zM522 154c0 -94 -162 -248 -277 -248c-107 0 -245 106 -245 264c0 140 144 535 369 535c87 0 158 -12 204 -37c25 36 50 61 64 61
c56 0 97 -68 97 -108c0 -20 -180 -147 -180 -207c0 -3 -3 -5 -7 -5c-38 0 -68 23 -68 61c0 23 20 73 47 122c-142 -2 -358 -331 -358 -517c0 -62 35 -101 70 -101c127 0 221 163 221 236c0 5 -4 10 -4 13c0 1 1 3 3 3c9 0 64 -39 64 -72z" />
    <glyph glyph-name="Ccaron" unicode="&#x10c;" horiz-adv-x="588" 
d="M507 841c12 8 14 13 14 23c0 24 0 96 -17 111c-2 2 -2 4 -2 5c0 4 5 6 11 6c20 0 58 -49 73 -99c15 9 38 12 61 12c39 0 78 -10 78 -27c0 -4 -1 -7 -4 -7c-1 0 -2 0 -3 1c-3 3 -8 4 -14 4c-28 0 -83 -32 -108 -58v-6c0 -16 -7 -21 -19 -21c-27 0 -73 33 -73 50
c0 3 1 4 3 6zM428 793c56 0 231 -62 231 -141c0 -80 -228 -375 -314 -375c-36 0 -95 56 -95 76c0 11 6 14 12 14c5 0 11 -2 15 -2c51 0 305 258 305 301c0 4 -3 6 -7 6c-139 0 -429 -283 -429 -522c0 -117 40 -162 98 -162c77 0 186 78 279 171c1 1 3 2 5 2
c11 0 24 -26 24 -52c0 -13 -5 -26 -13 -36c-21 -26 -121 -152 -209 -152c-39 0 -103 10 -163 57c-93 71 -167 218 -167 298c0 208 248 517 428 517z" />
    <glyph glyph-name="Ccaron.001" horiz-adv-x="560" 
d="M487 794c12 8 14 13 14 23c0 24 0 96 -17 111c-2 2 -2 4 -2 5c0 4 5 6 11 6c20 0 58 -49 73 -99c15 9 38 12 61 12c39 0 78 -10 78 -27c0 -4 -1 -7 -4 -7c-1 0 -2 0 -3 1c-3 3 -8 4 -14 4c-28 0 -83 -32 -108 -58v-6c0 -16 -7 -21 -19 -21c-27 0 -73 33 -73 50
c0 3 1 4 3 6zM522 154c0 -94 -162 -248 -277 -248c-107 0 -245 106 -245 264c0 140 144 535 369 535c87 0 158 -12 204 -37c25 36 50 61 64 61c56 0 97 -68 97 -108c0 -20 -180 -147 -180 -207c0 -3 -3 -5 -7 -5c-38 0 -68 23 -68 61c0 23 20 73 47 122
c-142 -2 -358 -331 -358 -517c0 -62 35 -101 70 -101c127 0 221 163 221 236c0 5 -4 10 -4 13c0 1 1 3 3 3c9 0 64 -39 64 -72z" />
    <glyph glyph-name="Ccedilla" unicode="&#xc7;" horiz-adv-x="588" 
d="M300 -168c0 -44 -46 -80 -99 -80c-31 0 -45 17 -45 20c0 5 5 10 9 10c1 0 2 0 3 -1c2 -3 -1 -18 32 -18c39 0 56 31 56 57c0 18 -9 33 -23 33c-8 0 -18 -5 -30 -17c-1 -1 -4 -2 -5 -2c-24 0 -46 30 -46 52c0 3 3 10 7 10c11 14 18 55 21 72c-5 3 -9 7 -13 10
c-93 71 -167 218 -167 298c0 208 248 517 428 517c56 0 231 -62 231 -141c0 -80 -228 -375 -314 -375c-36 0 -95 56 -95 76c0 11 6 14 12 14c5 0 11 -2 15 -2c51 0 305 258 305 301c0 4 -3 6 -7 6c-139 0 -429 -283 -429 -522c0 -117 40 -162 98 -162c77 0 186 78 279 171
c1 1 3 2 5 2c11 0 24 -26 24 -52c0 -13 -5 -26 -13 -36c-21 -26 -121 -152 -209 -152c-23 0 -54 3 -87 15l-6 -21c34 -9 63 -38 63 -83z" />
    <glyph glyph-name="Ccedilla.001" horiz-adv-x="560" 
d="M522 154c0 -94 -162 -248 -277 -248c-6 0 -12 1 -18 1l-6 -23c34 -9 63 -38 63 -83c0 -44 -46 -80 -99 -80c-31 0 -45 17 -45 20c0 5 5 10 9 10c1 0 2 0 3 -1c2 -3 -1 -18 32 -18c39 0 56 31 56 57c0 18 -9 33 -23 33c-8 0 -18 -5 -30 -17c-1 -1 -4 -2 -5 -2
c-24 0 -46 30 -46 52c0 3 3 10 7 10c9 11 15 40 19 60c-84 37 -162 126 -162 245c0 140 144 535 369 535c87 0 158 -12 204 -37c25 36 50 61 64 61c56 0 97 -68 97 -108c0 -20 -180 -147 -180 -207c0 -3 -3 -5 -7 -5c-38 0 -68 23 -68 61c0 23 20 73 47 122
c-142 -2 -358 -331 -358 -517c0 -62 35 -101 70 -101c127 0 221 163 221 236c0 5 -4 10 -4 13c0 1 1 3 3 3c9 0 64 -39 64 -72z" />
    <glyph glyph-name="Ccedilla.002" horiz-adv-x="552" 
d="M353 -336c0 -44 -46 -80 -99 -80c-31 0 -45 17 -45 20c0 5 5 10 9 10c1 0 2 0 3 -1c2 -3 -1 -18 32 -18c39 0 56 31 56 57c0 18 -9 33 -23 33c-8 0 -18 -5 -30 -17c-1 -1 -4 -2 -5 -2c-24 0 -46 30 -46 52c0 3 3 10 7 10c11 14 19 57 21 73c-9 6 -19 12 -28 19
c-93 72 -205 214 -205 294c0 313 243 652 424 652c56 0 232 -61 232 -141s-114 -251 -170 -251c-36 0 -76 32 -76 52c0 13 9 19 19 19c49 0 149 154 149 192c0 5 -2 8 -6 8c-129 0 -394 -375 -394 -598c0 -94 48 -162 173 -162c114 0 445 71 615 71c180 0 262 -275 262 -316
c0 -9 -9 -18 -17 -18c-5 0 -9 4 -9 13c0 121 -129 148 -308 148c-154 0 -345 -20 -525 -20c-19 0 -44 2 -72 10l-7 -26c34 -9 63 -38 63 -83z" />
    <glyph glyph-name="Ccircumflex" unicode="&#x108;" horiz-adv-x="588" 
d="M667 894c-13 -1 -18 -26 -18 -56c0 -37 8 -80 16 -87c2 -2 2 -4 2 -5c0 -4 -5 -6 -11 -6c-20 0 -58 49 -73 99c-15 -9 -38 -12 -61 -12c-39 0 -78 10 -78 27c0 4 1 7 4 7c1 0 2 0 3 -1c3 -3 8 -4 14 -4c28 0 83 32 108 58c1 17 8 42 27 42c25 0 74 -31 74 -49
c0 -5 -4 -13 -7 -13zM428 793c56 0 231 -62 231 -141c0 -80 -228 -375 -314 -375c-36 0 -95 56 -95 76c0 11 6 14 12 14c5 0 11 -2 15 -2c51 0 305 258 305 301c0 4 -3 6 -7 6c-139 0 -429 -283 -429 -522c0 -117 40 -162 98 -162c77 0 186 78 279 171c1 1 3 2 5 2
c11 0 24 -26 24 -52c0 -13 -5 -26 -13 -36c-21 -26 -121 -152 -209 -152c-39 0 -103 10 -163 57c-93 71 -167 218 -167 298c0 208 248 517 428 517z" />
    <glyph glyph-name="Ccircumflex.001" horiz-adv-x="560" 
d="M695 878c-13 -1 -18 -26 -18 -56c0 -37 8 -80 16 -87c2 -2 2 -4 2 -5c0 -4 -5 -6 -11 -6c-20 0 -58 49 -73 99c-15 -9 -38 -12 -61 -12c-39 0 -78 10 -78 27c0 4 1 7 4 7c1 0 2 0 3 -1c3 -3 8 -4 14 -4c28 0 83 32 108 58c1 17 8 42 27 42c25 0 74 -31 74 -49
c0 -5 -4 -13 -7 -13zM522 154c0 -94 -162 -248 -277 -248c-107 0 -245 106 -245 264c0 140 144 535 369 535c87 0 158 -12 204 -37c25 36 50 61 64 61c56 0 97 -68 97 -108c0 -20 -180 -147 -180 -207c0 -3 -3 -5 -7 -5c-38 0 -68 23 -68 61c0 23 20 73 47 122
c-142 -2 -358 -331 -358 -517c0 -62 35 -101 70 -101c127 0 221 163 221 236c0 5 -4 10 -4 13c0 1 1 3 3 3c9 0 64 -39 64 -72z" />
    <glyph glyph-name="Cdotaccent" unicode="&#x10a;" horiz-adv-x="588" 
d="M513 953c78 0 123 -76 123 -92s-11 -25 -18 -31c-4 -4 -5 -8 -5 -13c0 -6 2 -12 2 -15c0 -9 -5 -18 -28 -18c-62 0 -115 58 -115 95c0 27 15 74 41 74zM428 793c56 0 231 -62 231 -141c0 -80 -228 -375 -314 -375c-36 0 -95 56 -95 76c0 11 6 14 12 14c5 0 11 -2 15 -2
c51 0 305 258 305 301c0 4 -3 6 -7 6c-139 0 -429 -283 -429 -522c0 -117 40 -162 98 -162c77 0 186 78 279 171c1 1 3 2 5 2c11 0 24 -26 24 -52c0 -13 -5 -26 -13 -36c-21 -26 -121 -152 -209 -152c-39 0 -103 10 -163 57c-93 71 -167 218 -167 298c0 208 248 517 428 517
z" />
    <glyph glyph-name="Cdotaccent.001" horiz-adv-x="560" 
d="M498 903c78 0 123 -76 123 -92s-11 -25 -18 -31c-4 -4 -5 -8 -5 -13c0 -6 2 -12 2 -15c0 -9 -5 -18 -28 -18c-62 0 -115 58 -115 95c0 27 15 74 41 74zM522 154c0 -94 -162 -248 -277 -248c-107 0 -245 106 -245 264c0 140 144 535 369 535c87 0 158 -12 204 -37
c25 36 50 61 64 61c56 0 97 -68 97 -108c0 -20 -180 -147 -180 -207c0 -3 -3 -5 -7 -5c-38 0 -68 23 -68 61c0 23 20 73 47 122c-142 -2 -358 -331 -358 -517c0 -62 35 -101 70 -101c127 0 221 163 221 236c0 5 -4 10 -4 13c0 1 1 3 3 3c9 0 64 -39 64 -72z" />
    <glyph glyph-name="D" unicode="D" horiz-adv-x="783" 
d="M26 661c0 10 7 20 12 20c4 0 5 -9 24 -9c39 0 120 36 295 36h6c298 0 419 -145 419 -295c0 -160 -249 -459 -544 -459c-109 0 -160 18 -178 36c-36 36 -60 96 -60 132c0 19 7 32 22 32c5 0 7 -1 7 -3c0 -3 -4 -9 -4 -16c0 -16 13 -34 47 -45c-6 9 -8 19 -8 27
c0 20 108 321 187 464c-56 -19 -97 -38 -112 -38c-54 0 -113 96 -113 118zM679 495c0 84 -84 126 -211 126c-22 0 -42 -1 -62 -4c24 -15 44 -32 44 -47c0 -5 -2 -9 -6 -13c-46 -45 -187 -369 -220 -472c244 37 455 263 455 410z" />
    <glyph glyph-name="D.001" horiz-adv-x="1209" 
d="M155 155c0 -18 3 -23 7 -23s7 4 9 4c1 0 1 -1 1 -2c0 -10 -1 -26 -17 -26c-46 0 -155 115 -155 169c0 214 529 428 893 428c223 0 337 -145 337 -267c0 -44 -21 -92 -57 -140c16 0 32 1 48 1c35 0 68 -18 68 -28c0 -3 0 -4 -1 -4c-3 0 -16 11 -67 11c-21 0 -43 -3 -68 -6
c-156 -189 -508 -378 -635 -378c-99 0 -175 115 -175 186c0 10 13 22 37 35c6 34 112 297 197 448c-238 -82 -422 -234 -422 -408zM1103 529c0 75 -74 101 -138 101c-44 0 -89 -3 -133 -8c-45 -59 -153 -271 -222 -422c108 31 237 59 361 78c77 73 132 159 132 251zM861 190
c-121 -44 -237 -94 -309 -128c-2 -9 -1 -18 -4 -24c80 23 203 77 313 152z" />
    <glyph glyph-name="D.002" horiz-adv-x="819" 
d="M273 742c15 0 51 -19 84 -44c64 41 152 75 231 75c97 0 251 -141 251 -291c0 -164 -269 -517 -575 -517c-45 0 -104 33 -151 67c-70 50 -112 87 -112 182c0 45 14 84 45 84c4 0 7 -3 7 -7c0 -2 -1 -4 -2 -5c-5 -5 -15 -8 -15 -23c0 -9 3 -24 10 -41c14 33 60 139 227 520
zM584 708c-94 0 -146 -28 -176 -59c10 -13 16 -26 16 -37c0 -7 -2 -14 -8 -20c-62 -62 -225 -417 -228 -461c0 -3 -1 -7 -2 -10h1c319 0 511 328 511 463c0 57 -12 124 -114 124z" />
    <glyph glyph-name="Dcaron" unicode="&#x10e;" horiz-adv-x="783" 
d="M437 772c12 8 14 13 14 23c0 24 0 96 -17 111c-2 2 -2 4 -2 5c0 4 5 6 11 6c20 0 58 -49 73 -99c15 9 38 12 61 12c39 0 78 -10 78 -27c0 -4 -1 -7 -4 -7c-1 0 -2 0 -3 1c-3 3 -8 4 -14 4c-28 0 -83 -32 -108 -58v-6c0 -16 -7 -21 -19 -21c-27 0 -73 33 -73 50
c0 3 1 4 3 6zM26 661c0 10 7 20 12 20c4 0 5 -9 24 -9c39 0 120 36 295 36h6c298 0 419 -145 419 -295c0 -160 -249 -459 -544 -459c-109 0 -160 18 -178 36c-36 36 -60 96 -60 132c0 19 7 32 22 32c5 0 7 -1 7 -3c0 -3 -4 -9 -4 -16c0 -16 13 -34 47 -45c-6 9 -8 19 -8 27
c0 20 108 321 187 464c-56 -19 -97 -38 -112 -38c-54 0 -113 96 -113 118zM679 495c0 84 -84 126 -211 126c-22 0 -42 -1 -62 -4c24 -15 44 -32 44 -47c0 -5 -2 -9 -6 -13c-46 -45 -187 -369 -220 -472c244 37 455 263 455 410z" />
    <glyph glyph-name="Dcaron.001" horiz-adv-x="1209" 
d="M881 781c12 8 14 13 14 23c0 24 0 96 -17 111c-2 2 -2 4 -2 5c0 4 5 6 11 6c20 0 58 -49 73 -99c15 9 38 12 61 12c39 0 78 -10 78 -27c0 -4 -1 -7 -4 -7c-1 0 -2 0 -3 1c-3 3 -8 4 -14 4c-28 0 -83 -32 -108 -58v-6c0 -16 -7 -21 -19 -21c-27 0 -73 33 -73 50
c0 3 1 4 3 6zM155 155c0 -18 3 -23 7 -23s7 4 9 4c1 0 1 -1 1 -2c0 -10 -1 -26 -17 -26c-46 0 -155 115 -155 169c0 214 529 428 893 428c223 0 337 -145 337 -267c0 -44 -21 -92 -57 -140c16 0 32 1 48 1c35 0 68 -18 68 -28c0 -3 0 -4 -1 -4c-3 0 -16 11 -67 11
c-21 0 -43 -3 -68 -6c-156 -189 -508 -378 -635 -378c-99 0 -175 115 -175 186c0 10 13 22 37 35c6 34 112 297 197 448c-238 -82 -422 -234 -422 -408zM1103 529c0 75 -74 101 -138 101c-44 0 -89 -3 -133 -8c-45 -59 -153 -271 -222 -422c108 31 237 59 361 78
c77 73 132 159 132 251zM861 190c-121 -44 -237 -94 -309 -128c-2 -9 -1 -18 -4 -24c80 23 203 77 313 152z" />
    <glyph glyph-name="Dcroat" unicode="&#x110;" horiz-adv-x="783" 
d="M30 661c0 10 7 20 12 20c4 0 5 -9 24 -9c39 0 120 36 295 36h6c298 0 419 -145 419 -295c0 -160 -249 -459 -544 -459c-109 0 -160 18 -178 36c-36 36 -60 96 -60 132c0 19 7 32 22 32c5 0 7 -1 7 -3c0 -3 -4 -9 -4 -16c0 -16 13 -34 47 -45c-6 9 -8 19 -8 27
c0 10 27 89 63 183c-35 -3 -63 -9 -75 -21c-2 -2 -4 -3 -6 -3c-6 0 -12 7 -12 12c0 10 9 49 30 70c11 10 46 15 92 17c31 76 65 152 95 206c-56 -19 -97 -38 -112 -38c-54 0 -113 96 -113 118zM464 373c0 -24 -14 -57 -27 -70c-7 -7 -27 -9 -50 -9c-29 0 -61 3 -74 4
c-38 -86 -71 -169 -85 -213c244 37 455 263 455 410c0 84 -84 126 -211 126c-22 0 -42 -1 -62 -4c24 -15 44 -32 44 -47c0 -5 -2 -9 -6 -13c-21 -20 -60 -95 -100 -181c58 0 82 0 111 10c3 0 5 -3 5 -13z" />
    <glyph glyph-name="Dcroat.001" horiz-adv-x="1209" 
d="M155 155c0 -18 3 -23 7 -23s7 4 9 4c1 0 1 -1 1 -2c0 -10 -1 -26 -17 -26c-46 0 -155 115 -155 169c0 214 529 428 893 428c223 0 337 -145 337 -267c0 -44 -21 -92 -57 -140c16 0 32 1 48 1c35 0 68 -18 68 -28c0 -3 0 -4 -1 -4c-3 0 -16 11 -67 11c-21 0 -43 -3 -68 -6
c-156 -189 -508 -378 -635 -378c-99 0 -175 115 -175 186c0 10 13 22 37 35c3 17 40 111 79 201c-27 -3 -56 -27 -66 -37c-2 -2 -4 -3 -6 -3c-6 0 -3 25 -3 30c0 10 9 49 30 70c10 9 39 14 78 16c30 67 54 117 85 171c-238 -82 -422 -234 -422 -408zM1103 529
c0 75 -74 101 -138 101c-44 0 -89 -3 -133 -8c-29 -38 -75 -121 -129 -228c51 0 75 0 102 10c3 0 5 -3 5 -13c0 -24 -14 -57 -27 -70c-7 -7 -27 -9 -50 -9c-7 0 -68 3 -68 3c-17 -33 -41 -85 -55 -115c108 31 237 59 361 78c77 73 132 159 132 251zM861 190
c-121 -44 -237 -94 -309 -128c-2 -9 -1 -18 -4 -24c80 23 203 77 313 152z" />
    <glyph glyph-name="E" unicode="E" horiz-adv-x="689" 
d="M512 712c60 0 99 -14 122 -31c19 36 41 64 59 64c76 0 95 -44 95 -65c0 -25 -127 -133 -130 -175c0 -2 -3 -5 -7 -5c-36 0 -57 18 -57 56c0 14 4 33 11 55c-155 -9 -209 -81 -209 -126c0 -5 1 -10 3 -14c42 14 83 22 117 22c49 0 131 -44 131 -90c0 -21 -8 -30 -45 -30
c-221 0 -441 -325 -441 -487c0 -54 25 -90 81 -90c116 0 447 366 447 435c0 6 3 9 6 9c7 0 16 -11 16 -27c0 -90 -343 -490 -478 -490c-94 0 -233 216 -233 336c0 158 164 306 324 381c-42 29 -81 71 -81 109c0 100 173 163 269 163z" />
    <glyph glyph-name="E.001" horiz-adv-x="620" 
d="M513 752c60 0 99 -14 123 -31c19 36 40 64 58 64c76 0 95 -44 95 -65c0 -25 -127 -133 -130 -175c0 -2 -3 -5 -7 -5c-37 0 -57 18 -57 55c0 14 4 34 11 56c-155 -9 -210 -81 -210 -126c0 -6 1 -10 3 -15c43 15 84 23 118 23c49 0 131 -44 131 -90c0 -21 -9 -30 -45 -30
c-221 0 -441 -325 -441 -487c0 -54 25 -90 81 -90c113 0 587 138 757 138c180 0 262 -275 262 -316c0 -9 -9 -18 -17 -18c-5 0 -9 4 -9 13c0 111 -142 139 -333 139c-194 0 -439 -29 -636 -29c-130 0 -267 216 -267 335c0 158 164 306 324 382c-42 28 -80 71 -80 109
c0 100 173 163 269 163z" />
    <glyph glyph-name="E.002" horiz-adv-x="572" 
d="M370 108c143 0 169 -58 169 -96c0 -20 -6 -58 -22 -58c-4 0 -8 2 -14 8c-19 19 -53 26 -93 26c-114 0 -278 -57 -298 -57c-67 0 -112 125 -112 171c0 19 36 124 84 240c-7 -2 -13 -2 -18 -2c-43 0 -64 40 -64 58c0 5 2 8 5 8c2 0 5 -2 9 -6c6 -6 20 -9 39 -9
c14 0 32 1 51 4c34 78 71 156 103 213c-37 -1 -76 -1 -118 -1c-50 0 -61 57 -61 100c0 24 4 45 5 46s3 2 5 2c4 0 9 -3 9 -7c0 -8 3 -16 48 -16c143 0 532 34 574 34c44 0 74 -70 74 -112c0 -12 -3 -22 -8 -27c-12 -12 -99 -41 -138 -41c-21 0 -35 34 -35 47
c-19 0 -62 -5 -129 -11c-26 -43 -65 -114 -107 -194c49 6 101 10 151 10c26 0 36 -12 36 -29c0 -21 -16 -50 -35 -70c-7 -6 -13 -8 -17 -8c-5 0 -8 2 -8 5c0 1 1 2 2 3s2 3 2 5c0 13 -34 35 -103 35c-19 0 -37 0 -54 -1c-49 -97 -98 -203 -131 -288c59 10 126 18 199 18z
" />
    <glyph glyph-name="E.003" horiz-adv-x="588" 
d="M115 -58c-8 0 -11 0 -16 1c-59 11 -99 122 -99 164c0 19 35 120 81 232c-6 -1 -12 -1 -17 -1c-42 0 -62 39 -62 56c0 5 2 8 5 8c2 0 5 -1 9 -5c6 -7 19 -9 38 -9c14 0 30 1 49 3c33 77 69 153 101 208c-37 -1 -75 -1 -114 -1c-50 0 -60 57 -60 99c0 22 3 41 4 42s4 2 6 2
c4 0 9 -2 9 -6c0 -9 3 -17 46 -17c139 0 564 34 605 34c43 0 71 -68 71 -109c0 -12 -2 -21 -7 -26c-11 -11 -96 -40 -134 -40c-20 0 -34 34 -34 46c-20 0 -83 -7 -174 -13c-25 -42 -63 -109 -103 -186c48 6 98 10 147 10c25 0 35 -12 35 -28c0 -21 -16 -49 -35 -68
c-7 -7 -12 -9 -16 -9s-7 2 -7 5s3 4 3 8c0 13 -33 34 -100 34c-19 0 -36 0 -52 -1c-45 -90 -90 -186 -121 -266c36 4 226 45 307 45c50 0 64 -74 64 -131c0 -36 -5 -65 -11 -65l-1 1c-16 16 -53 22 -98 22c-111 0 -274 -35 -319 -39z" />
    <glyph glyph-name="Eacute" unicode="&#xc9;" horiz-adv-x="689" 
d="M672 913c26 0 55 -51 55 -66c0 -52 -119 -84 -157 -84c-9 0 -15 7 -15 12c0 3 2 5 5 5c18 0 96 78 96 108c0 4 -4 7 -4 11c0 5 7 14 20 14zM512 712c60 0 99 -14 122 -31c19 36 41 64 59 64c76 0 95 -44 95 -65c0 -25 -127 -133 -130 -175c0 -2 -3 -5 -7 -5
c-36 0 -57 18 -57 56c0 14 4 33 11 55c-155 -9 -209 -81 -209 -126c0 -5 1 -10 3 -14c42 14 83 22 117 22c49 0 131 -44 131 -90c0 -21 -8 -30 -45 -30c-221 0 -441 -325 -441 -487c0 -54 25 -90 81 -90c116 0 447 366 447 435c0 6 3 9 6 9c7 0 16 -11 16 -27
c0 -90 -343 -490 -478 -490c-94 0 -233 216 -233 336c0 158 164 306 324 381c-42 29 -81 71 -81 109c0 100 173 163 269 163z" />
    <glyph glyph-name="Eacute.001" horiz-adv-x="620" 
d="M513 752c60 0 99 -14 123 -31c19 36 40 64 58 64c76 0 95 -44 95 -65c0 -25 -127 -133 -130 -175c0 -2 -3 -5 -7 -5c-37 0 -57 18 -57 55c0 14 4 34 11 56c-155 -9 -210 -81 -210 -126c0 -6 1 -10 3 -15c43 15 84 23 118 23c49 0 131 -44 131 -90c0 -21 -9 -30 -45 -30
c-221 0 -441 -325 -441 -487c0 -54 25 -90 81 -90c113 0 587 138 757 138c180 0 262 -275 262 -316c0 -9 -9 -18 -17 -18c-5 0 -9 4 -9 13c0 111 -142 139 -333 139c-194 0 -439 -29 -636 -29c-130 0 -267 216 -267 335c0 158 164 306 324 382c-42 28 -80 71 -80 109
c0 100 173 163 269 163zM655 939c26 0 55 -51 55 -66c0 -52 -119 -84 -157 -84c-9 0 -15 7 -15 12c0 3 2 5 5 5c18 0 96 78 96 108c0 4 -4 7 -4 11c0 5 7 14 20 14z" />
    <glyph glyph-name="Eacute.002" horiz-adv-x="572" 
d="M370 108c143 0 169 -58 169 -96c0 -20 -6 -58 -22 -58c-4 0 -8 2 -14 8c-19 19 -53 26 -93 26c-114 0 -278 -57 -298 -57c-67 0 -112 125 -112 171c0 19 36 124 84 240c-7 -2 -13 -2 -18 -2c-43 0 -64 40 -64 58c0 5 2 8 5 8c2 0 5 -2 9 -6c6 -6 20 -9 39 -9
c14 0 32 1 51 4c34 78 71 156 103 213c-37 -1 -76 -1 -118 -1c-50 0 -61 57 -61 100c0 24 4 45 5 46s3 2 5 2c4 0 9 -3 9 -7c0 -8 3 -16 48 -16c143 0 532 34 574 34c44 0 74 -70 74 -112c0 -12 -3 -22 -8 -27c-12 -12 -99 -41 -138 -41c-21 0 -35 34 -35 47
c-19 0 -62 -5 -129 -11c-26 -43 -65 -114 -107 -194c49 6 101 10 151 10c26 0 36 -12 36 -29c0 -21 -16 -50 -35 -70c-7 -6 -13 -8 -17 -8c-5 0 -8 2 -8 5c0 1 1 2 2 3s2 3 2 5c0 13 -34 35 -103 35c-19 0 -37 0 -54 -1c-49 -97 -98 -203 -131 -288c59 10 126 18 199 18z
M560 939c26 0 55 -51 55 -66c0 -52 -119 -84 -157 -84c-9 0 -15 7 -15 12c0 3 2 5 5 5c18 0 96 78 96 108c0 4 -4 7 -4 11c0 5 7 14 20 14z" />
    <glyph glyph-name="Eacute.003" horiz-adv-x="588" 
d="M115 -58c-8 0 -11 0 -16 1c-59 11 -99 122 -99 164c0 19 35 120 81 232c-6 -1 -12 -1 -17 -1c-42 0 -62 39 -62 56c0 5 2 8 5 8c2 0 5 -1 9 -5c6 -7 19 -9 38 -9c14 0 30 1 49 3c33 77 69 153 101 208c-37 -1 -75 -1 -114 -1c-50 0 -60 57 -60 99c0 22 3 41 4 42s4 2 6 2
c4 0 9 -2 9 -6c0 -9 3 -17 46 -17c139 0 564 34 605 34c43 0 71 -68 71 -109c0 -12 -2 -21 -7 -26c-11 -11 -96 -40 -134 -40c-20 0 -34 34 -34 46c-20 0 -83 -7 -174 -13c-25 -42 -63 -109 -103 -186c48 6 98 10 147 10c25 0 35 -12 35 -28c0 -21 -16 -49 -35 -68
c-7 -7 -12 -9 -16 -9s-7 2 -7 5s3 4 3 8c0 13 -33 34 -100 34c-19 0 -36 0 -52 -1c-45 -90 -90 -186 -121 -266c36 4 226 45 307 45c50 0 64 -74 64 -131c0 -36 -5 -65 -11 -65l-1 1c-16 16 -53 22 -98 22c-111 0 -274 -35 -319 -39zM560 939c26 0 55 -51 55 -66
c0 -52 -119 -84 -157 -84c-9 0 -15 7 -15 12c0 3 2 5 5 5c18 0 96 78 96 108c0 4 -4 7 -4 11c0 5 7 14 20 14z" />
    <glyph glyph-name="Ebreve" unicode="&#x114;" horiz-adv-x="689" 
d="M611 750c-54 0 -87 44 -87 87c0 20 6 37 21 54c4 5 12 9 19 9c23 0 54 -25 54 -37c0 -2 -1 -3 -2 -4c-12 -12 -18 -23 -18 -32c0 -17 18 -29 38 -29c22 0 46 14 46 49c0 4 -1 7 -3 9c-1 1 -1 2 -1 3c0 4 4 8 9 8c4 0 7 -3 7 -12c0 -53 -40 -105 -83 -105zM512 712
c60 0 99 -14 122 -31c19 36 41 64 59 64c76 0 95 -44 95 -65c0 -25 -127 -133 -130 -175c0 -2 -3 -5 -7 -5c-36 0 -57 18 -57 56c0 14 4 33 11 55c-155 -9 -209 -81 -209 -126c0 -5 1 -10 3 -14c42 14 83 22 117 22c49 0 131 -44 131 -90c0 -21 -8 -30 -45 -30
c-221 0 -441 -325 -441 -487c0 -54 25 -90 81 -90c116 0 447 366 447 435c0 6 3 9 6 9c7 0 16 -11 16 -27c0 -90 -343 -490 -478 -490c-94 0 -233 216 -233 336c0 158 164 306 324 381c-42 29 -81 71 -81 109c0 100 173 163 269 163z" />
    <glyph glyph-name="Ebreve.001" horiz-adv-x="572" 
d="M471 791c-54 0 -87 44 -87 87c0 20 6 37 21 54c4 5 12 9 19 9c23 0 54 -25 54 -37c0 -2 -1 -3 -2 -4c-12 -12 -18 -23 -18 -32c0 -17 18 -29 38 -29c22 0 46 14 46 49c0 4 -1 7 -3 9c-1 1 -1 2 -1 3c0 4 4 8 9 8c4 0 7 -3 7 -12c0 -53 -40 -105 -83 -105zM370 108
c143 0 169 -58 169 -96c0 -20 -6 -58 -22 -58c-4 0 -8 2 -14 8c-19 19 -53 26 -93 26c-114 0 -278 -57 -298 -57c-67 0 -112 125 -112 171c0 19 36 124 84 240c-7 -2 -13 -2 -18 -2c-43 0 -64 40 -64 58c0 5 2 8 5 8c2 0 5 -2 9 -6c6 -6 20 -9 39 -9c14 0 32 1 51 4
c34 78 71 156 103 213c-37 -1 -76 -1 -118 -1c-50 0 -61 57 -61 100c0 24 4 45 5 46s3 2 5 2c4 0 9 -3 9 -7c0 -8 3 -16 48 -16c143 0 532 34 574 34c44 0 74 -70 74 -112c0 -12 -3 -22 -8 -27c-12 -12 -99 -41 -138 -41c-21 0 -35 34 -35 47c-19 0 -62 -5 -129 -11
c-26 -43 -65 -114 -107 -194c49 6 101 10 151 10c26 0 36 -12 36 -29c0 -21 -16 -50 -35 -70c-7 -6 -13 -8 -17 -8c-5 0 -8 2 -8 5c0 1 1 2 2 3s2 3 2 5c0 13 -34 35 -103 35c-19 0 -37 0 -54 -1c-49 -97 -98 -203 -131 -288c59 10 126 18 199 18z" />
    <glyph glyph-name="Ecaron" unicode="&#x11a;" horiz-adv-x="689" 
d="M554 801c12 8 14 13 14 23c0 24 0 96 -17 111c-2 2 -2 4 -2 5c0 4 5 6 11 6c20 0 58 -49 73 -99c15 9 38 12 61 12c39 0 78 -10 78 -27c0 -4 -1 -7 -4 -7c-1 0 -2 0 -3 1c-3 3 -8 4 -14 4c-28 0 -83 -32 -108 -58v-6c0 -16 -7 -21 -19 -21c-27 0 -73 33 -73 50
c0 3 1 4 3 6zM512 712c60 0 99 -14 122 -31c19 36 41 64 59 64c76 0 95 -44 95 -65c0 -25 -127 -133 -130 -175c0 -2 -3 -5 -7 -5c-36 0 -57 18 -57 56c0 14 4 33 11 55c-155 -9 -209 -81 -209 -126c0 -5 1 -10 3 -14c42 14 83 22 117 22c49 0 131 -44 131 -90
c0 -21 -8 -30 -45 -30c-221 0 -441 -325 -441 -487c0 -54 25 -90 81 -90c116 0 447 366 447 435c0 6 3 9 6 9c7 0 16 -11 16 -27c0 -90 -343 -490 -478 -490c-94 0 -233 216 -233 336c0 158 164 306 324 381c-42 29 -81 71 -81 109c0 100 173 163 269 163z" />
    <glyph glyph-name="Ecaron.001" horiz-adv-x="572" 
d="M397 833c12 8 14 13 14 23c0 24 0 96 -17 111c-2 2 -2 4 -2 5c0 4 5 6 11 6c20 0 58 -49 73 -99c15 9 38 12 61 12c39 0 78 -10 78 -27c0 -4 -1 -7 -4 -7c-1 0 -2 0 -3 1c-3 3 -8 4 -14 4c-28 0 -83 -32 -108 -58v-6c0 -16 -7 -21 -19 -21c-27 0 -73 33 -73 50
c0 3 1 4 3 6zM370 108c143 0 169 -58 169 -96c0 -20 -6 -58 -22 -58c-4 0 -8 2 -14 8c-19 19 -53 26 -93 26c-114 0 -278 -57 -298 -57c-67 0 -112 125 -112 171c0 19 36 124 84 240c-7 -2 -13 -2 -18 -2c-43 0 -64 40 -64 58c0 5 2 8 5 8c2 0 5 -2 9 -6c6 -6 20 -9 39 -9
c14 0 32 1 51 4c34 78 71 156 103 213c-37 -1 -76 -1 -118 -1c-50 0 -61 57 -61 100c0 24 4 45 5 46s3 2 5 2c4 0 9 -3 9 -7c0 -8 3 -16 48 -16c143 0 532 34 574 34c44 0 74 -70 74 -112c0 -12 -3 -22 -8 -27c-12 -12 -99 -41 -138 -41c-21 0 -35 34 -35 47
c-19 0 -62 -5 -129 -11c-26 -43 -65 -114 -107 -194c49 6 101 10 151 10c26 0 36 -12 36 -29c0 -21 -16 -50 -35 -70c-7 -6 -13 -8 -17 -8c-5 0 -8 2 -8 5c0 1 1 2 2 3s2 3 2 5c0 13 -34 35 -103 35c-19 0 -37 0 -54 -1c-49 -97 -98 -203 -131 -288c59 10 126 18 199 18z
" />
    <glyph glyph-name="Ecircumflex" unicode="&#xca;" horiz-adv-x="689" 
d="M811 898c-13 -1 -18 -26 -18 -56c0 -37 8 -80 16 -87c2 -2 2 -4 2 -5c0 -4 -5 -6 -11 -6c-20 0 -58 49 -73 99c-15 -9 -38 -12 -61 -12c-39 0 -78 10 -78 27c0 4 1 7 4 7c1 0 2 0 3 -1c3 -3 8 -4 14 -4c28 0 83 32 108 58c1 17 8 42 27 42c25 0 74 -31 74 -49
c0 -5 -4 -13 -7 -13zM512 712c60 0 99 -14 122 -31c19 36 41 64 59 64c76 0 95 -44 95 -65c0 -25 -127 -133 -130 -175c0 -2 -3 -5 -7 -5c-36 0 -57 18 -57 56c0 14 4 33 11 55c-155 -9 -209 -81 -209 -126c0 -5 1 -10 3 -14c42 14 83 22 117 22c49 0 131 -44 131 -90
c0 -21 -8 -30 -45 -30c-221 0 -441 -325 -441 -487c0 -54 25 -90 81 -90c116 0 447 366 447 435c0 6 3 9 6 9c7 0 16 -11 16 -27c0 -90 -343 -490 -478 -490c-94 0 -233 216 -233 336c0 158 164 306 324 381c-42 29 -81 71 -81 109c0 100 173 163 269 163z" />
    <glyph glyph-name="Ecircumflex.001" horiz-adv-x="620" 
d="M513 752c60 0 99 -14 123 -31c19 36 40 64 58 64c76 0 95 -44 95 -65c0 -25 -127 -133 -130 -175c0 -2 -3 -5 -7 -5c-37 0 -57 18 -57 55c0 14 4 34 11 56c-155 -9 -210 -81 -210 -126c0 -6 1 -10 3 -15c43 15 84 23 118 23c49 0 131 -44 131 -90c0 -21 -9 -30 -45 -30
c-221 0 -441 -325 -441 -487c0 -54 25 -90 81 -90c113 0 587 138 757 138c180 0 262 -275 262 -316c0 -9 -9 -18 -17 -18c-5 0 -9 4 -9 13c0 111 -142 139 -333 139c-194 0 -439 -29 -636 -29c-130 0 -267 216 -267 335c0 158 164 306 324 382c-42 28 -80 71 -80 109
c0 100 173 163 269 163zM794 941c-13 -1 -18 -26 -18 -56c0 -37 8 -80 16 -87c2 -2 2 -4 2 -5c0 -4 -5 -6 -11 -6c-20 0 -58 49 -73 99c-15 -9 -38 -12 -61 -12c-39 0 -78 10 -78 27c0 4 1 7 4 7c1 0 2 0 3 -1c3 -3 8 -4 14 -4c28 0 83 32 108 58c1 17 8 42 27 42
c25 0 74 -31 74 -49c0 -5 -4 -13 -7 -13z" />
    <glyph glyph-name="Ecircumflex.002" horiz-adv-x="572" 
d="M370 108c143 0 169 -58 169 -96c0 -20 -6 -58 -22 -58c-4 0 -8 2 -14 8c-19 19 -53 26 -93 26c-114 0 -278 -57 -298 -57c-67 0 -112 125 -112 171c0 19 36 124 84 240c-7 -2 -13 -2 -18 -2c-43 0 -64 40 -64 58c0 5 2 8 5 8c2 0 5 -2 9 -6c6 -6 20 -9 39 -9
c14 0 32 1 51 4c34 78 71 156 103 213c-37 -1 -76 -1 -118 -1c-50 0 -61 57 -61 100c0 24 4 45 5 46s3 2 5 2c4 0 9 -3 9 -7c0 -8 3 -16 48 -16c143 0 532 34 574 34c44 0 74 -70 74 -112c0 -12 -3 -22 -8 -27c-12 -12 -99 -41 -138 -41c-21 0 -35 34 -35 47
c-19 0 -62 -5 -129 -11c-26 -43 -65 -114 -107 -194c49 6 101 10 151 10c26 0 36 -12 36 -29c0 -21 -16 -50 -35 -70c-7 -6 -13 -8 -17 -8c-5 0 -8 2 -8 5c0 1 1 2 2 3s2 3 2 5c0 13 -34 35 -103 35c-19 0 -37 0 -54 -1c-49 -97 -98 -203 -131 -288c59 10 126 18 199 18z
M572 941c-13 -1 -18 -26 -18 -56c0 -37 8 -80 16 -87c2 -2 2 -4 2 -5c0 -4 -5 -6 -11 -6c-20 0 -58 49 -73 99c-15 -9 -38 -12 -61 -12c-39 0 -78 10 -78 27c0 4 1 7 4 7c1 0 2 0 3 -1c3 -3 8 -4 14 -4c28 0 83 32 108 58c1 17 8 42 27 42c25 0 74 -31 74 -49
c0 -5 -4 -13 -7 -13z" />
    <glyph glyph-name="Ecircumflex.003" horiz-adv-x="588" 
d="M115 -58c-8 0 -11 0 -16 1c-59 11 -99 122 -99 164c0 19 35 120 81 232c-6 -1 -12 -1 -17 -1c-42 0 -62 39 -62 56c0 5 2 8 5 8c2 0 5 -1 9 -5c6 -7 19 -9 38 -9c14 0 30 1 49 3c33 77 69 153 101 208c-37 -1 -75 -1 -114 -1c-50 0 -60 57 -60 99c0 22 3 41 4 42s4 2 6 2
c4 0 9 -2 9 -6c0 -9 3 -17 46 -17c139 0 564 34 605 34c43 0 71 -68 71 -109c0 -12 -2 -21 -7 -26c-11 -11 -96 -40 -134 -40c-20 0 -34 34 -34 46c-20 0 -83 -7 -174 -13c-25 -42 -63 -109 -103 -186c48 6 98 10 147 10c25 0 35 -12 35 -28c0 -21 -16 -49 -35 -68
c-7 -7 -12 -9 -16 -9s-7 2 -7 5s3 4 3 8c0 13 -33 34 -100 34c-19 0 -36 0 -52 -1c-45 -90 -90 -186 -121 -266c36 4 226 45 307 45c50 0 64 -74 64 -131c0 -36 -5 -65 -11 -65l-1 1c-16 16 -53 22 -98 22c-111 0 -274 -35 -319 -39zM572 941c-13 -1 -18 -26 -18 -56
c0 -37 8 -80 16 -87c2 -2 2 -4 2 -5c0 -4 -5 -6 -11 -6c-20 0 -58 49 -73 99c-15 -9 -38 -12 -61 -12c-39 0 -78 10 -78 27c0 4 1 7 4 7c1 0 2 0 3 -1c3 -3 8 -4 14 -4c28 0 83 32 108 58c1 17 8 42 27 42c25 0 74 -31 74 -49c0 -5 -4 -13 -7 -13z" />
    <glyph glyph-name="Edieresis" unicode="&#xcb;" horiz-adv-x="689" 
d="M557 876c0 42 17 57 37 57c32 0 73 -36 73 -61c0 -17 -16 -13 -16 -44c0 -6 -3 -13 -20 -13c-45 0 -74 35 -74 61zM689 826c0 41 17 55 37 55c32 0 74 -36 74 -62c0 -16 -15 -24 -15 -42c0 -6 -4 -14 -20 -14c-46 0 -76 36 -76 63zM512 712c60 0 99 -14 122 -31
c19 36 41 64 59 64c76 0 95 -44 95 -65c0 -25 -127 -133 -130 -175c0 -2 -3 -5 -7 -5c-36 0 -57 18 -57 56c0 14 4 33 11 55c-155 -9 -209 -81 -209 -126c0 -5 1 -10 3 -14c42 14 83 22 117 22c49 0 131 -44 131 -90c0 -21 -8 -30 -45 -30c-221 0 -441 -325 -441 -487
c0 -54 25 -90 81 -90c116 0 447 366 447 435c0 6 3 9 6 9c7 0 16 -11 16 -27c0 -90 -343 -490 -478 -490c-94 0 -233 216 -233 336c0 158 164 306 324 381c-42 29 -81 71 -81 109c0 100 173 163 269 163z" />
    <glyph glyph-name="Edieresis.001" horiz-adv-x="620" 
d="M513 752c60 0 99 -14 123 -31c19 36 40 64 58 64c76 0 95 -44 95 -65c0 -25 -127 -133 -130 -175c0 -2 -3 -5 -7 -5c-37 0 -57 18 -57 55c0 14 4 34 11 56c-155 -9 -210 -81 -210 -126c0 -6 1 -10 3 -15c43 15 84 23 118 23c49 0 131 -44 131 -90c0 -21 -9 -30 -45 -30
c-221 0 -441 -325 -441 -487c0 -54 25 -90 81 -90c113 0 587 138 757 138c180 0 262 -275 262 -316c0 -9 -9 -18 -17 -18c-5 0 -9 4 -9 13c0 111 -142 139 -333 139c-194 0 -439 -29 -636 -29c-130 0 -267 216 -267 335c0 158 164 306 324 382c-42 28 -80 71 -80 109
c0 100 173 163 269 163zM566 915c0 42 17 57 37 57c32 0 73 -36 73 -61c0 -17 -16 -13 -16 -44c0 -6 -3 -13 -20 -13c-45 0 -74 35 -74 61zM698 865c0 41 17 55 37 55c32 0 74 -36 74 -62c0 -16 -15 -24 -15 -42c0 -6 -4 -14 -20 -14c-46 0 -76 36 -76 63z" />
    <glyph glyph-name="Edieresis.002" horiz-adv-x="572" 
d="M370 108c143 0 169 -58 169 -96c0 -20 -6 -58 -22 -58c-4 0 -8 2 -14 8c-19 19 -53 26 -93 26c-114 0 -278 -57 -298 -57c-67 0 -112 125 -112 171c0 19 36 124 84 240c-7 -2 -13 -2 -18 -2c-43 0 -64 40 -64 58c0 5 2 8 5 8c2 0 5 -2 9 -6c6 -6 20 -9 39 -9
c14 0 32 1 51 4c34 78 71 156 103 213c-37 -1 -76 -1 -118 -1c-50 0 -61 57 -61 100c0 24 4 45 5 46s3 2 5 2c4 0 9 -3 9 -7c0 -8 3 -16 48 -16c143 0 532 34 574 34c44 0 74 -70 74 -112c0 -12 -3 -22 -8 -27c-12 -12 -99 -41 -138 -41c-21 0 -35 34 -35 47
c-19 0 -62 -5 -129 -11c-26 -43 -65 -114 -107 -194c49 6 101 10 151 10c26 0 36 -12 36 -29c0 -21 -16 -50 -35 -70c-7 -6 -13 -8 -17 -8c-5 0 -8 2 -8 5c0 1 1 2 2 3s2 3 2 5c0 13 -34 35 -103 35c-19 0 -37 0 -54 -1c-49 -97 -98 -203 -131 -288c59 10 126 18 199 18z
M386 911c0 42 17 57 37 57c32 0 73 -36 73 -61c0 -17 -16 -13 -16 -44c0 -6 -3 -13 -20 -13c-45 0 -74 35 -74 61zM518 861c0 41 17 55 37 55c32 0 74 -36 74 -62c0 -16 -15 -24 -15 -42c0 -6 -4 -14 -20 -14c-46 0 -76 36 -76 63z" />
    <glyph glyph-name="Edieresis.003" horiz-adv-x="588" 
d="M115 -58c-8 0 -11 0 -16 1c-59 11 -99 122 -99 164c0 19 35 120 81 232c-6 -1 -12 -1 -17 -1c-42 0 -62 39 -62 56c0 5 2 8 5 8c2 0 5 -1 9 -5c6 -7 19 -9 38 -9c14 0 30 1 49 3c33 77 69 153 101 208c-37 -1 -75 -1 -114 -1c-50 0 -60 57 -60 99c0 22 3 41 4 42s4 2 6 2
c4 0 9 -2 9 -6c0 -9 3 -17 46 -17c139 0 564 34 605 34c43 0 71 -68 71 -109c0 -12 -2 -21 -7 -26c-11 -11 -96 -40 -134 -40c-20 0 -34 34 -34 46c-20 0 -83 -7 -174 -13c-25 -42 -63 -109 -103 -186c48 6 98 10 147 10c25 0 35 -12 35 -28c0 -21 -16 -49 -35 -68
c-7 -7 -12 -9 -16 -9s-7 2 -7 5s3 4 3 8c0 13 -33 34 -100 34c-19 0 -36 0 -52 -1c-45 -90 -90 -186 -121 -266c36 4 226 45 307 45c50 0 64 -74 64 -131c0 -36 -5 -65 -11 -65l-1 1c-16 16 -53 22 -98 22c-111 0 -274 -35 -319 -39zM386 911c0 42 17 57 37 57
c32 0 73 -36 73 -61c0 -17 -16 -13 -16 -44c0 -6 -3 -13 -20 -13c-45 0 -74 35 -74 61zM518 861c0 41 17 55 37 55c32 0 74 -36 74 -62c0 -16 -15 -24 -15 -42c0 -6 -4 -14 -20 -14c-46 0 -76 36 -76 63z" />
    <glyph glyph-name="Edotaccent" unicode="&#x116;" horiz-adv-x="689" 
d="M560 916c78 0 123 -76 123 -92s-11 -25 -18 -31c-4 -4 -5 -8 -5 -13c0 -6 2 -12 2 -15c0 -9 -5 -18 -28 -18c-62 0 -115 58 -115 95c0 27 15 74 41 74zM512 712c60 0 99 -14 122 -31c19 36 41 64 59 64c76 0 95 -44 95 -65c0 -25 -127 -133 -130 -175c0 -2 -3 -5 -7 -5
c-36 0 -57 18 -57 56c0 14 4 33 11 55c-155 -9 -209 -81 -209 -126c0 -5 1 -10 3 -14c42 14 83 22 117 22c49 0 131 -44 131 -90c0 -21 -8 -30 -45 -30c-221 0 -441 -325 -441 -487c0 -54 25 -90 81 -90c116 0 447 366 447 435c0 6 3 9 6 9c7 0 16 -11 16 -27
c0 -90 -343 -490 -478 -490c-94 0 -233 216 -233 336c0 158 164 306 324 381c-42 29 -81 71 -81 109c0 100 173 163 269 163z" />
    <glyph glyph-name="Edotaccent.001" horiz-adv-x="572" 
d="M415 952c78 0 123 -76 123 -92s-11 -25 -18 -31c-4 -4 -5 -8 -5 -13c0 -6 2 -12 2 -15c0 -9 -5 -18 -28 -18c-62 0 -115 58 -115 95c0 27 15 74 41 74zM370 108c143 0 169 -58 169 -96c0 -20 -6 -58 -22 -58c-4 0 -8 2 -14 8c-19 19 -53 26 -93 26
c-114 0 -278 -57 -298 -57c-67 0 -112 125 -112 171c0 19 36 124 84 240c-7 -2 -13 -2 -18 -2c-43 0 -64 40 -64 58c0 5 2 8 5 8c2 0 5 -2 9 -6c6 -6 20 -9 39 -9c14 0 32 1 51 4c34 78 71 156 103 213c-37 -1 -76 -1 -118 -1c-50 0 -61 57 -61 100c0 24 4 45 5 46s3 2 5 2
c4 0 9 -3 9 -7c0 -8 3 -16 48 -16c143 0 532 34 574 34c44 0 74 -70 74 -112c0 -12 -3 -22 -8 -27c-12 -12 -99 -41 -138 -41c-21 0 -35 34 -35 47c-19 0 -62 -5 -129 -11c-26 -43 -65 -114 -107 -194c49 6 101 10 151 10c26 0 36 -12 36 -29c0 -21 -16 -50 -35 -70
c-7 -6 -13 -8 -17 -8c-5 0 -8 2 -8 5c0 1 1 2 2 3s2 3 2 5c0 13 -34 35 -103 35c-19 0 -37 0 -54 -1c-49 -97 -98 -203 -131 -288c59 10 126 18 199 18z" />
    <glyph glyph-name="Egrave" unicode="&#xc8;" horiz-adv-x="689" 
d="M586 919c14 0 21 -9 21 -14c0 -4 -4 -7 -4 -11c0 -30 78 -108 96 -108c3 0 5 -1 5 -4c0 -5 -6 -13 -16 -13c-37 0 -157 32 -157 84c0 15 30 66 55 66zM512 712c60 0 99 -14 122 -31c19 36 41 64 59 64c76 0 95 -44 95 -65c0 -25 -127 -133 -130 -175c0 -2 -3 -5 -7 -5
c-36 0 -57 18 -57 56c0 14 4 33 11 55c-155 -9 -209 -81 -209 -126c0 -5 1 -10 3 -14c42 14 83 22 117 22c49 0 131 -44 131 -90c0 -21 -8 -30 -45 -30c-221 0 -441 -325 -441 -487c0 -54 25 -90 81 -90c116 0 447 366 447 435c0 6 3 9 6 9c7 0 16 -11 16 -27
c0 -90 -343 -490 -478 -490c-94 0 -233 216 -233 336c0 158 164 306 324 381c-42 29 -81 71 -81 109c0 100 173 163 269 163z" />
    <glyph glyph-name="Egrave.001" horiz-adv-x="620" 
d="M513 752c60 0 99 -14 123 -31c19 36 40 64 58 64c76 0 95 -44 95 -65c0 -25 -127 -133 -130 -175c0 -2 -3 -5 -7 -5c-37 0 -57 18 -57 55c0 14 4 34 11 56c-155 -9 -210 -81 -210 -126c0 -6 1 -10 3 -15c43 15 84 23 118 23c49 0 131 -44 131 -90c0 -21 -9 -30 -45 -30
c-221 0 -441 -325 -441 -487c0 -54 25 -90 81 -90c113 0 587 138 757 138c180 0 262 -275 262 -316c0 -9 -9 -18 -17 -18c-5 0 -9 4 -9 13c0 111 -142 139 -333 139c-194 0 -439 -29 -636 -29c-130 0 -267 216 -267 335c0 158 164 306 324 382c-42 28 -80 71 -80 109
c0 100 173 163 269 163zM621 962c14 0 21 -9 21 -14c0 -4 -4 -7 -4 -11c0 -30 78 -108 96 -108c3 0 5 -1 5 -4c0 -5 -6 -13 -16 -13c-37 0 -157 32 -157 84c0 15 30 66 55 66z" />
    <glyph glyph-name="Egrave.002" horiz-adv-x="572" 
d="M370 108c143 0 169 -58 169 -96c0 -20 -6 -58 -22 -58c-4 0 -8 2 -14 8c-19 19 -53 26 -93 26c-114 0 -278 -57 -298 -57c-67 0 -112 125 -112 171c0 19 36 124 84 240c-7 -2 -13 -2 -18 -2c-43 0 -64 40 -64 58c0 5 2 8 5 8c2 0 5 -2 9 -6c6 -6 20 -9 39 -9
c14 0 32 1 51 4c34 78 71 156 103 213c-37 -1 -76 -1 -118 -1c-50 0 -61 57 -61 100c0 24 4 45 5 46s3 2 5 2c4 0 9 -3 9 -7c0 -8 3 -16 48 -16c143 0 532 34 574 34c44 0 74 -70 74 -112c0 -12 -3 -22 -8 -27c-12 -12 -99 -41 -138 -41c-21 0 -35 34 -35 47
c-19 0 -62 -5 -129 -11c-26 -43 -65 -114 -107 -194c49 6 101 10 151 10c26 0 36 -12 36 -29c0 -21 -16 -50 -35 -70c-7 -6 -13 -8 -17 -8c-5 0 -8 2 -8 5c0 1 1 2 2 3s2 3 2 5c0 13 -34 35 -103 35c-19 0 -37 0 -54 -1c-49 -97 -98 -203 -131 -288c59 10 126 18 199 18z
M446 947c14 0 21 -9 21 -14c0 -4 -4 -7 -4 -11c0 -30 78 -108 96 -108c3 0 5 -1 5 -4c0 -5 -6 -13 -16 -13c-37 0 -157 32 -157 84c0 15 30 66 55 66z" />
    <glyph glyph-name="Egrave.003" horiz-adv-x="588" 
d="M115 -58c-8 0 -11 0 -16 1c-59 11 -99 122 -99 164c0 19 35 120 81 232c-6 -1 -12 -1 -17 -1c-42 0 -62 39 -62 56c0 5 2 8 5 8c2 0 5 -1 9 -5c6 -7 19 -9 38 -9c14 0 30 1 49 3c33 77 69 153 101 208c-37 -1 -75 -1 -114 -1c-50 0 -60 57 -60 99c0 22 3 41 4 42s4 2 6 2
c4 0 9 -2 9 -6c0 -9 3 -17 46 -17c139 0 564 34 605 34c43 0 71 -68 71 -109c0 -12 -2 -21 -7 -26c-11 -11 -96 -40 -134 -40c-20 0 -34 34 -34 46c-20 0 -83 -7 -174 -13c-25 -42 -63 -109 -103 -186c48 6 98 10 147 10c25 0 35 -12 35 -28c0 -21 -16 -49 -35 -68
c-7 -7 -12 -9 -16 -9s-7 2 -7 5s3 4 3 8c0 13 -33 34 -100 34c-19 0 -36 0 -52 -1c-45 -90 -90 -186 -121 -266c36 4 226 45 307 45c50 0 64 -74 64 -131c0 -36 -5 -65 -11 -65l-1 1c-16 16 -53 22 -98 22c-111 0 -274 -35 -319 -39zM446 947c14 0 21 -9 21 -14
c0 -4 -4 -7 -4 -11c0 -30 78 -108 96 -108c3 0 5 -1 5 -4c0 -5 -6 -13 -16 -13c-37 0 -157 32 -157 84c0 15 30 66 55 66z" />
    <glyph glyph-name="Emacron" unicode="&#x112;" horiz-adv-x="689" 
d="M844 807v-4c-2 -16 -10 -38 -27 -38c-42 0 -206 52 -280 52c-14 0 -24 -2 -30 -6c-1 -1 -2 -1 -3 -1c-4 0 -7 5 -7 11c1 7 4 26 20 36c4 3 12 4 23 4c77 0 276 -51 287 -51c6 0 11 2 14 2c2 0 3 -1 3 -5zM512 712c60 0 99 -14 122 -31c19 36 41 64 59 64
c76 0 95 -44 95 -65c0 -25 -127 -133 -130 -175c0 -2 -3 -5 -7 -5c-36 0 -57 18 -57 56c0 14 4 33 11 55c-155 -9 -209 -81 -209 -126c0 -5 1 -10 3 -14c42 14 83 22 117 22c49 0 131 -44 131 -90c0 -21 -8 -30 -45 -30c-221 0 -441 -325 -441 -487c0 -54 25 -90 81 -90
c116 0 447 366 447 435c0 6 3 9 6 9c7 0 16 -11 16 -27c0 -90 -343 -490 -478 -490c-94 0 -233 216 -233 336c0 158 164 306 324 381c-42 29 -81 71 -81 109c0 100 173 163 269 163z" />
    <glyph glyph-name="Emacron.001" horiz-adv-x="572" 
d="M642 832v-4c-2 -16 -10 -38 -27 -38c-42 0 -206 52 -280 52c-14 0 -24 -2 -30 -6c-1 -1 -2 -1 -3 -1c-4 0 -7 5 -7 11c1 7 4 26 20 36c4 3 12 4 23 4c77 0 276 -51 287 -51c6 0 11 2 14 2c2 0 3 -1 3 -5zM370 108c143 0 169 -58 169 -96c0 -20 -6 -58 -22 -58
c-4 0 -8 2 -14 8c-19 19 -53 26 -93 26c-114 0 -278 -57 -298 -57c-67 0 -112 125 -112 171c0 19 36 124 84 240c-7 -2 -13 -2 -18 -2c-43 0 -64 40 -64 58c0 5 2 8 5 8c2 0 5 -2 9 -6c6 -6 20 -9 39 -9c14 0 32 1 51 4c34 78 71 156 103 213c-37 -1 -76 -1 -118 -1
c-50 0 -61 57 -61 100c0 24 4 45 5 46s3 2 5 2c4 0 9 -3 9 -7c0 -8 3 -16 48 -16c143 0 532 34 574 34c44 0 74 -70 74 -112c0 -12 -3 -22 -8 -27c-12 -12 -99 -41 -138 -41c-21 0 -35 34 -35 47c-19 0 -62 -5 -129 -11c-26 -43 -65 -114 -107 -194c49 6 101 10 151 10
c26 0 36 -12 36 -29c0 -21 -16 -50 -35 -70c-7 -6 -13 -8 -17 -8c-5 0 -8 2 -8 5c0 1 1 2 2 3s2 3 2 5c0 13 -34 35 -103 35c-19 0 -37 0 -54 -1c-49 -97 -98 -203 -131 -288c59 10 126 18 199 18z" />
    <glyph glyph-name="Eng" unicode="&#x14a;" horiz-adv-x="746" 
d="M92 -230c221 0 462 749 498 821c-103 -54 -353 -383 -353 -556c0 -30 -6 -56 -80 -56c-32 0 -157 67 -157 139c0 59 206 443 206 571c0 11 -2 14 -5 14s-7 -4 -10 -4c-2 0 -4 2 -4 10v1c0 9 0 42 46 42c71 0 141 -69 141 -138c0 -56 -16 -122 -39 -188
c128 156 283 297 334 297c4 5 11 7 18 7c49 0 148 -101 148 -135c0 -28 -416 -982 -608 -982c-138 0 -272 189 -272 226s28 72 35 72s21 -6 21 -13c0 -4 -12 -14 -12 -31c0 -41 49 -97 93 -97z" />
    <glyph glyph-name="Eogonek" unicode="&#x118;" horiz-adv-x="689" 
d="M114 -327c0 45 28 72 48 81c-80 64 -162 213 -162 305c0 158 164 306 324 381c-42 29 -81 71 -81 109c0 100 173 163 269 163c60 0 99 -14 122 -31c19 36 41 64 59 64c76 0 95 -44 95 -65c0 -25 -127 -133 -130 -175c0 -2 -3 -5 -7 -5c-36 0 -57 18 -57 56
c0 14 4 33 11 55c-155 -9 -209 -81 -209 -126c0 -5 1 -10 3 -14c42 14 83 22 117 22c49 0 131 -44 131 -90c0 -21 -8 -30 -45 -30c-221 0 -441 -325 -441 -487c0 -54 25 -90 81 -90c116 0 447 366 447 435c0 6 3 9 6 9c7 0 16 -11 16 -27c0 -90 -343 -490 -478 -490
c-2 0 -3 1 -4 1c-27 -5 -56 -27 -56 -63c0 -34 15 -56 35 -56c39 0 32 41 34 44c1 1 2 1 3 1c4 0 8 -5 8 -10c0 -3 -8 -45 -46 -45c-48 0 -93 27 -93 78z" />
    <glyph glyph-name="Eogonek.001" horiz-adv-x="572" 
d="M345 -69c0 23 7 41 17 54c-108 -11 -233 -54 -250 -54c-67 0 -112 125 -112 171c0 19 36 124 84 240c-7 -2 -13 -2 -18 -2c-43 0 -64 40 -64 58c0 5 2 8 5 8c2 0 5 -2 9 -6c6 -6 20 -9 39 -9c14 0 32 1 51 4c34 78 71 156 103 213c-37 -1 -76 -1 -118 -1
c-50 0 -61 57 -61 100c0 24 4 45 5 46s3 2 5 2c4 0 9 -3 9 -7c0 -8 3 -16 48 -16c143 0 532 34 574 34c44 0 74 -70 74 -112c0 -12 -3 -22 -8 -27c-12 -12 -99 -41 -138 -41c-21 0 -35 34 -35 47c-19 0 -62 -5 -129 -11c-26 -43 -65 -114 -107 -194c49 6 101 10 151 10
c26 0 36 -12 36 -29c0 -21 -16 -50 -35 -70c-7 -6 -13 -8 -17 -8c-5 0 -8 2 -8 5c0 1 1 2 2 3s2 3 2 5c0 13 -34 35 -103 35c-19 0 -37 0 -54 -1c-49 -97 -98 -203 -131 -288c59 10 126 18 199 18c143 0 169 -58 169 -96c0 -20 -6 -58 -22 -58c-4 0 -8 2 -14 8
c-10 10 -22 16 -38 20c-28 -2 -61 -25 -61 -63c0 -34 15 -56 35 -56c39 0 32 41 34 44c1 1 2 1 3 1c4 0 8 -5 8 -10c0 -3 -8 -45 -46 -45c-48 0 -93 27 -93 78z" />
    <glyph glyph-name="Eth" unicode="&#xd0;" horiz-adv-x="783" 
d="M30 661c0 10 7 20 12 20c4 0 5 -9 24 -9c39 0 120 36 295 36h6c298 0 419 -145 419 -295c0 -160 -249 -459 -544 -459c-109 0 -160 18 -178 36c-36 36 -60 96 -60 132c0 19 7 32 22 32c5 0 7 -1 7 -3c0 -3 -4 -9 -4 -16c0 -16 13 -34 47 -45c-6 9 -8 19 -8 27
c0 10 27 89 63 183c-35 -3 -63 -9 -75 -21c-2 -2 -4 -3 -6 -3c-6 0 -12 7 -12 12c0 10 9 49 30 70c11 10 46 15 92 17c31 76 65 152 95 206c-56 -19 -97 -38 -112 -38c-54 0 -113 96 -113 118zM464 373c0 -24 -14 -57 -27 -70c-7 -7 -27 -9 -50 -9c-29 0 -61 3 -74 4
c-38 -86 -71 -169 -85 -213c244 37 455 263 455 410c0 84 -84 126 -211 126c-22 0 -42 -1 -62 -4c24 -15 44 -32 44 -47c0 -5 -2 -9 -6 -13c-21 -20 -60 -95 -100 -181c58 0 82 0 111 10c3 0 5 -3 5 -13z" />
    <glyph glyph-name="Euro" unicode="&#x20ac;" horiz-adv-x="547" 
d="M27 309c0 6 0 18 31 18h75c46 99 120 193 222 193c53 0 91 -7 117 -21c15 22 30 37 39 37c36 0 63 -45 63 -71c0 -13 -117 -95 -117 -134c0 -2 -2 -3 -5 -3c-24 0 -43 15 -43 40c0 15 13 47 30 79c-55 -1 -112 -56 -158 -129c57 -8 100 -22 100 -47c0 -13 -6 -19 -13 -19
c-6 0 13 33 -67 33h-39c-11 -22 -22 -44 -31 -67c16 1 31 1 46 1c47 0 87 -3 96 -12c4 -4 6 -10 6 -16c0 -16 -14 -34 -20 -34c-3 0 -4 1 -4 3s1 5 1 8s-1 6 -3 8c-3 3 -17 4 -36 4c-26 0 -63 -1 -102 -4c-14 -43 -22 -85 -22 -118c0 -47 16 -79 53 -79c82 0 122 77 122 113
c0 4 -3 6 -3 8c0 1 0 2 1 2c1 1 2 1 3 1c13 0 50 -39 50 -60c0 -41 -94 -108 -169 -108c-69 0 -170 88 -170 191c0 13 2 29 5 48c-20 1 -34 4 -40 9c-8 9 -11 19 -11 26c0 8 3 13 6 13c12 0 -2 -12 26 -12c5 0 14 0 27 1c5 21 12 43 20 66c-44 -6 -29 -14 -38 -14
c-15 0 -48 21 -48 46z" />
    <glyph glyph-name="Euro.001" horiz-adv-x="767" 
d="M61 456c0 9 0 27 48 27h115c71 154 186 298 344 298c81 0 141 -10 180 -32c24 33 46 56 59 56c57 0 98 -68 98 -108c0 -20 -180 -147 -180 -207c0 -3 -3 -5 -8 -5c-37 0 -67 23 -67 61c0 23 20 72 47 122c-88 -1 -177 -86 -248 -198c89 -11 159 -33 159 -73
c0 -20 -10 -30 -20 -30s20 52 -104 52h-65c-18 -33 -35 -68 -49 -102c26 1 52 1 76 1c73 0 134 -5 149 -20c7 -7 9 -14 9 -23c0 -25 -22 -54 -31 -54c-4 0 -5 2 -5 5s1 8 1 12s-1 8 -5 12c-5 5 -26 7 -58 7c-41 0 -100 -4 -160 -7c-21 -65 -33 -127 -33 -178
c0 -74 26 -125 86 -125c127 0 187 119 187 174c0 5 -3 10 -3 13c0 2 2 5 5 5c20 0 77 -61 77 -93c0 -63 -144 -167 -259 -167c-107 0 -263 135 -263 294c0 20 2 46 7 74c-30 2 -52 7 -60 15c-13 13 -18 28 -18 40s5 20 9 20c19 0 -3 -19 40 -19c6 0 22 1 41 2
c8 32 19 67 31 102c-67 -10 -44 -22 -58 -22c-23 0 -74 32 -74 71z" />
    <glyph glyph-name="F" unicode="F" horiz-adv-x="832" 
d="M799 522c30 0 76 -37 76 -64s-125 -127 -125 -195v-10c0 -7 -1 -10 -8 -10c-14 0 -63 30 -63 85c0 17 15 58 36 98c-85 -83 -215 -254 -268 -500c-8 -36 -11 -70 -11 -101c0 -41 1 -62 12 -74c1 -1 2 -3 2 -5c0 -10 -14 -26 -24 -26c-49 0 -133 160 -133 238
c0 160 157 493 265 664c-38 2 -76 3 -113 3c-213 0 -390 -33 -390 -148c0 -24 70 -36 148 -36c97 0 205 18 205 54c0 4 2 5 4 5c3 0 7 -4 7 -11c0 -11 -92 -156 -239 -156c-112 0 -180 135 -180 226c0 28 7 52 21 66c71 71 185 112 340 112c56 0 158 -4 274 -9l13 14
c24 23 45 35 83 35c43 0 102 -31 142 -56c54 -2 106 -2 155 -2c133 0 237 6 256 25c12 12 4 18 11 18s10 -7 10 -24c0 -57 -80 -173 -145 -173c-45 0 -193 22 -367 39c-49 -50 -112 -142 -172 -249c55 72 105 117 138 140c14 16 28 27 40 27z" />
    <glyph glyph-name="F.001" horiz-adv-x="578" 
d="M736 809c45 0 103 -53 103 -73c0 -5 -3 -8 -11 -8c-59 0 -166 -127 -166 -172c0 -2 -3 -5 -8 -5c-27 0 -52 28 -52 66c0 18 10 46 25 74h-4c-36 0 -109 -86 -183 -207c162 -18 192 -76 192 -107c0 -12 -5 -21 -8 -21c-25 0 -5 49 -142 49c-32 0 -63 -4 -94 -9
c-96 -174 -182 -386 -182 -523c0 -41 1 -62 13 -74c1 -1 2 -3 2 -5c0 -11 -15 -27 -24 -27c-50 0 -133 158 -133 233v6c6 91 42 208 90 324c-21 -6 -38 -10 -52 -10c-57 0 -102 122 -102 157c0 6 3 13 7 13c2 0 3 -1 5 -3c6 -6 28 -8 59 -8c42 0 101 4 155 7
c73 144 151 266 192 304c38 35 56 35 92 35c17 0 109 -33 157 -73c25 32 52 57 69 57z" />
    <glyph glyph-name="F.002" horiz-adv-x="540" 
d="M542 333c0 -12 -8 -15 -15 -15c-5 0 -10 2 -10 4c3 3 4 5 4 7c0 15 -46 35 -91 35c-37 0 -71 -2 -103 -4c-77 -154 -153 -326 -153 -394c0 -12 -5 -19 -22 -19c-64 0 -129 66 -129 110c0 20 44 144 99 276c-10 -2 -18 -2 -24 -2c-46 0 -64 50 -64 69c0 4 1 8 2 8
s2 -1 3 -2c10 -10 30 -14 57 -14c15 0 34 1 53 3c29 67 60 131 87 181c-45 -2 -90 -2 -133 -2c-75 0 -103 133 -103 146c0 6 3 9 6 9c5 0 11 -7 11 -15s17 -10 45 -10c137 0 603 46 643 46c59 0 88 -94 88 -145c0 -15 -2 -25 -7 -30c-6 -6 -15 -9 -22 -9c-6 0 -10 2 -10 6
s3 8 3 13c0 13 -11 28 -32 28c-22 0 -134 -13 -274 -24c-24 -40 -57 -100 -92 -167c36 4 74 7 110 7c62 0 73 -37 73 -96z" />
    <glyph glyph-name="G" unicode="G" horiz-adv-x="740" 
d="M669 762c76 0 140 -59 140 -80c0 -19 -119 -133 -119 -175c0 -2 -2 -4 -7 -4c-36 0 -102 33 -102 70c0 11 2 25 5 41c-4 0 -9 1 -13 1c-158 0 -427 -361 -427 -544c0 -54 18 -76 48 -76c69 0 198 119 291 230c13 29 27 57 42 83c-154 4 -180 61 -180 84c0 4 3 6 6 6
c2 0 4 -1 5 -2c10 -10 27 -14 48 -14c84 0 233 61 253 61c37 0 108 -43 108 -94c0 -7 -1 -11 -4 -14c-151 -151 -236 -360 -236 -430c0 -21 7 -19 7 -26c0 -6 -9 -13 -21 -13c-17 0 -69 50 -87 128c-60 -43 -119 -72 -168 -72c-73 0 -258 98 -258 274c0 136 227 521 411 521
c86 0 151 -12 198 -31c17 41 40 76 60 76z" />
    <glyph glyph-name="G.001" horiz-adv-x="783" 
d="M807 824c90 0 143 -53 143 -79c0 -20 -147 -125 -147 -183c0 -2 -3 -5 -7 -5c-51 0 -89 47 -89 85c0 12 3 27 9 44c-5 1 -11 2 -15 2c-158 0 -491 -393 -491 -576c0 -18 7 -26 20 -26c70 0 307 245 389 351c15 25 26 40 34 40c37 0 120 -86 120 -136
c0 -27 -318 -719 -530 -719c-122 0 -243 97 -243 156c0 12 9 21 16 21c4 0 8 -4 8 -12s12 -53 46 -53c42 0 134 40 180 86c104 104 198 281 271 425c-100 -106 -225 -217 -289 -217c-63 0 -170 79 -170 228c0 137 222 534 406 534c108 0 205 -19 272 -47c22 43 50 81 67 81z
" />
    <glyph glyph-name="G.002" horiz-adv-x="783" 
d="M468 793c95 0 191 -16 261 -41c67 -24 110 -60 110 -85c0 -21 -30 -38 -40 -38c-2 0 -3 0 -3 2c0 28 -55 60 -94 60c-159 0 -492 -393 -492 -575c0 -19 7 -27 20 -27c70 0 308 245 390 351c15 25 26 40 34 40c37 0 119 -85 119 -136c0 -18 -139 -328 -295 -534
c290 -29 594 -73 805 -73c166 0 275 27 275 110c0 9 4 13 9 13c8 0 17 -9 17 -18c0 -41 -127 -336 -307 -336c-272 0 -524 163 -844 248c-65 -76 -132 -129 -190 -129c-121 0 -243 102 -243 161c0 23 36 48 74 48c57 0 118 -2 181 -6c103 106 197 281 269 424
c-101 -107 -227 -220 -291 -220s-170 78 -170 228c0 136 222 533 405 533zM67 -196c-21 0 -31 -10 -31 -21c0 -15 17 -32 49 -32s87 16 131 45c-48 5 -98 8 -149 8z" />
    <glyph glyph-name="Gbreve" unicode="&#x11e;" horiz-adv-x="740" 
d="M560 738c-54 0 -87 44 -87 87c0 20 6 37 21 54c4 5 12 9 19 9c23 0 54 -25 54 -37c0 -2 -1 -3 -2 -4c-12 -12 -18 -23 -18 -32c0 -17 18 -29 38 -29c22 0 46 14 46 49c0 4 -1 7 -3 9c-1 1 -1 2 -1 3c0 4 4 8 9 8c4 0 7 -3 7 -12c0 -53 -40 -105 -83 -105zM669 762
c76 0 140 -59 140 -80c0 -19 -119 -133 -119 -175c0 -2 -2 -4 -7 -4c-36 0 -102 33 -102 70c0 11 2 25 5 41c-4 0 -9 1 -13 1c-158 0 -427 -361 -427 -544c0 -54 18 -76 48 -76c69 0 198 119 291 230c13 29 27 57 42 83c-154 4 -180 61 -180 84c0 4 3 6 6 6c2 0 4 -1 5 -2
c10 -10 27 -14 48 -14c84 0 233 61 253 61c37 0 108 -43 108 -94c0 -7 -1 -11 -4 -14c-151 -151 -236 -360 -236 -430c0 -21 7 -19 7 -26c0 -6 -9 -13 -21 -13c-17 0 -69 50 -87 128c-60 -43 -119 -72 -168 -72c-73 0 -258 98 -258 274c0 136 227 521 411 521
c86 0 151 -12 198 -31c17 41 40 76 60 76z" />
    <glyph glyph-name="Gbreve.001" horiz-adv-x="783" 
d="M694 795c-54 0 -87 44 -87 87c0 20 6 37 21 54c4 5 12 9 19 9c23 0 54 -25 54 -37c0 -2 -1 -3 -2 -4c-12 -12 -18 -23 -18 -32c0 -17 18 -29 38 -29c22 0 46 14 46 49c0 4 -1 7 -3 9c-1 1 -1 2 -1 3c0 4 4 8 9 8c4 0 7 -3 7 -12c0 -53 -40 -105 -83 -105zM807 824
c90 0 143 -53 143 -79c0 -20 -147 -125 -147 -183c0 -2 -3 -5 -7 -5c-51 0 -89 47 -89 85c0 12 3 27 9 44c-5 1 -11 2 -15 2c-158 0 -491 -393 -491 -576c0 -18 7 -26 20 -26c70 0 307 245 389 351c15 25 26 40 34 40c37 0 120 -86 120 -136c0 -27 -318 -719 -530 -719
c-122 0 -243 97 -243 156c0 12 9 21 16 21c4 0 8 -4 8 -12s12 -53 46 -53c42 0 134 40 180 86c104 104 198 281 271 425c-100 -106 -225 -217 -289 -217c-63 0 -170 79 -170 228c0 137 222 534 406 534c108 0 205 -19 272 -47c22 43 50 81 67 81z" />
    <glyph glyph-name="Gcircumflex" unicode="&#x11c;" horiz-adv-x="740" 
d="M780 906c-13 -1 -18 -26 -18 -56c0 -37 8 -80 16 -87c2 -2 2 -4 2 -5c0 -4 -5 -6 -11 -6c-20 0 -58 49 -73 99c-15 -9 -38 -12 -61 -12c-39 0 -78 10 -78 27c0 4 1 7 4 7c1 0 2 0 3 -1c3 -3 8 -4 14 -4c28 0 83 32 108 58c1 17 8 42 27 42c25 0 74 -31 74 -49
c0 -5 -4 -13 -7 -13zM669 762c76 0 140 -59 140 -80c0 -19 -119 -133 -119 -175c0 -2 -2 -4 -7 -4c-36 0 -102 33 -102 70c0 11 2 25 5 41c-4 0 -9 1 -13 1c-158 0 -427 -361 -427 -544c0 -54 18 -76 48 -76c69 0 198 119 291 230c13 29 27 57 42 83c-154 4 -180 61 -180 84
c0 4 3 6 6 6c2 0 4 -1 5 -2c10 -10 27 -14 48 -14c84 0 233 61 253 61c37 0 108 -43 108 -94c0 -7 -1 -11 -4 -14c-151 -151 -236 -360 -236 -430c0 -21 7 -19 7 -26c0 -6 -9 -13 -21 -13c-17 0 -69 50 -87 128c-60 -43 -119 -72 -168 -72c-73 0 -258 98 -258 274
c0 136 227 521 411 521c86 0 151 -12 198 -31c17 41 40 76 60 76z" />
    <glyph glyph-name="Gcircumflex.001" horiz-adv-x="783" 
d="M754 905c-14 -1 -19 -38 -19 -71c0 -25 3 -47 7 -50c2 -2 2 -4 2 -5c0 -4 -5 -6 -11 -6c-20 0 -48 27 -63 77c-15 -9 -38 -12 -61 -12c-39 0 -78 10 -78 27c0 4 1 7 4 7c1 0 2 0 3 -1c3 -3 8 -4 14 -4c28 0 83 32 108 58c1 17 8 42 27 42c25 0 74 -31 74 -49
c0 -5 -4 -13 -7 -13zM807 824c90 0 143 -53 143 -79c0 -20 -147 -125 -147 -183c0 -2 -3 -5 -7 -5c-51 0 -89 47 -89 85c0 12 3 27 9 44c-5 1 -11 2 -15 2c-158 0 -491 -393 -491 -576c0 -18 7 -26 20 -26c70 0 307 245 389 351c15 25 26 40 34 40c37 0 120 -86 120 -136
c0 -27 -318 -719 -530 -719c-122 0 -243 97 -243 156c0 12 9 21 16 21c4 0 8 -4 8 -12s12 -53 46 -53c42 0 134 40 180 86c104 104 198 281 271 425c-100 -106 -225 -217 -289 -217c-63 0 -170 79 -170 228c0 137 222 534 406 534c108 0 205 -19 272 -47c22 43 50 81 67 81z
" />
    <glyph glyph-name="Gcommaaccent" unicode="&#x122;" horiz-adv-x="740" 
d="M156 -93c42 0 88 -60 88 -95c0 -66 -141 -191 -188 -191c-9 0 -15 6 -15 10c0 2 2 3 4 3c24 0 94 149 94 224c0 7 -1 23 -7 29c-1 1 -1 3 -1 4c0 6 9 16 25 16zM669 762c76 0 140 -59 140 -80c0 -19 -119 -133 -119 -175c0 -2 -2 -4 -7 -4c-36 0 -102 33 -102 70
c0 11 2 25 5 41c-4 0 -9 1 -13 1c-158 0 -427 -361 -427 -544c0 -54 18 -76 48 -76c69 0 198 119 291 230c13 29 27 57 42 83c-154 4 -180 61 -180 84c0 4 3 6 6 6c2 0 4 -1 5 -2c10 -10 27 -14 48 -14c84 0 233 61 253 61c37 0 108 -43 108 -94c0 -7 -1 -11 -4 -14
c-151 -151 -236 -360 -236 -430c0 -21 7 -19 7 -26c0 -6 -9 -13 -21 -13c-17 0 -69 50 -87 128c-60 -43 -119 -72 -168 -72c-73 0 -258 98 -258 274c0 136 227 521 411 521c86 0 151 -12 198 -31c17 41 40 76 60 76z" />
    <glyph glyph-name="Gcommaaccent.001" horiz-adv-x="783" 
d="M45 -357c42 0 88 -60 88 -95c0 -66 -141 -191 -188 -191c-9 0 -15 6 -15 10c0 2 2 3 4 3c24 0 94 149 94 224c0 7 -1 23 -7 29c-1 1 -1 3 -1 4c0 6 9 16 25 16zM807 824c90 0 143 -53 143 -79c0 -20 -147 -125 -147 -183c0 -2 -3 -5 -7 -5c-51 0 -89 47 -89 85
c0 12 3 27 9 44c-5 1 -11 2 -15 2c-158 0 -491 -393 -491 -576c0 -18 7 -26 20 -26c70 0 307 245 389 351c15 25 26 40 34 40c37 0 120 -86 120 -136c0 -27 -318 -719 -530 -719c-122 0 -243 97 -243 156c0 12 9 21 16 21c4 0 8 -4 8 -12s12 -53 46 -53c42 0 134 40 180 86
c104 104 198 281 271 425c-100 -106 -225 -217 -289 -217c-63 0 -170 79 -170 228c0 137 222 534 406 534c108 0 205 -19 272 -47c22 43 50 81 67 81z" />
    <glyph glyph-name="Gdotaccent" unicode="&#x120;" horiz-adv-x="740" 
d="M690 947c78 0 123 -76 123 -92s-11 -25 -18 -31c-4 -4 -5 -8 -5 -13c0 -6 2 -12 2 -15c0 -9 -5 -18 -28 -18c-62 0 -115 58 -115 95c0 27 15 74 41 74zM669 762c76 0 140 -59 140 -80c0 -19 -119 -133 -119 -175c0 -2 -2 -4 -7 -4c-36 0 -102 33 -102 70c0 11 2 25 5 41
c-4 0 -9 1 -13 1c-158 0 -427 -361 -427 -544c0 -54 18 -76 48 -76c69 0 198 119 291 230c13 29 27 57 42 83c-154 4 -180 61 -180 84c0 4 3 6 6 6c2 0 4 -1 5 -2c10 -10 27 -14 48 -14c84 0 233 61 253 61c37 0 108 -43 108 -94c0 -7 -1 -11 -4 -14
c-151 -151 -236 -360 -236 -430c0 -21 7 -19 7 -26c0 -6 -9 -13 -21 -13c-17 0 -69 50 -87 128c-60 -43 -119 -72 -168 -72c-73 0 -258 98 -258 274c0 136 227 521 411 521c86 0 151 -12 198 -31c17 41 40 76 60 76z" />
    <glyph glyph-name="Gdotaccent.001" horiz-adv-x="783" 
d="M640 970c78 0 123 -76 123 -92s-11 -25 -18 -31c-4 -4 -5 -8 -5 -13c0 -6 2 -12 2 -15c0 -9 -5 -18 -28 -18c-62 0 -115 58 -115 95c0 27 15 74 41 74zM807 824c90 0 143 -53 143 -79c0 -20 -147 -125 -147 -183c0 -2 -3 -5 -7 -5c-51 0 -89 47 -89 85c0 12 3 27 9 44
c-5 1 -11 2 -15 2c-158 0 -491 -393 -491 -576c0 -18 7 -26 20 -26c70 0 307 245 389 351c15 25 26 40 34 40c37 0 120 -86 120 -136c0 -27 -318 -719 -530 -719c-122 0 -243 97 -243 156c0 12 9 21 16 21c4 0 8 -4 8 -12s12 -53 46 -53c42 0 134 40 180 86
c104 104 198 281 271 425c-100 -106 -225 -217 -289 -217c-63 0 -170 79 -170 228c0 137 222 534 406 534c108 0 205 -19 272 -47c22 43 50 81 67 81z" />
    <glyph glyph-name="H" unicode="H" horiz-adv-x="760" 
d="M1 388c0 20 9 24 17 24c6 0 10 -2 10 -5s-5 -5 -5 -9c0 -15 62 -23 148 -26c72 141 142 282 142 313c0 15 -9 21 -9 29c0 3 2 7 7 12c2 2 5 2 10 2c36 0 149 -45 149 -116c0 -33 -47 -132 -102 -242c0 0 140 3 146 3c76 161 172 332 204 364c12 12 31 17 52 17
c63 0 147 -44 147 -73c0 -41 -70 -170 -126 -170c-25 -39 -54 -93 -82 -153c18 -16 26 -41 26 -60s-7 -34 -19 -34c-7 0 -7 3 -7 8c0 4 0 10 -5 15c-5 4 -13 7 -24 9c-52 -119 -95 -241 -95 -289c0 -13 3 -21 11 -21c3 0 5 2 7 2s3 -1 3 -8c0 -29 -30 -37 -52 -37
c-31 0 -138 95 -138 154c0 36 25 108 60 191c-50 -5 -105 -10 -158 -14c-70 -138 -138 -267 -138 -293c0 -24 -22 -45 -76 -45c-23 0 -97 54 -97 112c0 10 51 106 112 224c-117 16 -118 77 -118 116z" />
    <glyph glyph-name="H.001" horiz-adv-x="1278" 
d="M1408 685c0 -40 -69 -169 -126 -169c-29 -45 -62 -109 -93 -177c27 -2 53 -3 80 -3c29 0 26 25 35 25c4 0 5 -5 5 -13c0 -29 -34 -124 -95 -124c-9 0 -34 6 -68 16c-40 -98 -69 -189 -69 -229c0 -14 3 -21 11 -21c3 0 5 3 7 3c1 0 2 -2 2 -9c0 -28 -30 -37 -52 -37
c-31 0 -138 95 -138 154c0 36 24 108 60 190l-132 35c-79 -153 -164 -311 -164 -341c0 -24 -21 -45 -75 -45c-24 0 -97 55 -97 112c0 12 80 162 158 314c-171 34 -365 62 -556 62c-47 0 -67 -9 -67 -21c0 -34 160 -99 349 -99c25 0 41 6 41 16c0 4 1 6 3 6c3 0 5 -5 5 -15
c-2 -13 -74 -109 -197 -109c-95 0 -235 123 -235 231c0 33 78 103 129 103c174 0 366 -55 563 -104c61 119 112 227 112 254c0 15 -8 20 -8 27c0 3 2 8 7 13c2 2 5 2 10 2c36 0 149 -45 149 -116c0 -31 -42 -122 -94 -225c44 -10 87 -19 131 -27c77 165 178 345 211 378
c12 12 30 17 51 17c62 0 147 -44 147 -74z" />
    <glyph glyph-name="H.002" horiz-adv-x="1010" 
d="M630 65c0 47 39 153 98 276c-49 -3 -102 -6 -154 -10c-72 -140 -144 -275 -144 -303c0 -23 -21 -44 -75 -44c-24 0 -98 54 -98 112c0 9 51 106 112 222c-37 -1 -70 -2 -96 -2c-193 0 -272 125 -272 168c0 13 8 17 15 17c6 0 11 -3 11 -6c0 -54 187 -73 393 -78
c73 142 143 284 143 316c0 15 -9 21 -9 29c0 10 10 14 17 14c37 0 150 -45 150 -116c0 -33 -47 -133 -104 -244c54 0 105 2 150 3c85 164 196 339 292 435c23 23 49 32 76 32c60 0 121 -45 145 -69c4 -3 5 -9 5 -15c0 -11 -5 -23 -13 -23c-16 0 -41 -6 -70 -35
c-99 -99 -178 -212 -237 -321c41 -10 58 -48 58 -77c0 -19 -7 -34 -19 -34c-7 0 -7 3 -7 8c0 4 0 9 -5 15c-7 7 -31 10 -67 11c-66 -140 -99 -267 -99 -341c0 -42 11 -67 32 -67c3 0 6 3 8 3s3 -2 3 -10c0 -36 -37 -46 -64 -46c-38 0 -175 108 -175 180z" />
    <glyph glyph-name="Hbar" unicode="&#x126;" horiz-adv-x="760" 
d="M1 388c0 20 9 24 17 24c6 0 10 -2 10 -5s-5 -5 -5 -9c0 -15 62 -23 148 -26l40 80h-31c-11 0 -19 1 -23 4c-9 6 -20 31 -20 46c0 6 2 11 7 11c1 0 2 0 3 -1c6 -4 16 -6 30 -6h61c43 87 75 158 75 179c0 15 -9 21 -9 29c0 3 2 7 7 12c2 2 5 2 10 2c36 0 149 -45 149 -116
c0 -19 -15 -58 -37 -110h145c59 114 116 211 140 235c12 12 31 17 52 17c63 0 147 -44 147 -73c0 -41 -59 -139 -115 -139c-7 -12 -16 -25 -24 -42h55c17 0 25 -32 27 -48v-4c0 -4 -1 -5 -3 -5c-3 0 -8 2 -14 2c-3 0 -39 0 -93 1l-41 -88c18 -16 26 -41 26 -60
s-7 -34 -19 -34c-7 0 -7 3 -7 8c0 4 0 10 -5 15c-5 4 -13 7 -24 9c-52 -119 -95 -241 -95 -289c0 -13 3 -21 11 -21c3 0 5 2 7 2s3 -1 3 -8c0 -29 -30 -37 -52 -37c-31 0 -138 95 -138 154c0 36 25 108 60 191c-50 -5 -105 -10 -158 -14c-70 -138 -138 -267 -138 -293
c0 -24 -22 -45 -76 -45c-23 0 -97 54 -97 112c0 10 51 106 112 224c-117 16 -118 77 -118 116zM551 448l-144 2c-12 -26 -25 -53 -39 -80c0 0 140 3 146 3c12 25 24 50 37 75z" />
    <glyph glyph-name="Hbar.001" horiz-adv-x="1278" 
d="M1408 685c0 -40 -47 -117 -104 -117c-5 -7 -10 -16 -16 -26h59c17 0 25 -32 27 -48v-4c0 -4 -1 -5 -3 -5c-3 0 -8 2 -14 2c-3 0 -39 0 -93 1h-4c-25 -50 -53 -108 -71 -149c27 -2 53 -3 80 -3c29 0 26 25 35 25c4 0 5 -5 5 -13c0 -29 -34 -124 -95 -124
c-9 0 -34 6 -68 16c-40 -98 -69 -189 -69 -229c0 -14 3 -21 11 -21c3 0 5 3 7 3c1 0 2 -2 2 -9c0 -28 -30 -37 -52 -37c-31 0 -138 95 -138 154c0 36 24 108 60 190l-132 35c-79 -153 -164 -311 -164 -341c0 -24 -21 -45 -75 -45c-24 0 -97 55 -97 112c0 12 80 162 158 314
c-171 34 -365 62 -556 62c-47 0 -67 -9 -67 -21c0 -34 160 -99 349 -99c25 0 41 6 41 16c0 4 1 6 3 6c3 0 5 -5 5 -15c-2 -13 -74 -109 -197 -109c-95 0 -235 123 -235 231c0 33 78 103 129 103c174 0 366 -55 563 -104l29 58h-27c-11 0 -19 1 -23 4c-9 6 -20 31 -20 46
c0 6 2 11 7 11c1 0 2 0 3 -1c6 -4 16 -6 30 -6h57c33 69 56 124 56 142c0 15 -8 20 -8 27c0 3 2 8 7 13c2 2 5 2 10 2c36 0 149 -45 149 -116c0 -14 -8 -38 -21 -70h148c52 96 100 175 121 196c12 12 30 17 51 17c62 0 147 -44 147 -74zM917 490l-49 -99
c44 -10 87 -19 131 -27c19 42 41 85 62 126h-144z" />
    <glyph glyph-name="Hcircumflex" unicode="&#x124;" horiz-adv-x="760" 
d="M619 823c-13 -1 -18 -26 -18 -56c0 -37 8 -80 16 -87c2 -2 2 -4 2 -5c0 -4 -5 -6 -11 -6c-20 0 -58 49 -73 99c-15 -9 -38 -12 -61 -12c-39 0 -78 10 -78 27c0 4 1 7 4 7c1 0 2 0 3 -1c3 -3 8 -4 14 -4c28 0 83 32 108 58c1 17 8 42 27 42c25 0 74 -31 74 -49
c0 -5 -4 -13 -7 -13zM1 388c0 20 9 24 17 24c6 0 10 -2 10 -5s-5 -5 -5 -9c0 -15 62 -23 148 -26c72 141 142 282 142 313c0 15 -9 21 -9 29c0 3 2 7 7 12c2 2 5 2 10 2c36 0 149 -45 149 -116c0 -33 -47 -132 -102 -242c0 0 140 3 146 3c76 161 172 332 204 364
c12 12 31 17 52 17c63 0 147 -44 147 -73c0 -41 -70 -170 -126 -170c-25 -39 -54 -93 -82 -153c18 -16 26 -41 26 -60s-7 -34 -19 -34c-7 0 -7 3 -7 8c0 4 0 10 -5 15c-5 4 -13 7 -24 9c-52 -119 -95 -241 -95 -289c0 -13 3 -21 11 -21c3 0 5 2 7 2s3 -1 3 -8
c0 -29 -30 -37 -52 -37c-31 0 -138 95 -138 154c0 36 25 108 60 191c-50 -5 -105 -10 -158 -14c-70 -138 -138 -267 -138 -293c0 -24 -22 -45 -76 -45c-23 0 -97 54 -97 112c0 10 51 106 112 224c-117 16 -118 77 -118 116z" />
    <glyph glyph-name="Hcircumflex.001" horiz-adv-x="1278" 
d="M1105 823c-13 -1 -18 -26 -18 -56c0 -37 8 -80 16 -87c2 -2 2 -4 2 -5c0 -4 -5 -6 -11 -6c-20 0 -58 49 -73 99c-15 -9 -38 -12 -61 -12c-39 0 -78 10 -78 27c0 4 1 7 4 7c1 0 2 0 3 -1c3 -3 8 -4 14 -4c28 0 83 32 108 58c1 17 8 42 27 42c25 0 74 -31 74 -49
c0 -5 -4 -13 -7 -13zM1408 685c0 -40 -69 -169 -126 -169c-29 -45 -62 -109 -93 -177c27 -2 53 -3 80 -3c29 0 26 25 35 25c4 0 5 -5 5 -13c0 -29 -34 -124 -95 -124c-9 0 -34 6 -68 16c-40 -98 -69 -189 -69 -229c0 -14 3 -21 11 -21c3 0 5 3 7 3c1 0 2 -2 2 -9
c0 -28 -30 -37 -52 -37c-31 0 -138 95 -138 154c0 36 24 108 60 190l-132 35c-79 -153 -164 -311 -164 -341c0 -24 -21 -45 -75 -45c-24 0 -97 55 -97 112c0 12 80 162 158 314c-171 34 -365 62 -556 62c-47 0 -67 -9 -67 -21c0 -34 160 -99 349 -99c25 0 41 6 41 16
c0 4 1 6 3 6c3 0 5 -5 5 -15c-2 -13 -74 -109 -197 -109c-95 0 -235 123 -235 231c0 33 78 103 129 103c174 0 366 -55 563 -104c61 119 112 227 112 254c0 15 -8 20 -8 27c0 3 2 8 7 13c2 2 5 2 10 2c36 0 149 -45 149 -116c0 -31 -42 -122 -94 -225c44 -10 87 -19 131 -27
c77 165 178 345 211 378c12 12 30 17 51 17c62 0 147 -44 147 -74z" />
    <glyph glyph-name="I" unicode="I" horiz-adv-x="650" 
d="M0 108c0 11 7 27 21 27s32 -18 79 -18c13 0 64 2 136 5c-1 6 -1 12 -1 18c0 66 101 308 167 437c-56 -4 -100 -6 -106 -6c-57 0 -102 65 -102 111c0 11 4 36 21 36c14 0 35 -14 70 -14c21 0 387 5 440 5c52 0 73 -64 73 -76s-28 -79 -44 -79s4 43 -38 43
c-13 0 -55 -2 -107 -6c-107 -112 -181 -316 -215 -465c45 1 93 2 140 2c23 0 83 -74 83 -96c0 -16 -4 -34 -15 -34c-5 0 -11 3 -19 11c-7 7 -38 10 -81 10c-37 0 -82 -2 -128 -5c-1 -11 -1 -22 -1 -31c0 -18 -17 -37 -38 -37c-11 0 -35 26 -57 62c-76 -5 -142 -11 -159 -11
c-73 0 -119 72 -119 111z" />
    <glyph glyph-name="I.001" horiz-adv-x="694" 
d="M21 -178c6 -7 17 -13 41 -13c147 0 591 755 591 862c0 8 -2 13 -8 13c-46 0 -378 -242 -378 -449c0 -56 20 -80 42 -80c5 0 7 -2 7 -5c0 -10 -23 -30 -51 -30c-29 0 -170 104 -170 163c0 182 314 480 524 480c29 0 125 -40 125 -110c0 -203 -202 -664 -430 -892
c-23 -23 -55 -32 -89 -32c-97 0 -215 69 -220 74c-3 3 -4 6 -4 9c0 7 7 13 13 13c2 0 5 -1 7 -3z" />
    <glyph glyph-name="I.002" horiz-adv-x="256" 
d="M213 681c24 23 68 39 147 39c41 0 56 -10 56 -25c0 -16 -8 -30 -23 -45c-154 -154 -270 -534 -270 -676c0 -18 -18 -37 -39 -37s-100 109 -100 194c0 86 187 508 229 550z" />
    <glyph glyph-name="IJ" unicode="&#x132;" horiz-adv-x="1257" 
d="M873 670c0 14 2 36 22 36c3 0 6 -1 6 -3c0 -16 28 -21 82 -21c85 0 234 12 439 12c175 0 175 -80 175 -101c0 -12 -13 -36 -25 -36c-1 0 -2 1 -2 2c0 3 2 8 2 14c0 16 -15 37 -123 37c-39 0 -74 -1 -107 -3c-17 -66 -271 -708 -456 -708c-138 0 -272 189 -272 226
s28 72 35 72s21 -6 21 -13c0 -4 -12 -14 -12 -31c0 -41 49 -97 93 -97c167 0 324 358 401 528c-96 -18 -154 -38 -194 -38c-62 0 -85 79 -85 124zM0 108c0 11 7 27 21 27s32 -18 79 -18c13 0 64 2 136 5c-1 6 -1 12 -1 18c0 66 101 308 167 437c-56 -4 -100 -6 -106 -6
c-57 0 -102 65 -102 111c0 11 4 36 21 36c14 0 35 -14 70 -14c21 0 387 5 440 5c52 0 73 -64 73 -76s-28 -79 -44 -79s4 43 -38 43c-13 0 -55 -2 -107 -6c-107 -112 -181 -316 -215 -465c45 1 93 2 140 2c23 0 83 -74 83 -96c0 -16 -4 -34 -15 -34c-5 0 -11 3 -19 11
c-7 7 -38 10 -81 10c-37 0 -82 -2 -128 -5c-1 -11 -1 -22 -1 -31c0 -18 -17 -37 -38 -37c-11 0 -35 26 -57 62c-76 -5 -142 -11 -159 -11c-73 0 -119 72 -119 111z" />
    <glyph glyph-name="Iacute" unicode="&#xcd;" horiz-adv-x="650" 
d="M618 887c26 0 55 -51 55 -66c0 -52 -119 -84 -157 -84c-9 0 -15 7 -15 12c0 3 2 5 5 5c18 0 96 78 96 108c0 4 -4 7 -4 11c0 5 7 14 20 14zM0 108c0 11 7 27 21 27s32 -18 79 -18c13 0 64 2 136 5c-1 6 -1 12 -1 18c0 66 101 308 167 437c-56 -4 -100 -6 -106 -6
c-57 0 -102 65 -102 111c0 11 4 36 21 36c14 0 35 -14 70 -14c21 0 387 5 440 5c52 0 73 -64 73 -76s-28 -79 -44 -79s4 43 -38 43c-13 0 -55 -2 -107 -6c-107 -112 -181 -316 -215 -465c45 1 93 2 140 2c23 0 83 -74 83 -96c0 -16 -4 -34 -15 -34c-5 0 -11 3 -19 11
c-7 7 -38 10 -81 10c-37 0 -82 -2 -128 -5c-1 -11 -1 -22 -1 -31c0 -18 -17 -37 -38 -37c-11 0 -35 26 -57 62c-76 -5 -142 -11 -159 -11c-73 0 -119 72 -119 111z" />
    <glyph glyph-name="Iacute.001" horiz-adv-x="694" 
d="M715 936c26 0 55 -51 55 -66c0 -52 -119 -84 -157 -84c-9 0 -15 7 -15 12c0 3 2 5 5 5c18 0 96 78 96 108c0 4 -4 7 -4 11c0 5 7 14 20 14zM21 -178c6 -7 17 -13 41 -13c147 0 591 755 591 862c0 8 -2 13 -8 13c-46 0 -378 -242 -378 -449c0 -56 20 -80 42 -80
c5 0 7 -2 7 -5c0 -10 -23 -30 -51 -30c-29 0 -170 104 -170 163c0 182 314 480 524 480c29 0 125 -40 125 -110c0 -203 -202 -664 -430 -892c-23 -23 -55 -32 -89 -32c-97 0 -215 69 -220 74c-3 3 -4 6 -4 9c0 7 7 13 13 13c2 0 5 -1 7 -3z" />
    <glyph glyph-name="Iacute.002" horiz-adv-x="256" 
d="M397 898c26 0 55 -51 55 -66c0 -52 -119 -84 -157 -84c-9 0 -15 7 -15 12c0 3 2 5 5 5c18 0 96 78 96 108c0 4 -4 7 -4 11c0 5 7 14 20 14zM213 681c24 23 68 39 147 39c41 0 56 -10 56 -25c0 -16 -8 -30 -23 -45c-154 -154 -270 -534 -270 -676c0 -18 -18 -37 -39 -37
s-100 109 -100 194c0 86 187 508 229 550z" />
    <glyph glyph-name="Ibreve" unicode="&#x12c;" horiz-adv-x="650" 
d="M567 733c-54 0 -87 44 -87 87c0 20 6 37 21 54c4 5 12 9 19 9c23 0 54 -25 54 -37c0 -2 -1 -3 -2 -4c-12 -12 -18 -23 -18 -32c0 -17 18 -29 38 -29c22 0 46 14 46 49c0 4 -1 7 -3 9c-1 1 -1 2 -1 3c0 4 4 8 9 8c4 0 7 -3 7 -12c0 -53 -40 -105 -83 -105zM0 108
c0 11 7 27 21 27s32 -18 79 -18c13 0 64 2 136 5c-1 6 -1 12 -1 18c0 66 101 308 167 437c-56 -4 -100 -6 -106 -6c-57 0 -102 65 -102 111c0 11 4 36 21 36c14 0 35 -14 70 -14c21 0 387 5 440 5c52 0 73 -64 73 -76s-28 -79 -44 -79s4 43 -38 43c-13 0 -55 -2 -107 -6
c-107 -112 -181 -316 -215 -465c45 1 93 2 140 2c23 0 83 -74 83 -96c0 -16 -4 -34 -15 -34c-5 0 -11 3 -19 11c-7 7 -38 10 -81 10c-37 0 -82 -2 -128 -5c-1 -11 -1 -22 -1 -31c0 -18 -17 -37 -38 -37c-11 0 -35 26 -57 62c-76 -5 -142 -11 -159 -11
c-73 0 -119 72 -119 111z" />
    <glyph glyph-name="Ibreve.001" horiz-adv-x="694" 
d="M716 775c-54 0 -87 44 -87 87c0 20 6 37 21 54c4 5 12 9 19 9c23 0 54 -25 54 -37c0 -2 -1 -3 -2 -4c-12 -12 -18 -23 -18 -32c0 -17 18 -29 38 -29c22 0 46 14 46 49c0 4 -1 7 -3 9c-1 1 -1 2 -1 3c0 4 4 8 9 8c4 0 7 -3 7 -12c0 -53 -40 -105 -83 -105zM21 -178
c6 -7 17 -13 41 -13c147 0 591 755 591 862c0 8 -2 13 -8 13c-46 0 -378 -242 -378 -449c0 -56 20 -80 42 -80c5 0 7 -2 7 -5c0 -10 -23 -30 -51 -30c-29 0 -170 104 -170 163c0 182 314 480 524 480c29 0 125 -40 125 -110c0 -203 -202 -664 -430 -892
c-23 -23 -55 -32 -89 -32c-97 0 -215 69 -220 74c-3 3 -4 6 -4 9c0 7 7 13 13 13c2 0 5 -1 7 -3z" />
    <glyph glyph-name="Ibreve.002" horiz-adv-x="256" 
d="M389 741c-54 0 -87 44 -87 87c0 20 6 37 21 54c4 5 12 9 19 9c23 0 54 -25 54 -37c0 -2 -1 -3 -2 -4c-12 -12 -18 -23 -18 -32c0 -17 18 -29 38 -29c22 0 46 14 46 49c0 4 -1 7 -3 9c-1 1 -1 2 -1 3c0 4 4 8 9 8c4 0 7 -3 7 -12c0 -53 -40 -105 -83 -105zM213 681
c24 23 68 39 147 39c41 0 56 -10 56 -25c0 -16 -8 -30 -23 -45c-154 -154 -270 -534 -270 -676c0 -18 -18 -37 -39 -37s-100 109 -100 194c0 86 187 508 229 550z" />
    <glyph glyph-name="Icircumflex" unicode="&#xce;" horiz-adv-x="650" 
d="M682 886c-13 -1 -18 -26 -18 -56c0 -37 8 -80 16 -87c2 -2 2 -4 2 -5c0 -4 -5 -6 -11 -6c-20 0 -58 49 -73 99c-15 -9 -38 -12 -61 -12c-39 0 -78 10 -78 27c0 4 1 7 4 7c1 0 2 0 3 -1c3 -3 8 -4 14 -4c28 0 83 32 108 58c1 17 8 42 27 42c25 0 74 -31 74 -49
c0 -5 -4 -13 -7 -13zM0 108c0 11 7 27 21 27s32 -18 79 -18c13 0 64 2 136 5c-1 6 -1 12 -1 18c0 66 101 308 167 437c-56 -4 -100 -6 -106 -6c-57 0 -102 65 -102 111c0 11 4 36 21 36c14 0 35 -14 70 -14c21 0 387 5 440 5c52 0 73 -64 73 -76s-28 -79 -44 -79
s4 43 -38 43c-13 0 -55 -2 -107 -6c-107 -112 -181 -316 -215 -465c45 1 93 2 140 2c23 0 83 -74 83 -96c0 -16 -4 -34 -15 -34c-5 0 -11 3 -19 11c-7 7 -38 10 -81 10c-37 0 -82 -2 -128 -5c-1 -11 -1 -22 -1 -31c0 -18 -17 -37 -38 -37c-11 0 -35 26 -57 62
c-76 -5 -142 -11 -159 -11c-73 0 -119 72 -119 111z" />
    <glyph glyph-name="Icircumflex.001" horiz-adv-x="694" 
d="M21 -178c6 -7 17 -13 41 -13c147 0 591 755 591 862c0 8 -2 13 -8 13c-46 0 -378 -242 -378 -449c0 -56 20 -80 42 -80c5 0 7 -2 7 -5c0 -10 -23 -30 -51 -30c-29 0 -170 104 -170 163c0 182 314 480 524 480c29 0 125 -40 125 -110c0 -203 -202 -664 -430 -892
c-23 -23 -55 -32 -89 -32c-97 0 -215 69 -220 74c-3 3 -4 6 -4 9c0 7 7 13 13 13c2 0 5 -1 7 -3zM792 883c-13 -1 -18 -26 -18 -56c0 -37 8 -80 16 -87c2 -2 2 -4 2 -5c0 -4 -5 -6 -11 -6c-20 0 -58 49 -73 99c-15 -9 -38 -12 -61 -12c-39 0 -78 10 -78 27c0 4 1 7 4 7
c1 0 2 0 3 -1c3 -3 8 -4 14 -4c28 0 83 32 108 58c1 17 8 42 27 42c25 0 74 -31 74 -49c0 -5 -4 -13 -7 -13z" />
    <glyph glyph-name="Icircumflex.002" horiz-adv-x="256" 
d="M473 869c-13 -1 -18 -26 -18 -56c0 -37 8 -80 16 -87c2 -2 2 -4 2 -5c0 -4 -5 -6 -11 -6c-20 0 -58 49 -73 99c-15 -9 -38 -12 -61 -12c-39 0 -78 10 -78 27c0 4 1 7 4 7c1 0 2 0 3 -1c3 -3 8 -4 14 -4c28 0 83 32 108 58c1 17 8 42 27 42c25 0 74 -31 74 -49
c0 -5 -4 -13 -7 -13zM213 681c24 23 68 39 147 39c41 0 56 -10 56 -25c0 -16 -8 -30 -23 -45c-154 -154 -270 -534 -270 -676c0 -18 -18 -37 -39 -37s-100 109 -100 194c0 86 187 508 229 550z" />
    <glyph glyph-name="Idieresis" unicode="&#xcf;" horiz-adv-x="650" 
d="M469 857c0 42 17 57 37 57c32 0 73 -36 73 -61c0 -17 -16 -13 -16 -44c0 -6 -3 -13 -20 -13c-45 0 -74 35 -74 61zM601 807c0 41 17 55 37 55c32 0 74 -36 74 -62c0 -16 -15 -24 -15 -42c0 -6 -4 -14 -20 -14c-46 0 -76 36 -76 63zM0 108c0 11 7 27 21 27s32 -18 79 -18
c13 0 64 2 136 5c-1 6 -1 12 -1 18c0 66 101 308 167 437c-56 -4 -100 -6 -106 -6c-57 0 -102 65 -102 111c0 11 4 36 21 36c14 0 35 -14 70 -14c21 0 387 5 440 5c52 0 73 -64 73 -76s-28 -79 -44 -79s4 43 -38 43c-13 0 -55 -2 -107 -6c-107 -112 -181 -316 -215 -465
c45 1 93 2 140 2c23 0 83 -74 83 -96c0 -16 -4 -34 -15 -34c-5 0 -11 3 -19 11c-7 7 -38 10 -81 10c-37 0 -82 -2 -128 -5c-1 -11 -1 -22 -1 -31c0 -18 -17 -37 -38 -37c-11 0 -35 26 -57 62c-76 -5 -142 -11 -159 -11c-73 0 -119 72 -119 111z" />
    <glyph glyph-name="Idieresis.001" horiz-adv-x="694" 
d="M21 -178c6 -7 17 -13 41 -13c147 0 591 755 591 862c0 8 -2 13 -8 13c-46 0 -378 -242 -378 -449c0 -56 20 -80 42 -80c5 0 7 -2 7 -5c0 -10 -23 -30 -51 -30c-29 0 -170 104 -170 163c0 182 314 480 524 480c29 0 125 -40 125 -110c0 -203 -202 -664 -430 -892
c-23 -23 -55 -32 -89 -32c-97 0 -215 69 -220 74c-3 3 -4 6 -4 9c0 7 7 13 13 13c2 0 5 -1 7 -3zM569 857c0 42 17 57 37 57c32 0 73 -36 73 -61c0 -17 -16 -13 -16 -44c0 -6 -3 -13 -20 -13c-45 0 -74 35 -74 61zM701 807c0 41 17 55 37 55c32 0 74 -36 74 -62
c0 -16 -15 -24 -15 -42c0 -6 -4 -14 -20 -14c-46 0 -76 36 -76 63z" />
    <glyph glyph-name="Idieresis.002" horiz-adv-x="256" 
d="M263 847c0 42 17 57 37 57c32 0 73 -36 73 -61c0 -17 -16 -13 -16 -44c0 -6 -3 -13 -20 -13c-45 0 -74 35 -74 61zM395 797c0 41 17 55 37 55c32 0 74 -36 74 -62c0 -16 -15 -24 -15 -42c0 -6 -4 -14 -20 -14c-46 0 -76 36 -76 63zM213 681c24 23 68 39 147 39
c41 0 56 -10 56 -25c0 -16 -8 -30 -23 -45c-154 -154 -270 -534 -270 -676c0 -18 -18 -37 -39 -37s-100 109 -100 194c0 86 187 508 229 550z" />
    <glyph glyph-name="Idotaccent" unicode="&#x130;" horiz-adv-x="650" 
d="M532 905c78 0 123 -76 123 -92s-11 -25 -18 -31c-4 -4 -5 -8 -5 -13c0 -6 2 -12 2 -15c0 -9 -5 -18 -28 -18c-62 0 -115 58 -115 95c0 27 15 74 41 74zM0 108c0 11 7 27 21 27s32 -18 79 -18c13 0 64 2 136 5c-1 6 -1 12 -1 18c0 66 101 308 167 437
c-56 -4 -100 -6 -106 -6c-57 0 -102 65 -102 111c0 11 4 36 21 36c14 0 35 -14 70 -14c21 0 387 5 440 5c52 0 73 -64 73 -76s-28 -79 -44 -79s4 43 -38 43c-13 0 -55 -2 -107 -6c-107 -112 -181 -316 -215 -465c45 1 93 2 140 2c23 0 83 -74 83 -96c0 -16 -4 -34 -15 -34
c-5 0 -11 3 -19 11c-7 7 -38 10 -81 10c-37 0 -82 -2 -128 -5c-1 -11 -1 -22 -1 -31c0 -18 -17 -37 -38 -37c-11 0 -35 26 -57 62c-76 -5 -142 -11 -159 -11c-73 0 -119 72 -119 111z" />
    <glyph glyph-name="Idotaccent.001" horiz-adv-x="694" 
d="M674 944c78 0 123 -76 123 -92s-11 -25 -18 -31c-4 -4 -5 -8 -5 -13c0 -6 2 -12 2 -15c0 -9 -5 -18 -28 -18c-62 0 -115 58 -115 95c0 27 15 74 41 74zM21 -178c6 -7 17 -13 41 -13c147 0 591 755 591 862c0 8 -2 13 -8 13c-46 0 -378 -242 -378 -449
c0 -56 20 -80 42 -80c5 0 7 -2 7 -5c0 -10 -23 -30 -51 -30c-29 0 -170 104 -170 163c0 182 314 480 524 480c29 0 125 -40 125 -110c0 -203 -202 -664 -430 -892c-23 -23 -55 -32 -89 -32c-97 0 -215 69 -220 74c-3 3 -4 6 -4 9c0 7 7 13 13 13c2 0 5 -1 7 -3z" />
    <glyph glyph-name="Idotaccent.002" horiz-adv-x="256" 
d="M345 916c78 0 123 -76 123 -92s-11 -25 -18 -31c-4 -4 -5 -8 -5 -13c0 -6 2 -12 2 -15c0 -9 -5 -18 -28 -18c-62 0 -115 58 -115 95c0 27 15 74 41 74zM213 681c24 23 68 39 147 39c41 0 56 -10 56 -25c0 -16 -8 -30 -23 -45c-154 -154 -270 -534 -270 -676
c0 -18 -18 -37 -39 -37s-100 109 -100 194c0 86 187 508 229 550z" />
    <glyph glyph-name="Igrave" unicode="&#xcc;" horiz-adv-x="650" 
d="M539 894c14 0 21 -9 21 -14c0 -4 -4 -7 -4 -11c0 -30 78 -108 96 -108c3 0 5 -1 5 -4c0 -5 -6 -13 -16 -13c-37 0 -157 32 -157 84c0 15 30 66 55 66zM0 108c0 11 7 27 21 27s32 -18 79 -18c13 0 64 2 136 5c-1 6 -1 12 -1 18c0 66 101 308 167 437
c-56 -4 -100 -6 -106 -6c-57 0 -102 65 -102 111c0 11 4 36 21 36c14 0 35 -14 70 -14c21 0 387 5 440 5c52 0 73 -64 73 -76s-28 -79 -44 -79s4 43 -38 43c-13 0 -55 -2 -107 -6c-107 -112 -181 -316 -215 -465c45 1 93 2 140 2c23 0 83 -74 83 -96c0 -16 -4 -34 -15 -34
c-5 0 -11 3 -19 11c-7 7 -38 10 -81 10c-37 0 -82 -2 -128 -5c-1 -11 -1 -22 -1 -31c0 -18 -17 -37 -38 -37c-11 0 -35 26 -57 62c-76 -5 -142 -11 -159 -11c-73 0 -119 72 -119 111z" />
    <glyph glyph-name="Igrave.001" horiz-adv-x="694" 
d="M21 -178c6 -7 17 -13 41 -13c147 0 591 755 591 862c0 8 -2 13 -8 13c-46 0 -378 -242 -378 -449c0 -56 20 -80 42 -80c5 0 7 -2 7 -5c0 -10 -23 -30 -51 -30c-29 0 -170 104 -170 163c0 182 314 480 524 480c29 0 125 -40 125 -110c0 -203 -202 -664 -430 -892
c-23 -23 -55 -32 -89 -32c-97 0 -215 69 -220 74c-3 3 -4 6 -4 9c0 7 7 13 13 13c2 0 5 -1 7 -3zM668 917c14 0 21 -9 21 -14c0 -4 -4 -7 -4 -11c0 -30 78 -108 96 -108c3 0 5 -1 5 -4c0 -5 -6 -13 -16 -13c-37 0 -157 32 -157 84c0 15 30 66 55 66z" />
    <glyph glyph-name="Igrave.002" horiz-adv-x="256" 
d="M338 894c14 0 21 -9 21 -14c0 -4 -4 -7 -4 -11c0 -30 78 -108 96 -108c3 0 5 -1 5 -4c0 -5 -6 -13 -16 -13c-37 0 -157 32 -157 84c0 15 30 66 55 66zM213 681c24 23 68 39 147 39c41 0 56 -10 56 -25c0 -16 -8 -30 -23 -45c-154 -154 -270 -534 -270 -676
c0 -18 -18 -37 -39 -37s-100 109 -100 194c0 86 187 508 229 550z" />
    <glyph glyph-name="Imacron" unicode="&#x12a;" horiz-adv-x="650" 
d="M753 780v-4c-2 -16 -10 -38 -27 -38c-42 0 -206 52 -280 52c-14 0 -24 -2 -30 -6c-1 -1 -2 -1 -3 -1c-4 0 -7 5 -7 11c1 7 4 26 20 36c4 3 12 4 23 4c77 0 276 -51 287 -51c6 0 11 2 14 2c2 0 3 -1 3 -5zM0 108c0 11 7 27 21 27s32 -18 79 -18c13 0 64 2 136 5
c-1 6 -1 12 -1 18c0 66 101 308 167 437c-56 -4 -100 -6 -106 -6c-57 0 -102 65 -102 111c0 11 4 36 21 36c14 0 35 -14 70 -14c21 0 387 5 440 5c52 0 73 -64 73 -76s-28 -79 -44 -79s4 43 -38 43c-13 0 -55 -2 -107 -6c-107 -112 -181 -316 -215 -465c45 1 93 2 140 2
c23 0 83 -74 83 -96c0 -16 -4 -34 -15 -34c-5 0 -11 3 -19 11c-7 7 -38 10 -81 10c-37 0 -82 -2 -128 -5c-1 -11 -1 -22 -1 -31c0 -18 -17 -37 -38 -37c-11 0 -35 26 -57 62c-76 -5 -142 -11 -159 -11c-73 0 -119 72 -119 111z" />
    <glyph glyph-name="Imacron.001" horiz-adv-x="694" 
d="M812 816v-4c-2 -16 -10 -38 -27 -38c-42 0 -206 52 -280 52c-14 0 -24 -2 -30 -6c-1 -1 -2 -1 -3 -1c-4 0 -7 5 -7 11c1 7 4 26 20 36c4 3 12 4 23 4c77 0 276 -51 287 -51c6 0 11 2 14 2c2 0 3 -1 3 -5zM21 -178c6 -7 17 -13 41 -13c147 0 591 755 591 862
c0 8 -2 13 -8 13c-46 0 -378 -242 -378 -449c0 -56 20 -80 42 -80c5 0 7 -2 7 -5c0 -10 -23 -30 -51 -30c-29 0 -170 104 -170 163c0 182 314 480 524 480c29 0 125 -40 125 -110c0 -203 -202 -664 -430 -892c-23 -23 -55 -32 -89 -32c-97 0 -215 69 -220 74c-3 3 -4 6 -4 9
c0 7 7 13 13 13c2 0 5 -1 7 -3z" />
    <glyph glyph-name="Imacron.002" horiz-adv-x="256" 
d="M556 780v-4c-2 -16 -10 -38 -27 -38c-42 0 -206 52 -280 52c-14 0 -24 -2 -30 -6c-1 -1 -2 -1 -3 -1c-4 0 -7 5 -7 11c1 7 4 26 20 36c4 3 12 4 23 4c77 0 276 -51 287 -51c6 0 11 2 14 2c2 0 3 -1 3 -5zM213 681c24 23 68 39 147 39c41 0 56 -10 56 -25
c0 -16 -8 -30 -23 -45c-154 -154 -270 -534 -270 -676c0 -18 -18 -37 -39 -37s-100 109 -100 194c0 86 187 508 229 550z" />
    <glyph glyph-name="Iogonek" unicode="&#x12e;" horiz-adv-x="650" 
d="M483 -50c0 32 14 55 30 69h-11c-37 0 -82 -2 -128 -5c-1 -11 -1 -22 -1 -31c0 -18 -17 -37 -38 -37c-11 0 -35 26 -57 62c-76 -5 -142 -11 -159 -11c-73 0 -119 72 -119 111c0 11 7 27 21 27s32 -18 79 -18c13 0 64 2 136 5c-1 6 -1 12 -1 18c0 66 101 308 167 437
c-56 -4 -100 -6 -106 -6c-57 0 -102 65 -102 111c0 11 4 36 21 36c14 0 35 -14 70 -14c21 0 387 5 440 5c52 0 73 -64 73 -76s-28 -79 -44 -79s4 43 -38 43c-13 0 -55 -2 -107 -6c-107 -112 -181 -316 -215 -465c45 1 93 2 140 2c23 0 83 -74 83 -96c0 -16 -4 -34 -15 -34
c-2 0 -4 1 -7 2c-26 -6 -53 -27 -53 -62c0 -34 15 -56 35 -56c39 0 32 41 34 44c1 1 2 1 3 1c4 0 8 -5 8 -10c0 -3 -8 -45 -46 -45c-48 0 -93 27 -93 78z" />
    <glyph glyph-name="Iogonek.001" horiz-adv-x="694" 
d="M21 -178c6 -7 17 -13 41 -13c147 0 591 755 591 862c0 8 -2 13 -8 13c-46 0 -378 -242 -378 -449c0 -56 20 -80 42 -80c5 0 7 -2 7 -5c0 -10 -23 -30 -51 -30c-29 0 -170 104 -170 163c0 182 314 480 524 480c29 0 125 -40 125 -110c0 -203 -202 -664 -430 -892
c-17 -16 -38 -26 -61 -30v-1c-29 0 -66 -23 -66 -63c0 -34 15 -56 35 -56c39 0 32 41 34 44c1 1 2 1 3 1c4 0 8 -5 8 -10c0 -3 -8 -45 -46 -45c-48 0 -93 27 -93 78c0 27 10 47 22 61c-74 20 -142 59 -145 63c-3 3 -4 6 -4 9c0 7 7 13 13 13c2 0 5 -1 7 -3z" />
    <glyph glyph-name="Iogonek.002" horiz-adv-x="256" 
d="M213 681c24 23 68 39 147 39c41 0 56 -10 56 -25c0 -16 -8 -30 -23 -45c-154 -154 -270 -534 -270 -676c0 -53 -85 -19 -85 -94c0 -34 15 -56 35 -56c39 0 32 41 34 44c1 1 2 1 3 1c4 0 8 -5 8 -10c0 -3 -8 -45 -46 -45c-48 0 -93 27 -93 78c0 55 43 84 61 84h3
c-29 39 -59 102 -59 155c0 86 187 508 229 550z" />
    <glyph glyph-name="Itilde" unicode="&#x128;" horiz-adv-x="650" 
d="M703 760c0 -15 -16 -29 -22 -29c-5 0 -9 2 -9 5c0 1 0 3 2 5c4 4 6 7 6 10c0 15 -58 18 -205 18c-53 0 -61 50 -61 74c0 7 1 13 1 13c2 2 5 4 7 4c3 0 6 -3 6 -11c0 -38 275 -10 275 -89zM0 108c0 11 7 27 21 27s32 -18 79 -18c13 0 64 2 136 5c-1 6 -1 12 -1 18
c0 66 101 308 167 437c-56 -4 -100 -6 -106 -6c-57 0 -102 65 -102 111c0 11 4 36 21 36c14 0 35 -14 70 -14c21 0 387 5 440 5c52 0 73 -64 73 -76s-28 -79 -44 -79s4 43 -38 43c-13 0 -55 -2 -107 -6c-107 -112 -181 -316 -215 -465c45 1 93 2 140 2c23 0 83 -74 83 -96
c0 -16 -4 -34 -15 -34c-5 0 -11 3 -19 11c-7 7 -38 10 -81 10c-37 0 -82 -2 -128 -5c-1 -11 -1 -22 -1 -31c0 -18 -17 -37 -38 -37c-11 0 -35 26 -57 62c-76 -5 -142 -11 -159 -11c-73 0 -119 72 -119 111z" />
    <glyph glyph-name="Itilde.001" horiz-adv-x="256" 
d="M506 760c0 -15 -16 -29 -22 -29c-5 0 -9 2 -9 5c0 1 0 3 2 5c4 4 6 7 6 10c0 15 -58 18 -205 18c-53 0 -61 50 -61 74c0 7 1 13 1 13c2 2 5 4 7 4c3 0 6 -3 6 -11c0 -38 275 -10 275 -89zM213 681c24 23 68 39 147 39c41 0 56 -10 56 -25c0 -16 -8 -30 -23 -45
c-154 -154 -270 -534 -270 -676c0 -18 -18 -37 -39 -37s-100 109 -100 194c0 86 187 508 229 550z" />
    <glyph glyph-name="J" unicode="J" horiz-adv-x="643" 
d="M259 670c0 14 2 36 22 36c3 0 6 -1 6 -3c0 -16 28 -21 82 -21c85 0 234 12 439 12c175 0 175 -80 175 -101c0 -12 -13 -36 -25 -36c-1 0 -2 1 -2 2c0 3 2 8 2 14c0 16 -15 37 -123 37c-39 0 -74 -1 -107 -3c-17 -66 -271 -708 -456 -708c-138 0 -272 189 -272 226
s28 72 35 72s21 -6 21 -13c0 -4 -12 -14 -12 -31c0 -41 49 -97 93 -97c167 0 324 358 401 528c-96 -18 -154 -38 -194 -38c-62 0 -85 79 -85 124z" />
    <glyph glyph-name="J.001" horiz-adv-x="750" 
d="M1294 716c8 0 11 -7 11 -24c0 -57 -80 -173 -145 -173c-42 0 -178 20 -340 37c-50 -141 -276 -680 -447 -680c-137 0 -271 189 -271 226s27 72 35 72c6 0 21 -6 21 -13c0 -1 -1 -3 -2 -4c-8 -8 -11 -17 -11 -28c0 -41 49 -96 93 -96c171 0 331 369 406 538
c-67 5 -134 8 -198 8c-213 0 -391 -33 -391 -148c0 -24 70 -36 148 -36c96 0 204 18 204 54c0 4 2 5 4 5c3 0 8 -4 8 -11c0 -11 -92 -156 -239 -156c-112 0 -180 135 -180 226c0 124 210 177 360 177c118 0 433 -18 663 -18c135 0 241 6 261 26c11 12 3 18 10 18z" />
    <glyph glyph-name="J.002" horiz-adv-x="704" 
d="M102 221c0 218 361 558 571 558c29 0 123 -46 123 -116c0 -93 -48 -227 -122 -367c66 35 121 57 151 57c8 0 19 -19 19 -29c0 -4 -2 -7 -6 -7c-10 0 0 5 -11 5c-39 0 -103 -28 -178 -72c-86 -151 -198 -304 -310 -417c-88 -88 -203 -126 -289 -126c-44 0 -50 39 -50 49
c0 47 116 157 263 269c-68 35 -161 115 -161 196zM403 127c157 235 304 505 304 562c0 7 -2 11 -7 11c-47 0 -420 -327 -420 -534c0 -60 17 -88 37 -100c28 21 57 41 86 61zM58 -231c0 -3 3 -7 8 -7c52 0 150 106 253 246h-1c-3 0 -7 0 -11 1c-139 -111 -249 -215 -249 -240
z" />
    <glyph glyph-name="J.003" horiz-adv-x="750" 
d="M179 -248c-121 0 -179 76 -179 115c0 24 36 48 75 48c45 0 93 -1 142 -4c38 36 80 83 123 136c-65 22 -192 115 -192 209c0 217 362 557 572 557c28 0 123 -45 123 -115c0 -195 -211 -571 -430 -802c319 -31 664 -88 893 -88c157 0 259 27 259 107c0 9 4 13 9 13
c8 0 18 -9 18 -18c0 -41 -128 -336 -307 -336c-291 0 -562 195 -916 277c-78 -75 -128 -99 -190 -99zM753 723c0 7 -2 11 -7 11c-46 0 -419 -327 -419 -534c0 -73 26 -98 51 -106c185 239 375 565 375 629zM68 -114c-21 0 -31 -10 -31 -21c0 -15 17 -32 49 -32
c26 0 59 18 96 48c-37 4 -75 5 -114 5z" />
    <glyph glyph-name="Jcircumflex" unicode="&#x134;" horiz-adv-x="643" 
d="M826 869c-13 -1 -18 -26 -18 -56c0 -37 8 -80 16 -87c2 -2 2 -4 2 -5c0 -4 -5 -6 -11 -6c-20 0 -58 49 -73 99c-15 -9 -38 -12 -61 -12c-39 0 -78 10 -78 27c0 4 1 7 4 7c1 0 2 0 3 -1c3 -3 8 -4 14 -4c28 0 83 32 108 58c1 17 8 42 27 42c25 0 74 -31 74 -49
c0 -5 -4 -13 -7 -13zM259 670c0 14 2 36 22 36c3 0 6 -1 6 -3c0 -16 28 -21 82 -21c85 0 234 12 439 12c175 0 175 -80 175 -101c0 -12 -13 -36 -25 -36c-1 0 -2 1 -2 2c0 3 2 8 2 14c0 16 -15 37 -123 37c-39 0 -74 -1 -107 -3c-17 -66 -271 -708 -456 -708
c-138 0 -272 189 -272 226s28 72 35 72s21 -6 21 -13c0 -4 -12 -14 -12 -31c0 -41 49 -97 93 -97c167 0 324 358 401 528c-96 -18 -154 -38 -194 -38c-62 0 -85 79 -85 124z" />
    <glyph glyph-name="K" unicode="K" horiz-adv-x="618" 
d="M234 679c0 35 -14 19 -14 30c0 5 0 17 21 17c35 0 169 -37 169 -118c0 -38 -51 -166 -105 -299c3 -2 7 -4 10 -7c143 96 347 342 347 417c0 13 8 19 20 19c39 0 121 -58 121 -112c0 -52 -222 -282 -406 -400c126 -141 252 -361 353 -361c21 0 46 17 61 17
c9 0 14 -6 14 -24c0 -50 -82 -74 -133 -74c-239 0 -383 299 -455 361c-36 -89 -64 -160 -64 -179c0 -24 -4 -45 -59 -45c-23 0 -114 54 -114 112c0 9 32 89 72 192c-3 8 -5 15 -5 22c0 27 10 53 41 71c62 157 126 327 126 361z" />
    <glyph glyph-name="K.001" horiz-adv-x="632" 
d="M234 722c0 35 -14 19 -14 30c0 5 0 17 21 17c35 0 170 -37 170 -118c0 -40 -56 -178 -114 -317l1 -1c143 87 364 351 364 430c0 13 8 19 20 19c39 0 121 -59 121 -113s-231 -291 -418 -407c206 -191 476 -570 648 -570c59 0 89 15 89 36c0 9 8 14 17 14
c12 0 13 -19 13 -50c0 -137 -235 -216 -318 -216c-152 0 -313 592 -551 735c-14 -5 -28 -9 -41 -11c-39 -94 -69 -172 -69 -191c0 -24 -4 -45 -58 -45c-24 0 -115 55 -115 112c0 9 32 89 72 192c-3 8 -5 15 -5 22c0 29 6 52 39 66c62 159 128 331 128 366z" />
    <glyph glyph-name="K.002" horiz-adv-x="648" 
d="M233 729c0 35 -13 19 -13 30c0 5 0 17 21 17c35 0 169 -37 169 -118c0 -37 -49 -160 -102 -289c221 111 365 466 575 466c71 0 136 -122 136 -158c0 -9 -8 -15 -12 -15c-21 0 -2 31 -69 31c-193 0 -364 -278 -579 -394c211 -192 498 -600 674 -600c59 0 89 15 89 35
c0 10 7 15 16 15c12 0 13 -19 13 -50c0 -138 -235 -216 -318 -216c-159 0 -326 642 -581 749c-44 -106 -79 -195 -79 -216c0 -24 -5 -45 -59 -45c-24 0 -114 54 -114 112c0 9 32 92 73 197c-3 12 -6 24 -6 37c0 28 12 55 48 69c59 152 118 310 118 343z" />
    <glyph glyph-name="Kcommaaccent" unicode="&#x136;" horiz-adv-x="618" 
d="M198 -78c42 0 88 -60 88 -95c0 -66 -141 -191 -188 -191c-9 0 -15 6 -15 10c0 2 2 3 4 3c24 0 94 149 94 224c0 7 -1 23 -7 29c-1 1 -1 3 -1 4c0 6 9 16 25 16zM234 679c0 35 -14 19 -14 30c0 5 0 17 21 17c35 0 169 -37 169 -118c0 -38 -51 -166 -105 -299
c3 -2 7 -4 10 -7c143 96 347 342 347 417c0 13 8 19 20 19c39 0 121 -58 121 -112c0 -52 -222 -282 -406 -400c126 -141 252 -361 353 -361c21 0 46 17 61 17c9 0 14 -6 14 -24c0 -50 -82 -74 -133 -74c-239 0 -383 299 -455 361c-36 -89 -64 -160 -64 -179
c0 -24 -4 -45 -59 -45c-23 0 -114 54 -114 112c0 9 32 89 72 192c-3 8 -5 15 -5 22c0 27 10 53 41 71c62 157 126 327 126 361z" />
    <glyph glyph-name="Kcommaaccent.001" horiz-adv-x="632" 
d="M239 -40c42 0 88 -60 88 -95c0 -66 -141 -191 -188 -191c-9 0 -15 6 -15 10c0 2 2 3 4 3c24 0 94 149 94 224c0 7 -1 23 -7 29c-1 1 -1 3 -1 4c0 6 9 16 25 16zM234 722c0 35 -14 19 -14 30c0 5 0 17 21 17c35 0 170 -37 170 -118c0 -40 -56 -178 -114 -317l1 -1
c143 87 364 351 364 430c0 13 8 19 20 19c39 0 121 -59 121 -113s-231 -291 -418 -407c206 -191 476 -570 648 -570c59 0 89 15 89 36c0 9 8 14 17 14c12 0 13 -19 13 -50c0 -137 -235 -216 -318 -216c-152 0 -313 592 -551 735c-14 -5 -28 -9 -41 -11
c-39 -94 -69 -172 -69 -191c0 -24 -4 -45 -58 -45c-24 0 -115 55 -115 112c0 9 32 89 72 192c-3 8 -5 15 -5 22c0 29 6 52 39 66c62 159 128 331 128 366z" />
    <glyph glyph-name="L" unicode="L" horiz-adv-x="683" 
d="M1 5c0 11 6 23 20 23c4 0 6 -2 6 -5s-6 -13 -6 -22c0 -11 8 -22 34 -22s76 23 186 38c-1 5 -1 10 -1 15c0 41 193 484 353 643c47 47 122 51 162 51c20 0 70 -24 70 -58c0 -128 -226 -444 -289 -444c-10 0 -21 5 -27 9c-46 -73 -85 -145 -108 -205c13 1 27 1 41 1
c250 0 294 -81 294 -128c0 -19 -7 -32 -11 -32c-24 0 -7 63 -144 63s-453 -87 -493 -87c-35 0 -87 115 -87 160z" />
    <glyph glyph-name="L.001" horiz-adv-x="529" 
d="M394 227c-10 0 -20 5 -26 10c-48 -77 -90 -151 -112 -213c206 -51 405 -223 525 -223c97 0 113 69 113 104c0 6 6 9 12 9c9 0 48 -62 48 -133c0 -83 -94 -147 -156 -147c-128 0 -443 300 -663 300c-79 0 -107 -29 -107 -39c0 -19 15 -14 15 -21c0 -3 -2 -5 -6 -5
c-12 0 -37 15 -37 38c0 54 11 111 99 127v2c0 41 193 483 352 642c47 48 122 51 162 51c20 0 71 -24 71 -58c0 -127 -227 -444 -290 -444z" />
    <glyph glyph-name="L.002" horiz-adv-x="568" 
d="M174 -22c-132 0 -156 -44 -156 -56c0 -22 13 -13 13 -22c0 -5 -3 -7 -6 -7s-7 2 -10 6c-10 9 -14 25 -14 43c0 59 50 146 152 157c24 89 202 482 351 631c30 30 89 46 135 46c82 0 100 -69 100 -132c0 -128 -284 -416 -343 -416c-5 0 -14 2 -23 8
c-29 -58 -55 -115 -69 -165c245 -94 575 -389 768 -389c60 0 90 15 90 35c0 10 7 15 16 15c12 0 13 -19 13 -50c0 -138 -235 -216 -318 -216c-173 0 -403 512 -699 512zM616 600c-13 0 -137 -166 -227 -334c47 28 237 268 237 323c0 7 -3 11 -10 11z" />
    <glyph glyph-name="Lacute" unicode="&#x139;" horiz-adv-x="683" 
d="M861 903c26 0 55 -51 55 -66c0 -52 -119 -84 -157 -84c-9 0 -15 7 -15 12c0 3 2 5 5 5c18 0 96 78 96 108c0 4 -4 7 -4 11c0 5 7 14 20 14zM1 5c0 11 6 23 20 23c4 0 6 -2 6 -5s-6 -13 -6 -22c0 -11 8 -22 34 -22s76 23 186 38c-1 5 -1 10 -1 15c0 41 193 484 353 643
c47 47 122 51 162 51c20 0 70 -24 70 -58c0 -128 -226 -444 -289 -444c-10 0 -21 5 -27 9c-46 -73 -85 -145 -108 -205c13 1 27 1 41 1c250 0 294 -81 294 -128c0 -19 -7 -32 -11 -32c-24 0 -7 63 -144 63s-453 -87 -493 -87c-35 0 -87 115 -87 160z" />
    <glyph glyph-name="Lacute.001" horiz-adv-x="529" 
d="M710 903c26 0 55 -51 55 -66c0 -52 -119 -84 -157 -84c-9 0 -15 7 -15 12c0 3 2 5 5 5c18 0 96 78 96 108c0 4 -4 7 -4 11c0 5 7 14 20 14zM394 227c-10 0 -20 5 -26 10c-48 -77 -90 -151 -112 -213c206 -51 405 -223 525 -223c97 0 113 69 113 104c0 6 6 9 12 9
c9 0 48 -62 48 -133c0 -83 -94 -147 -156 -147c-128 0 -443 300 -663 300c-79 0 -107 -29 -107 -39c0 -19 15 -14 15 -21c0 -3 -2 -5 -6 -5c-12 0 -37 15 -37 38c0 54 11 111 99 127v2c0 41 193 483 352 642c47 48 122 51 162 51c20 0 71 -24 71 -58
c0 -127 -227 -444 -290 -444z" />
    <glyph glyph-name="Lcaron" unicode="&#x13d;" horiz-adv-x="741" 
d="M968 812c62 0 123 -80 123 -100c0 -72 -157 -147 -204 -147c-6 0 -11 6 -11 13c0 16 75 110 75 185c0 7 -1 22 -7 28c-1 1 -1 3 -1 4c0 7 9 17 25 17zM1 5c0 11 6 23 20 23c4 0 6 -2 6 -5s-6 -13 -6 -22c0 -11 8 -22 34 -22s76 23 186 38c-1 5 -1 10 -1 15
c0 41 193 484 353 643c47 47 122 51 162 51c20 0 70 -24 70 -58c0 -128 -226 -444 -289 -444c-10 0 -21 5 -27 9c-46 -73 -85 -145 -108 -205c13 1 27 1 41 1c250 0 294 -81 294 -128c0 -19 -7 -32 -11 -32c-24 0 -7 63 -144 63s-453 -87 -493 -87c-35 0 -87 115 -87 160z
" />
    <glyph glyph-name="Lcaron.001" horiz-adv-x="554" 
d="M817 812c62 0 123 -80 123 -100c0 -72 -157 -147 -204 -147c-6 0 -11 6 -11 13c0 16 75 110 75 185c0 7 -1 22 -7 28c-1 1 -1 3 -1 4c0 7 9 17 25 17zM394 227c-10 0 -20 5 -26 10c-48 -77 -90 -151 -112 -213c206 -51 405 -223 525 -223c97 0 113 69 113 104
c0 6 6 9 12 9c9 0 48 -62 48 -133c0 -83 -94 -147 -156 -147c-128 0 -443 300 -663 300c-79 0 -107 -29 -107 -39c0 -19 15 -14 15 -21c0 -3 -2 -5 -6 -5c-12 0 -37 15 -37 38c0 54 11 111 99 127v2c0 41 193 483 352 642c47 48 122 51 162 51c20 0 71 -24 71 -58
c0 -127 -227 -444 -290 -444z" />
    <glyph glyph-name="Lcommaaccent" unicode="&#x13b;" horiz-adv-x="683" 
d="M198 -170c42 0 88 -60 88 -95c0 -66 -141 -191 -188 -191c-9 0 -15 6 -15 10c0 2 2 3 4 3c24 0 94 149 94 224c0 7 -1 23 -7 29c-1 1 -1 3 -1 4c0 6 9 16 25 16zM1 5c0 11 6 23 20 23c4 0 6 -2 6 -5s-6 -13 -6 -22c0 -11 8 -22 34 -22s76 23 186 38c-1 5 -1 10 -1 15
c0 41 193 484 353 643c47 47 122 51 162 51c20 0 70 -24 70 -58c0 -128 -226 -444 -289 -444c-10 0 -21 5 -27 9c-46 -73 -85 -145 -108 -205c13 1 27 1 41 1c250 0 294 -81 294 -128c0 -19 -7 -32 -11 -32c-24 0 -7 63 -144 63s-453 -87 -493 -87c-35 0 -87 115 -87 160z
" />
    <glyph glyph-name="Lcommaaccent.001" horiz-adv-x="529" 
d="M177 -131c42 0 88 -60 88 -95c0 -66 -141 -191 -188 -191c-9 0 -15 6 -15 10c0 2 2 3 4 3c24 0 94 149 94 224c0 7 -1 23 -7 29c-1 1 -1 3 -1 4c0 6 9 16 25 16zM394 227c-10 0 -20 5 -26 10c-48 -77 -90 -151 -112 -213c206 -51 405 -223 525 -223c97 0 113 69 113 104
c0 6 6 9 12 9c9 0 48 -62 48 -133c0 -83 -94 -147 -156 -147c-128 0 -443 300 -663 300c-79 0 -107 -29 -107 -39c0 -19 15 -14 15 -21c0 -3 -2 -5 -6 -5c-12 0 -37 15 -37 38c0 54 11 111 99 127v2c0 41 193 483 352 642c47 48 122 51 162 51c20 0 71 -24 71 -58
c0 -127 -227 -444 -290 -444z" />
    <glyph glyph-name="Ldot" unicode="&#x13f;" horiz-adv-x="850" 
d="M812 220c-15 -16 -39 -24 -63 -24c-42 0 -85 26 -85 78c0 46 47 75 83 75c47 0 84 -42 84 -83c0 -16 -6 -33 -19 -46zM1 5c0 11 6 23 20 23c4 0 6 -2 6 -5s-6 -13 -6 -22c0 -11 8 -22 34 -22s76 23 186 38c-1 5 -1 10 -1 15c0 41 193 484 353 643c47 47 122 51 162 51
c20 0 70 -24 70 -58c0 -128 -226 -444 -289 -444c-10 0 -21 5 -27 9c-46 -73 -85 -145 -108 -205c13 1 27 1 41 1c250 0 294 -81 294 -128c0 -19 -7 -32 -11 -32c-24 0 -7 63 -144 63s-453 -87 -493 -87c-35 0 -87 115 -87 160z" />
    <glyph glyph-name="Ldot.001" horiz-adv-x="720" 
d="M682 220c-15 -16 -39 -24 -63 -24c-42 0 -85 26 -85 78c0 46 47 75 83 75c47 0 84 -42 84 -83c0 -16 -6 -33 -19 -46zM394 227c-10 0 -20 5 -26 10c-48 -77 -90 -151 -112 -213c206 -51 405 -223 525 -223c97 0 113 69 113 104c0 6 6 9 12 9c9 0 48 -62 48 -133
c0 -83 -94 -147 -156 -147c-128 0 -443 300 -663 300c-79 0 -107 -29 -107 -39c0 -19 15 -14 15 -21c0 -3 -2 -5 -6 -5c-12 0 -37 15 -37 38c0 54 11 111 99 127v2c0 41 193 483 352 642c47 48 122 51 162 51c20 0 71 -24 71 -58c0 -127 -227 -444 -290 -444z" />
    <glyph glyph-name="Lslash" unicode="&#x141;" horiz-adv-x="683" 
d="M638 244c0 -24 -12 -55 -25 -68c-21 -21 -68 -27 -124 -27c-10 0 -21 1 -32 1c-25 -49 -46 -96 -56 -122c13 1 27 1 41 1c250 0 294 -81 294 -128c0 -19 -7 -32 -11 -32c-24 0 -7 63 -144 63s-453 -87 -493 -87c-35 0 -87 115 -87 160c0 11 6 23 20 23c4 0 6 -2 6 -5
s-6 -13 -6 -22c0 -11 8 -22 34 -22s76 23 186 38c-1 5 -1 10 -1 15c0 12 17 58 44 122c-43 -2 -78 -9 -96 -27c-2 -2 -4 -3 -6 -3c-6 0 -12 7 -12 12c0 10 8 40 31 59c17 14 59 19 111 22c70 153 182 359 281 458c47 47 122 51 162 51c20 0 70 -24 70 -58
c0 -128 -186 -359 -249 -359c-10 0 -21 5 -27 9c-16 -25 -36 -59 -55 -96c67 3 123 11 139 35c3 0 5 -3 5 -13z" />
    <glyph glyph-name="M" unicode="M" horiz-adv-x="1018" 
d="M632 750c8 8 19 12 30 12c52 0 126 -72 126 -97c0 -21 -112 -243 -176 -436c108 139 255 287 295 311c3 3 7 4 12 4c40 0 133 -85 133 -114c0 -10 -5 -15 -21 -31c-16 -17 -155 -305 -155 -486c0 -10 4 -14 11 -14c37 0 155 123 155 190c0 11 -3 20 -10 27
c-3 3 -4 5 -4 6c0 2 1 3 4 3c17 0 76 -29 76 -86c0 -56 -162 -192 -202 -192c-33 0 -44 8 -70 34s-91 54 -91 128c0 44 13 178 49 306c-110 -136 -229 -313 -229 -336c0 -10 -8 -15 -20 -15c-48 0 -145 85 -145 129c0 15 28 191 83 363c-183 -245 -273 -490 -273 -501
c0 -13 -23 -27 -42 -27c-33 0 -168 27 -168 92c0 11 43 136 97 255c-41 21 -93 61 -93 91c0 31 170 296 240 296c69 0 118 -19 127 -28c8 -8 20 -33 20 -45c0 -6 -49 -144 -101 -290c113 173 263 373 342 451z" />
    <glyph glyph-name="M.001" horiz-adv-x="1125" 
d="M638 725c0 32 12 45 30 45c51 0 148 -105 148 -155c0 -31 -118 -275 -155 -480c84 111 246 350 331 488c24 59 46 102 62 119c6 6 15 9 26 9c48 0 130 -55 130 -97c0 -8 -3 -15 -9 -21c-41 -41 -196 -369 -196 -617c0 -42 16 -89 29 -89c5 0 7 6 11 6c1 0 2 -1 2 -3
c0 -7 -7 -22 -18 -32c-7 -7 -18 -10 -31 -10c-61 0 -172 62 -172 114c0 71 40 237 88 394c-98 -149 -212 -314 -267 -378c-9 -13 -33 -38 -49 -38c-42 0 -113 91 -113 139c0 68 34 189 71 306c-135 -226 -347 -514 -440 -514c-51 0 -116 97 -116 118c0 18 6 28 20 28
c4 0 4 -2 4 -5c0 -17 3 -27 32 -27c172 0 520 486 582 700z" />
    <glyph glyph-name="M.002" horiz-adv-x="1375" 
d="M1314 732c6 6 15 9 26 9c48 0 130 -56 130 -97c0 -8 -3 -15 -9 -21c-41 -41 -195 -369 -195 -617c0 -42 15 -89 28 -89c2 0 3 0 5 2c3 3 6 4 7 4s2 -1 2 -3c0 -6 -8 -22 -18 -32c-7 -7 -18 -10 -32 -10c-61 0 -172 62 -172 113c0 71 39 237 88 395
c-96 -148 -209 -311 -265 -376c-8 -16 -43 -40 -50 -40c-43 0 -113 90 -113 139c0 73 39 206 78 330c-169 -272 -489 -686 -659 -686c-78 0 -165 119 -165 141c0 18 6 27 20 27c4 0 4 -2 4 -5v-8c0 -9 3 -19 31 -19c250 0 748 573 835 804c-3 -1 -5 -1 -8 -1
c-14 0 -82 4 -170 4c-158 0 -378 -13 -447 -82c-21 -21 -28 -40 -28 -57c0 -22 12 -40 21 -49c1 -1 2 -3 2 -5c0 -6 -6 -14 -14 -14c-3 0 -7 1 -11 5c-10 10 -85 113 -85 198c0 89 75 105 154 105c127 0 332 -39 612 -39c4 1 8 2 12 2c51 0 149 -105 149 -155
c0 -32 -118 -275 -155 -480c83 110 243 343 328 483c25 61 47 107 64 124z" />
    <glyph glyph-name="N" unicode="N" horiz-adv-x="724" 
d="M669 723c4 5 11 7 18 7c49 0 148 -101 148 -135c0 -39 -263 -347 -263 -585c0 -76 22 -116 47 -116c28 0 46 20 57 20c7 0 10 -8 10 -33c0 -26 -33 -59 -73 -59c-27 0 -194 86 -194 245c0 160 97 383 171 524c-103 -54 -353 -383 -353 -556c0 -30 -6 -56 -80 -56
c-32 0 -157 67 -157 139c0 59 206 443 206 571c0 11 -2 14 -5 14s-7 -4 -10 -4c-2 0 -4 2 -4 10v1c0 9 0 42 46 42c71 0 141 -69 141 -138c0 -56 -16 -122 -39 -188c128 156 283 297 334 297z" />
    <glyph glyph-name="N.001" horiz-adv-x="748" 
d="M1039 803c24 0 59 -7 59 -39c0 -17 -9 -35 -17 -35c-3 0 -3 2 -3 4c0 4 2 11 2 17c0 7 -4 14 -19 14c-216 0 -433 -553 -433 -749c0 -43 -87 -85 -136 -85c-12 0 -22 3 -27 8c-29 29 -99 216 -168 388c-63 -146 -149 -334 -149 -371c0 -11 -14 -17 -30 -17
c-12 0 -26 4 -38 16c-19 18 -80 78 -80 120c0 41 157 353 199 477c-22 43 -40 71 -52 71c-23 0 -20 -18 -27 -18c-5 0 -12 4 -12 14c0 27 72 98 144 98c65 0 199 -262 272 -456c95 250 315 543 515 543z" />
    <glyph glyph-name="N.002" horiz-adv-x="780" 
d="M654 -224c-101 0 -258 98 -258 217c0 166 117 437 198 597c-99 -45 -358 -384 -358 -560c0 -29 -6 -56 -81 -56c-32 0 -156 68 -156 140c0 59 206 442 206 570c0 12 -2 15 -5 15s-7 -4 -10 -4c-2 0 -4 2 -4 9v2c0 10 1 41 46 41c70 0 140 -68 140 -137
c0 -56 -16 -122 -39 -189c128 157 283 298 334 298c4 5 10 7 17 7c49 0 149 -102 149 -135c0 -35 -236 -527 -236 -690c0 -54 34 -66 89 -66c141 0 415 98 602 98c67 0 122 -13 156 -47c59 -59 74 -127 74 -176c0 -35 -8 -61 -12 -65c-6 -6 -14 -12 -20 -12c-4 0 -7 3 -7 14
c0 91 -260 129 -825 129z" />
    <glyph glyph-name="N.003" horiz-adv-x="688" 
d="M-6 105c0 11 50 155 111 286c-41 21 -94 61 -94 90c0 55 192 314 241 314c62 0 151 -72 151 -109c0 -5 -2 -9 -5 -12c-5 -5 -23 -49 -48 -110l-40 -104l-65 -173c115 151 282 341 389 450c8 10 15 18 23 26c6 6 13 8 21 8c48 0 125 -93 125 -124c0 -3 0 -5 -2 -7
c-119 -119 -240 -519 -240 -696c0 -53 10 -86 35 -86c31 0 47 24 54 24c3 0 4 -4 4 -15c0 -41 -49 -41 -60 -41c-127 0 -187 127 -187 174c0 118 46 335 112 513c-206 -233 -333 -443 -333 -505c0 -13 -23 -27 -42 -27c-33 0 -150 59 -150 124z" />
    <glyph glyph-name="Nacute" unicode="&#x143;" horiz-adv-x="724" 
d="M554 850c26 0 55 -51 55 -66c0 -52 -119 -84 -157 -84c-9 0 -15 7 -15 12c0 3 2 5 5 5c18 0 96 78 96 108c0 4 -4 7 -4 11c0 5 7 14 20 14zM669 723c4 5 11 7 18 7c49 0 148 -101 148 -135c0 -39 -263 -347 -263 -585c0 -76 22 -116 47 -116c28 0 46 20 57 20
c7 0 10 -8 10 -33c0 -26 -33 -59 -73 -59c-27 0 -194 86 -194 245c0 160 97 383 171 524c-103 -54 -353 -383 -353 -556c0 -30 -6 -56 -80 -56c-32 0 -157 67 -157 139c0 59 206 443 206 571c0 11 -2 14 -5 14s-7 -4 -10 -4c-2 0 -4 2 -4 10v1c0 9 0 42 46 42
c71 0 141 -69 141 -138c0 -56 -16 -122 -39 -188c128 156 283 297 334 297z" />
    <glyph glyph-name="Ncaron" unicode="&#x147;" horiz-adv-x="724" 
d="M425 738c12 8 14 13 14 23c0 24 0 96 -17 111c-2 2 -2 4 -2 5c0 4 5 6 11 6c20 0 58 -49 73 -99c15 9 38 12 61 12c39 0 78 -10 78 -27c0 -4 -1 -7 -4 -7c-1 0 -2 0 -3 1c-3 3 -8 4 -14 4c-28 0 -83 -32 -108 -58v-6c0 -16 -7 -21 -19 -21c-27 0 -73 33 -73 50
c0 3 1 4 3 6zM669 723c4 5 11 7 18 7c49 0 148 -101 148 -135c0 -39 -263 -347 -263 -585c0 -76 22 -116 47 -116c28 0 46 20 57 20c7 0 10 -8 10 -33c0 -26 -33 -59 -73 -59c-27 0 -194 86 -194 245c0 160 97 383 171 524c-103 -54 -353 -383 -353 -556
c0 -30 -6 -56 -80 -56c-32 0 -157 67 -157 139c0 59 206 443 206 571c0 11 -2 14 -5 14s-7 -4 -10 -4c-2 0 -4 2 -4 10v1c0 9 0 42 46 42c71 0 141 -69 141 -138c0 -56 -16 -122 -39 -188c128 156 283 297 334 297z" />
    <glyph glyph-name="Ncaron.001" horiz-adv-x="748" 
d="M479 699c12 8 14 13 14 23c0 24 0 96 -17 111c-2 2 -2 4 -2 5c0 4 5 6 11 6c20 0 58 -49 73 -99c15 9 38 12 61 12c39 0 78 -10 78 -27c0 -4 -1 -7 -4 -7c-1 0 -2 0 -3 1c-3 3 -8 4 -14 4c-28 0 -83 -32 -108 -58v-6c0 -16 -7 -21 -19 -21c-27 0 -73 33 -73 50
c0 3 1 4 3 6zM1039 803c24 0 59 -7 59 -39c0 -17 -9 -35 -17 -35c-3 0 -3 2 -3 4c0 4 2 11 2 17c0 7 -4 14 -19 14c-216 0 -433 -553 -433 -749c0 -43 -87 -85 -136 -85c-12 0 -22 3 -27 8c-29 29 -99 216 -168 388c-63 -146 -149 -334 -149 -371c0 -11 -14 -17 -30 -17
c-12 0 -26 4 -38 16c-19 18 -80 78 -80 120c0 41 157 353 199 477c-22 43 -40 71 -52 71c-23 0 -20 -18 -27 -18c-5 0 -12 4 -12 14c0 27 72 98 144 98c65 0 199 -262 272 -456c95 250 315 543 515 543z" />
    <glyph glyph-name="Ncommaaccent" unicode="&#x145;" horiz-adv-x="724" 
d="M217 -39c42 0 88 -60 88 -95c0 -66 -141 -191 -188 -191c-9 0 -15 6 -15 10c0 2 2 3 4 3c24 0 94 149 94 224c0 7 -1 23 -7 29c-1 1 -1 3 -1 4c0 6 9 16 25 16zM669 723c4 5 11 7 18 7c49 0 148 -101 148 -135c0 -39 -263 -347 -263 -585c0 -76 22 -116 47 -116
c28 0 46 20 57 20c7 0 10 -8 10 -33c0 -26 -33 -59 -73 -59c-27 0 -194 86 -194 245c0 160 97 383 171 524c-103 -54 -353 -383 -353 -556c0 -30 -6 -56 -80 -56c-32 0 -157 67 -157 139c0 59 206 443 206 571c0 11 -2 14 -5 14s-7 -4 -10 -4c-2 0 -4 2 -4 10v1
c0 9 0 42 46 42c71 0 141 -69 141 -138c0 -56 -16 -122 -39 -188c128 156 283 297 334 297z" />
    <glyph glyph-name="Ncommaaccent.001" horiz-adv-x="748" 
d="M249 -37c42 0 88 -60 88 -95c0 -66 -141 -191 -188 -191c-9 0 -15 6 -15 10c0 2 2 3 4 3c24 0 94 149 94 224c0 7 -1 23 -7 29c-1 1 -1 3 -1 4c0 6 9 16 25 16zM1039 803c24 0 59 -7 59 -39c0 -17 -9 -35 -17 -35c-3 0 -3 2 -3 4c0 4 2 11 2 17c0 7 -4 14 -19 14
c-216 0 -433 -553 -433 -749c0 -43 -87 -85 -136 -85c-12 0 -22 3 -27 8c-29 29 -99 216 -168 388c-63 -146 -149 -334 -149 -371c0 -11 -14 -17 -30 -17c-12 0 -26 4 -38 16c-19 18 -80 78 -80 120c0 41 157 353 199 477c-22 43 -40 71 -52 71c-23 0 -20 -18 -27 -18
c-5 0 -12 4 -12 14c0 27 72 98 144 98c65 0 199 -262 272 -456c95 250 315 543 515 543z" />
    <glyph glyph-name="Ntilde" unicode="&#xd1;" horiz-adv-x="724" 
d="M639 751c0 -15 -16 -29 -22 -29c-5 0 -9 2 -9 5c0 1 0 3 2 5c4 4 6 7 6 10c0 15 -58 18 -205 18c-53 0 -61 50 -61 74c0 7 1 13 1 13c2 2 5 4 7 4c3 0 6 -3 6 -11c0 -38 275 -10 275 -89zM669 723c4 5 11 7 18 7c49 0 148 -101 148 -135c0 -39 -263 -347 -263 -585
c0 -76 22 -116 47 -116c28 0 46 20 57 20c7 0 10 -8 10 -33c0 -26 -33 -59 -73 -59c-27 0 -194 86 -194 245c0 160 97 383 171 524c-103 -54 -353 -383 -353 -556c0 -30 -6 -56 -80 -56c-32 0 -157 67 -157 139c0 59 206 443 206 571c0 11 -2 14 -5 14s-7 -4 -10 -4
c-2 0 -4 2 -4 10v1c0 9 0 42 46 42c71 0 141 -69 141 -138c0 -56 -16 -122 -39 -188c128 156 283 297 334 297z" />
    <glyph glyph-name="Ntilde.001" horiz-adv-x="748" 
d="M695 716c0 -15 -16 -29 -22 -29c-5 0 -9 2 -9 5c0 1 0 3 2 5c4 4 6 7 6 10c0 15 -58 18 -205 18c-53 0 -61 50 -61 74c0 7 1 13 1 13c2 2 5 4 7 4c3 0 6 -3 6 -11c0 -38 275 -10 275 -89zM1039 803c24 0 59 -7 59 -39c0 -17 -9 -35 -17 -35c-3 0 -3 2 -3 4c0 4 2 11 2 17
c0 7 -4 14 -19 14c-216 0 -433 -553 -433 -749c0 -43 -87 -85 -136 -85c-12 0 -22 3 -27 8c-29 29 -99 216 -168 388c-63 -146 -149 -334 -149 -371c0 -11 -14 -17 -30 -17c-12 0 -26 4 -38 16c-19 18 -80 78 -80 120c0 41 157 353 199 477c-22 43 -40 71 -52 71
c-23 0 -20 -18 -27 -18c-5 0 -12 4 -12 14c0 27 72 98 144 98c65 0 199 -262 272 -456c95 250 315 543 515 543z" />
    <glyph glyph-name="Ntilde.002" horiz-adv-x="780" 
d="M639 751c0 -15 -16 -29 -22 -29c-5 0 -9 2 -9 5c0 1 0 3 2 5c4 4 6 7 6 10c0 15 -58 18 -205 18c-53 0 -61 50 -61 74c0 7 1 13 1 13c2 2 5 4 7 4c3 0 6 -3 6 -11c0 -38 275 -10 275 -89zM654 -224c-101 0 -258 98 -258 217c0 166 117 437 198 597
c-99 -45 -358 -384 -358 -560c0 -29 -6 -56 -81 -56c-32 0 -156 68 -156 140c0 59 206 442 206 570c0 12 -2 15 -5 15s-7 -4 -10 -4c-2 0 -4 2 -4 9v2c0 10 1 41 46 41c70 0 140 -68 140 -137c0 -56 -16 -122 -39 -189c128 157 283 298 334 298c4 5 10 7 17 7
c49 0 149 -102 149 -135c0 -35 -236 -527 -236 -690c0 -54 34 -66 89 -66c141 0 415 98 602 98c67 0 122 -13 156 -47c59 -59 74 -127 74 -176c0 -35 -8 -61 -12 -65c-6 -6 -14 -12 -20 -12c-4 0 -7 3 -7 14c0 91 -260 129 -825 129z" />
    <glyph glyph-name="Ntilde.003" horiz-adv-x="688" 
d="M623 780c0 -15 -16 -29 -22 -29c-5 0 -9 2 -9 5c0 1 0 3 2 5c4 4 6 7 6 10c0 15 -58 18 -205 18c-53 0 -61 50 -61 74c0 7 1 13 1 13c2 2 5 4 7 4c3 0 6 -3 6 -11c0 -38 275 -10 275 -89zM-6 105c0 11 50 155 111 286c-41 21 -94 61 -94 90c0 55 192 314 241 314
c62 0 151 -72 151 -109c0 -5 -2 -9 -5 -12c-5 -5 -23 -49 -48 -110l-40 -104l-65 -173c115 151 282 341 389 450c8 10 15 18 23 26c6 6 13 8 21 8c48 0 125 -93 125 -124c0 -3 0 -5 -2 -7c-119 -119 -240 -519 -240 -696c0 -53 10 -86 35 -86c31 0 47 24 54 24
c3 0 4 -4 4 -15c0 -41 -49 -41 -60 -41c-127 0 -187 127 -187 174c0 118 46 335 112 513c-206 -233 -333 -443 -333 -505c0 -13 -23 -27 -42 -27c-33 0 -150 59 -150 124z" />
    <glyph glyph-name="O" unicode="O" horiz-adv-x="614" 
d="M202 619c26 0 50 -4 71 -9c47 66 110 118 170 118c120 0 199 -77 199 -147c0 -219 -271 -682 -435 -682c-95 0 -207 112 -207 211c0 246 110 509 202 509zM385 535c0 -6 -10 -32 -29 -32c-12 0 -24 -6 -35 -15c-36 -65 -63 -146 -63 -236c0 -27 29 -25 29 -28v-1
c0 -4 0 -11 -18 -11c-21 0 -42 23 -57 63c-28 -90 -46 -187 -46 -248c0 -49 11 -69 28 -69c80 0 302 441 302 659c0 16 -7 23 -19 23c-24 0 -67 -30 -108 -81c10 -10 16 -19 16 -24z" />
    <glyph glyph-name="O.001" horiz-adv-x="576" 
d="M451 558c0 -20 -10 -24 -22 -24c-6 0 -12 1 -18 1c-54 0 -266 -284 -266 -526c0 -25 7 -36 19 -36c70 0 311 386 311 600c0 132 -103 147 -118 147c-16 0 -16 -15 -38 -15c-5 0 -10 2 -10 11c0 15 28 21 61 21c31 0 66 -5 84 -12c73 -28 169 -96 169 -171
c0 -223 -337 -635 -451 -635c-51 0 -172 76 -172 212c0 191 150 514 295 514c94 0 156 -61 156 -87z" />
    <glyph glyph-name="O.002" horiz-adv-x="798" 
d="M226 115c0 37 5 79 15 122h-19c-112 0 -222 87 -222 214c0 133 251 327 532 327c225 0 308 -143 308 -199c0 -40 -11 -88 -29 -139c13 3 25 4 37 4c50 0 94 -93 94 -104c0 -6 -4 -8 -9 -8s-11 3 -11 8c0 9 -11 41 -66 41c-18 0 -43 -6 -75 -14
c-100 -219 -300 -464 -384 -464c-51 0 -171 76 -171 212zM700 557c0 113 -48 164 -163 164c-218 0 -401 -192 -401 -339c0 -80 56 -110 105 -110h9c48 173 160 357 270 357c94 0 156 -61 156 -87c0 -20 -10 -24 -22 -24c-6 0 -12 1 -18 1c-29 0 -103 -82 -166 -195
c68 24 137 53 200 76c18 57 30 111 30 157zM390 -43c48 0 177 183 253 367c-62 -19 -132 -40 -202 -57c-40 -85 -70 -183 -70 -274c0 -25 7 -36 19 -36z" />
    <glyph glyph-name="OE" unicode="&#x152;" horiz-adv-x="961" 
d="M791 119c135 0 136 -51 136 -89v-7c0 -20 -5 -58 -22 -58c-4 0 -9 2 -15 8c-19 19 -50 26 -87 26c-80 0 -183 -32 -237 -49c-7 -4 -19 -7 -32 -8h-1c-66 0 -163 37 -184 79c-50 -49 -100 -81 -142 -81c-95 0 -207 113 -207 211c0 246 110 510 202 510c26 0 50 -4 71 -9
c47 66 110 118 170 118c53 0 98 -15 132 -38c135 2 394 28 445 28c37 0 53 -53 53 -94c0 -21 -4 -39 -11 -46c-12 -11 -97 -40 -135 -40c-19 0 -33 34 -33 46c-21 0 -66 -4 -125 -7c-24 -29 -72 -101 -115 -195c55 10 116 19 173 19c25 0 35 -13 35 -29
c0 -21 -16 -49 -35 -68c-6 -6 -12 -8 -16 -8c-5 0 -7 2 -7 5s3 4 3 7c0 10 -34 21 -102 21c-31 0 -55 -1 -74 -1c-35 -85 -62 -181 -68 -274c64 13 143 23 228 23zM385 576c0 -6 -10 -31 -29 -31c-12 0 -23 -5 -34 -15c-37 -64 -64 -145 -64 -236c0 -28 29 -26 29 -29v-1
c0 -4 0 -11 -18 -11c-21 0 -42 23 -57 63c-28 -91 -46 -187 -46 -248c0 -48 11 -69 28 -69c79 0 302 441 302 659c0 16 -7 23 -19 23c-24 0 -67 -30 -108 -81c10 -10 16 -19 16 -24z" />
    <glyph glyph-name="Oacute" unicode="&#xd3;" horiz-adv-x="614" 
d="M569 903c26 0 55 -51 55 -66c0 -52 -119 -84 -157 -84c-9 0 -15 7 -15 12c0 3 2 5 5 5c18 0 96 78 96 108c0 4 -4 7 -4 11c0 5 7 14 20 14zM202 619c26 0 50 -4 71 -9c47 66 110 118 170 118c120 0 199 -77 199 -147c0 -219 -271 -682 -435 -682c-95 0 -207 112 -207 211
c0 246 110 509 202 509zM385 535c0 -6 -10 -32 -29 -32c-12 0 -24 -6 -35 -15c-36 -65 -63 -146 -63 -236c0 -27 29 -25 29 -28v-1c0 -4 0 -11 -18 -11c-21 0 -42 23 -57 63c-28 -90 -46 -187 -46 -248c0 -49 11 -69 28 -69c80 0 302 441 302 659c0 16 -7 23 -19 23
c-24 0 -67 -30 -108 -81c10 -10 16 -19 16 -24z" />
    <glyph glyph-name="Oacute.001" horiz-adv-x="576" 
d="M451 558c0 -20 -10 -24 -22 -24c-6 0 -12 1 -18 1c-54 0 -266 -284 -266 -526c0 -25 7 -36 19 -36c70 0 311 386 311 600c0 132 -103 147 -118 147c-16 0 -16 -15 -38 -15c-5 0 -10 2 -10 11c0 15 28 21 61 21c31 0 66 -5 84 -12c73 -28 169 -96 169 -171
c0 -223 -337 -635 -451 -635c-51 0 -172 76 -172 212c0 191 150 514 295 514c94 0 156 -61 156 -87zM590 889c26 0 55 -51 55 -66c0 -52 -119 -84 -157 -84c-9 0 -15 7 -15 12c0 3 2 5 5 5c18 0 96 78 96 108c0 4 -4 7 -4 11c0 5 7 14 20 14z" />
    <glyph glyph-name="Oacute.002" horiz-adv-x="798" 
d="M226 115c0 37 5 79 15 122h-19c-112 0 -222 87 -222 214c0 133 251 327 532 327c225 0 308 -143 308 -199c0 -40 -11 -88 -29 -139c13 3 25 4 37 4c50 0 94 -93 94 -104c0 -6 -4 -8 -9 -8s-11 3 -11 8c0 9 -11 41 -66 41c-18 0 -43 -6 -75 -14
c-100 -219 -300 -464 -384 -464c-51 0 -171 76 -171 212zM700 557c0 113 -48 164 -163 164c-218 0 -401 -192 -401 -339c0 -80 56 -110 105 -110h9c48 173 160 357 270 357c94 0 156 -61 156 -87c0 -20 -10 -24 -22 -24c-6 0 -12 1 -18 1c-29 0 -103 -82 -166 -195
c68 24 137 53 200 76c18 57 30 111 30 157zM390 -43c48 0 177 183 253 367c-62 -19 -132 -40 -202 -57c-40 -85 -70 -183 -70 -274c0 -25 7 -36 19 -36zM804 931c26 0 55 -51 55 -66c0 -52 -119 -84 -157 -84c-9 0 -15 7 -15 12c0 3 2 5 5 5c18 0 96 78 96 108
c0 4 -4 7 -4 11c0 5 7 14 20 14z" />
    <glyph glyph-name="Obreve" unicode="&#x14e;" horiz-adv-x="614" 
d="M592 724c-54 0 -87 44 -87 87c0 20 6 37 21 54c4 5 12 9 19 9c23 0 54 -25 54 -37c0 -2 -1 -3 -2 -4c-12 -12 -18 -23 -18 -32c0 -17 18 -29 38 -29c22 0 46 14 46 49c0 4 -1 7 -3 9c-1 1 -1 2 -1 3c0 4 4 8 9 8c4 0 7 -3 7 -12c0 -53 -40 -105 -83 -105zM202 619
c26 0 50 -4 71 -9c47 66 110 118 170 118c120 0 199 -77 199 -147c0 -219 -271 -682 -435 -682c-95 0 -207 112 -207 211c0 246 110 509 202 509zM385 535c0 -6 -10 -32 -29 -32c-12 0 -24 -6 -35 -15c-36 -65 -63 -146 -63 -236c0 -27 29 -25 29 -28v-1c0 -4 0 -11 -18 -11
c-21 0 -42 23 -57 63c-28 -90 -46 -187 -46 -248c0 -49 11 -69 28 -69c80 0 302 441 302 659c0 16 -7 23 -19 23c-24 0 -67 -30 -108 -81c10 -10 16 -19 16 -24z" />
    <glyph glyph-name="Obreve.001" horiz-adv-x="576" 
d="M592 724c-54 0 -87 44 -87 87c0 20 6 37 21 54c4 5 12 9 19 9c23 0 54 -25 54 -37c0 -2 -1 -3 -2 -4c-12 -12 -18 -23 -18 -32c0 -17 18 -29 38 -29c22 0 46 14 46 49c0 4 -1 7 -3 9c-1 1 -1 2 -1 3c0 4 4 8 9 8c4 0 7 -3 7 -12c0 -53 -40 -105 -83 -105zM451 558
c0 -20 -10 -24 -22 -24c-6 0 -12 1 -18 1c-54 0 -266 -284 -266 -526c0 -25 7 -36 19 -36c70 0 311 386 311 600c0 132 -103 147 -118 147c-16 0 -16 -15 -38 -15c-5 0 -10 2 -10 11c0 15 28 21 61 21c31 0 66 -5 84 -12c73 -28 169 -96 169 -171
c0 -223 -337 -635 -451 -635c-51 0 -172 76 -172 212c0 191 150 514 295 514c94 0 156 -61 156 -87z" />
    <glyph glyph-name="Ocircumflex" unicode="&#xd4;" horiz-adv-x="614" 
d="M636 858c-13 -1 -18 -26 -18 -56c0 -37 8 -80 16 -87c2 -2 2 -4 2 -5c0 -4 -5 -6 -11 -6c-20 0 -58 49 -73 99c-15 -9 -38 -12 -61 -12c-39 0 -78 10 -78 27c0 4 1 7 4 7c1 0 2 0 3 -1c3 -3 8 -4 14 -4c28 0 83 32 108 58c1 17 8 42 27 42c25 0 74 -31 74 -49
c0 -5 -4 -13 -7 -13zM202 619c26 0 50 -4 71 -9c47 66 110 118 170 118c120 0 199 -77 199 -147c0 -219 -271 -682 -435 -682c-95 0 -207 112 -207 211c0 246 110 509 202 509zM385 535c0 -6 -10 -32 -29 -32c-12 0 -24 -6 -35 -15c-36 -65 -63 -146 -63 -236
c0 -27 29 -25 29 -28v-1c0 -4 0 -11 -18 -11c-21 0 -42 23 -57 63c-28 -90 -46 -187 -46 -248c0 -49 11 -69 28 -69c80 0 302 441 302 659c0 16 -7 23 -19 23c-24 0 -67 -30 -108 -81c10 -10 16 -19 16 -24z" />
    <glyph glyph-name="Ocircumflex.001" horiz-adv-x="576" 
d="M451 558c0 -20 -10 -24 -22 -24c-6 0 -12 1 -18 1c-54 0 -266 -284 -266 -526c0 -25 7 -36 19 -36c70 0 311 386 311 600c0 132 -103 147 -118 147c-16 0 -16 -15 -38 -15c-5 0 -10 2 -10 11c0 15 28 21 61 21c31 0 66 -5 84 -12c73 -28 169 -96 169 -171
c0 -223 -337 -635 -451 -635c-51 0 -172 76 -172 212c0 191 150 514 295 514c94 0 156 -61 156 -87zM636 841c-13 -1 -18 -26 -18 -56c0 -37 8 -80 16 -87c2 -2 2 -4 2 -5c0 -4 -5 -6 -11 -6c-20 0 -58 49 -73 99c-15 -9 -38 -12 -61 -12c-39 0 -78 10 -78 27c0 4 1 7 4 7
c1 0 2 0 3 -1c3 -3 8 -4 14 -4c28 0 83 32 108 58c1 17 8 42 27 42c25 0 74 -31 74 -49c0 -5 -4 -13 -7 -13z" />
    <glyph glyph-name="Ocircumflex.002" horiz-adv-x="798" 
d="M226 115c0 37 5 79 15 122h-19c-112 0 -222 87 -222 214c0 133 251 327 532 327c225 0 308 -143 308 -199c0 -40 -11 -88 -29 -139c13 3 25 4 37 4c50 0 94 -93 94 -104c0 -6 -4 -8 -9 -8s-11 3 -11 8c0 9 -11 41 -66 41c-18 0 -43 -6 -75 -14
c-100 -219 -300 -464 -384 -464c-51 0 -171 76 -171 212zM700 557c0 113 -48 164 -163 164c-218 0 -401 -192 -401 -339c0 -80 56 -110 105 -110h9c48 173 160 357 270 357c94 0 156 -61 156 -87c0 -20 -10 -24 -22 -24c-6 0 -12 1 -18 1c-29 0 -103 -82 -166 -195
c68 24 137 53 200 76c18 57 30 111 30 157zM390 -43c48 0 177 183 253 367c-62 -19 -132 -40 -202 -57c-40 -85 -70 -183 -70 -274c0 -25 7 -36 19 -36zM831 868c-13 -1 -18 -26 -18 -56c0 -37 8 -80 16 -87c2 -2 2 -4 2 -5c0 -4 -5 -6 -11 -6c-20 0 -58 49 -73 99
c-15 -9 -38 -12 -61 -12c-39 0 -78 10 -78 27c0 4 1 7 4 7c1 0 2 0 3 -1c3 -3 8 -4 14 -4c28 0 83 32 108 58c1 17 8 42 27 42c25 0 74 -31 74 -49c0 -5 -4 -13 -7 -13z" />
    <glyph glyph-name="Odieresis" unicode="&#xd6;" horiz-adv-x="614" 
d="M419 830c0 42 17 57 37 57c32 0 73 -36 73 -61c0 -17 -16 -13 -16 -44c0 -6 -3 -13 -20 -13c-45 0 -74 35 -74 61zM551 780c0 41 17 55 37 55c32 0 74 -36 74 -62c0 -16 -15 -24 -15 -42c0 -6 -4 -14 -20 -14c-46 0 -76 36 -76 63zM202 619c26 0 50 -4 71 -9
c47 66 110 118 170 118c120 0 199 -77 199 -147c0 -219 -271 -682 -435 -682c-95 0 -207 112 -207 211c0 246 110 509 202 509zM385 535c0 -6 -10 -32 -29 -32c-12 0 -24 -6 -35 -15c-36 -65 -63 -146 -63 -236c0 -27 29 -25 29 -28v-1c0 -4 0 -11 -18 -11
c-21 0 -42 23 -57 63c-28 -90 -46 -187 -46 -248c0 -49 11 -69 28 -69c80 0 302 441 302 659c0 16 -7 23 -19 23c-24 0 -67 -30 -108 -81c10 -10 16 -19 16 -24z" />
    <glyph glyph-name="Odieresis.001" horiz-adv-x="576" 
d="M451 558c0 -20 -10 -24 -22 -24c-6 0 -12 1 -18 1c-54 0 -266 -284 -266 -526c0 -25 7 -36 19 -36c70 0 311 386 311 600c0 132 -103 147 -118 147c-16 0 -16 -15 -38 -15c-5 0 -10 2 -10 11c0 15 28 21 61 21c31 0 66 -5 84 -12c73 -28 169 -96 169 -171
c0 -223 -337 -635 -451 -635c-51 0 -172 76 -172 212c0 191 150 514 295 514c94 0 156 -61 156 -87zM419 830c0 42 17 57 37 57c32 0 73 -36 73 -61c0 -17 -16 -13 -16 -44c0 -6 -3 -13 -20 -13c-45 0 -74 35 -74 61zM551 780c0 41 17 55 37 55c32 0 74 -36 74 -62
c0 -16 -15 -24 -15 -42c0 -6 -4 -14 -20 -14c-46 0 -76 36 -76 63z" />
    <glyph glyph-name="Odieresis.002" horiz-adv-x="798" 
d="M226 115c0 37 5 79 15 122h-19c-112 0 -222 87 -222 214c0 133 251 327 532 327c225 0 308 -143 308 -199c0 -40 -11 -88 -29 -139c13 3 25 4 37 4c50 0 94 -93 94 -104c0 -6 -4 -8 -9 -8s-11 3 -11 8c0 9 -11 41 -66 41c-18 0 -43 -6 -75 -14
c-100 -219 -300 -464 -384 -464c-51 0 -171 76 -171 212zM700 557c0 113 -48 164 -163 164c-218 0 -401 -192 -401 -339c0 -80 56 -110 105 -110h9c48 173 160 357 270 357c94 0 156 -61 156 -87c0 -20 -10 -24 -22 -24c-6 0 -12 1 -18 1c-29 0 -103 -82 -166 -195
c68 24 137 53 200 76c18 57 30 111 30 157zM390 -43c48 0 177 183 253 367c-62 -19 -132 -40 -202 -57c-40 -85 -70 -183 -70 -274c0 -25 7 -36 19 -36zM639 841c0 42 17 57 37 57c32 0 73 -36 73 -61c0 -17 -16 -13 -16 -44c0 -6 -3 -13 -20 -13c-45 0 -74 35 -74 61z
M771 791c0 41 17 55 37 55c32 0 74 -36 74 -62c0 -16 -15 -24 -15 -42c0 -6 -4 -14 -20 -14c-46 0 -76 36 -76 63z" />
    <glyph glyph-name="Ograve" unicode="&#xd2;" horiz-adv-x="614" 
d="M505 890c14 0 21 -9 21 -14c0 -4 -4 -7 -4 -11c0 -30 78 -108 96 -108c3 0 5 -1 5 -4c0 -5 -6 -13 -16 -13c-37 0 -157 32 -157 84c0 15 30 66 55 66zM202 619c26 0 50 -4 71 -9c47 66 110 118 170 118c120 0 199 -77 199 -147c0 -219 -271 -682 -435 -682
c-95 0 -207 112 -207 211c0 246 110 509 202 509zM385 535c0 -6 -10 -32 -29 -32c-12 0 -24 -6 -35 -15c-36 -65 -63 -146 -63 -236c0 -27 29 -25 29 -28v-1c0 -4 0 -11 -18 -11c-21 0 -42 23 -57 63c-28 -90 -46 -187 -46 -248c0 -49 11 -69 28 -69c80 0 302 441 302 659
c0 16 -7 23 -19 23c-24 0 -67 -30 -108 -81c10 -10 16 -19 16 -24z" />
    <glyph glyph-name="Ograve.001" horiz-adv-x="576" 
d="M451 558c0 -20 -10 -24 -22 -24c-6 0 -12 1 -18 1c-54 0 -266 -284 -266 -526c0 -25 7 -36 19 -36c70 0 311 386 311 600c0 132 -103 147 -118 147c-16 0 -16 -15 -38 -15c-5 0 -10 2 -10 11c0 15 28 21 61 21c31 0 66 -5 84 -12c73 -28 169 -96 169 -171
c0 -223 -337 -635 -451 -635c-51 0 -172 76 -172 212c0 191 150 514 295 514c94 0 156 -61 156 -87zM505 890c14 0 21 -9 21 -14c0 -4 -4 -7 -4 -11c0 -30 78 -108 96 -108c3 0 5 -1 5 -4c0 -5 -6 -13 -16 -13c-37 0 -157 32 -157 84c0 15 30 66 55 66z" />
    <glyph glyph-name="Ograve.002" horiz-adv-x="798" 
d="M226 115c0 37 5 79 15 122h-19c-112 0 -222 87 -222 214c0 133 251 327 532 327c225 0 308 -143 308 -199c0 -40 -11 -88 -29 -139c13 3 25 4 37 4c50 0 94 -93 94 -104c0 -6 -4 -8 -9 -8s-11 3 -11 8c0 9 -11 41 -66 41c-18 0 -43 -6 -75 -14
c-100 -219 -300 -464 -384 -464c-51 0 -171 76 -171 212zM700 557c0 113 -48 164 -163 164c-218 0 -401 -192 -401 -339c0 -80 56 -110 105 -110h9c48 173 160 357 270 357c94 0 156 -61 156 -87c0 -20 -10 -24 -22 -24c-6 0 -12 1 -18 1c-29 0 -103 -82 -166 -195
c68 24 137 53 200 76c18 57 30 111 30 157zM390 -43c48 0 177 183 253 367c-62 -19 -132 -40 -202 -57c-40 -85 -70 -183 -70 -274c0 -25 7 -36 19 -36zM733 908c14 0 21 -9 21 -14c0 -4 -4 -7 -4 -11c0 -30 78 -108 96 -108c3 0 5 -1 5 -4c0 -5 -6 -13 -16 -13
c-37 0 -157 32 -157 84c0 15 30 66 55 66z" />
    <glyph glyph-name="Ohungarumlaut" unicode="&#x150;" horiz-adv-x="614" 
d="M662 777c0 -14 -7 -18 -12 -18c-3 0 -6 1 -6 2c2 2 3 4 3 5c0 4 -6 7 -9 7c-35 0 -77 -40 -84 -40c-8 0 -10 6 -10 8c0 22 32 95 66 95c28 0 52 -31 52 -59zM565 829c0 -7 -4 -12 -7 -12c-2 0 -5 4 -16 4c-35 0 -78 -35 -85 -35c-4 0 -7 2 -7 5c0 22 35 95 69 95
c9 0 46 -4 46 -57zM202 619c26 0 50 -4 71 -9c47 66 110 118 170 118c120 0 199 -77 199 -147c0 -219 -271 -682 -435 -682c-95 0 -207 112 -207 211c0 246 110 509 202 509zM385 535c0 -6 -10 -32 -29 -32c-12 0 -24 -6 -35 -15c-36 -65 -63 -146 -63 -236
c0 -27 29 -25 29 -28v-1c0 -4 0 -11 -18 -11c-21 0 -42 23 -57 63c-28 -90 -46 -187 -46 -248c0 -49 11 -69 28 -69c80 0 302 441 302 659c0 16 -7 23 -19 23c-24 0 -67 -30 -108 -81c10 -10 16 -19 16 -24z" />
    <glyph glyph-name="Ohungarumlaut.001" horiz-adv-x="576" 
d="M662 762c0 -14 -7 -18 -12 -18c-3 0 -6 1 -6 2c2 2 3 4 3 5c0 4 -6 7 -9 7c-35 0 -77 -40 -84 -40c-8 0 -10 6 -10 8c0 22 32 95 66 95c28 0 52 -31 52 -59zM565 814c0 -7 -4 -12 -7 -12c-2 0 -5 4 -16 4c-35 0 -78 -35 -85 -35c-4 0 -7 2 -7 5c0 22 35 95 69 95
c9 0 46 -4 46 -57zM451 558c0 -20 -10 -24 -22 -24c-6 0 -12 1 -18 1c-54 0 -266 -284 -266 -526c0 -25 7 -36 19 -36c70 0 311 386 311 600c0 132 -103 147 -118 147c-16 0 -16 -15 -38 -15c-5 0 -10 2 -10 11c0 15 28 21 61 21c31 0 66 -5 84 -12c73 -28 169 -96 169 -171
c0 -223 -337 -635 -451 -635c-51 0 -172 76 -172 212c0 191 150 514 295 514c94 0 156 -61 156 -87z" />
    <glyph glyph-name="Omacron" unicode="&#x14c;" horiz-adv-x="614" 
d="M695 777v-4c-2 -16 -10 -38 -27 -38c-42 0 -206 52 -280 52c-14 0 -24 -2 -30 -6c-1 -1 -2 -1 -3 -1c-4 0 -7 5 -7 11c1 7 4 26 20 36c4 3 12 4 23 4c77 0 276 -51 287 -51c6 0 11 2 14 2c2 0 3 -1 3 -5zM202 619c26 0 50 -4 71 -9c47 66 110 118 170 118
c120 0 199 -77 199 -147c0 -219 -271 -682 -435 -682c-95 0 -207 112 -207 211c0 246 110 509 202 509zM385 535c0 -6 -10 -32 -29 -32c-12 0 -24 -6 -35 -15c-36 -65 -63 -146 -63 -236c0 -27 29 -25 29 -28v-1c0 -4 0 -11 -18 -11c-21 0 -42 23 -57 63
c-28 -90 -46 -187 -46 -248c0 -49 11 -69 28 -69c80 0 302 441 302 659c0 16 -7 23 -19 23c-24 0 -67 -30 -108 -81c10 -10 16 -19 16 -24z" />
    <glyph glyph-name="Omacron.001" horiz-adv-x="576" 
d="M695 777v-4c-2 -16 -10 -38 -27 -38c-42 0 -206 52 -280 52c-14 0 -24 -2 -30 -6c-1 -1 -2 -1 -3 -1c-4 0 -7 5 -7 11c1 7 4 26 20 36c4 3 12 4 23 4c77 0 276 -51 287 -51c6 0 11 2 14 2c2 0 3 -1 3 -5zM451 558c0 -20 -10 -24 -22 -24c-6 0 -12 1 -18 1
c-54 0 -266 -284 -266 -526c0 -25 7 -36 19 -36c70 0 311 386 311 600c0 132 -103 147 -118 147c-16 0 -16 -15 -38 -15c-5 0 -10 2 -10 11c0 15 28 21 61 21c31 0 66 -5 84 -12c73 -28 169 -96 169 -171c0 -223 -337 -635 -451 -635c-51 0 -172 76 -172 212
c0 191 150 514 295 514c94 0 156 -61 156 -87z" />
    <glyph glyph-name="Oslash" unicode="&#xd8;" horiz-adv-x="614" 
d="M247 219c-13 10 -25 29 -35 56c-21 -65 -35 -134 -42 -190c23 42 49 88 77 134zM385 535c0 -6 -10 -32 -29 -32c-12 0 -24 -6 -35 -15c-36 -65 -63 -146 -63 -236c0 -5 0 -9 2 -12c80 132 169 269 235 367c0 3 1 7 1 10c0 16 -7 23 -19 23c-24 0 -67 -30 -108 -81
c10 -10 16 -19 16 -24zM166 21c1 -44 11 -63 28 -63c67 0 236 313 287 542c-103 -144 -236 -339 -315 -479zM202 619c26 0 50 -4 71 -9c47 66 110 118 170 118c45 0 85 -11 116 -29c16 23 28 39 32 43c7 7 8 12 8 16v5c0 2 1 2 4 2c8 0 30 -23 30 -48c0 -10 -3 -19 -12 -28
c-3 -3 -9 -11 -18 -23c25 -25 39 -56 39 -85c0 -219 -271 -682 -435 -682c-30 0 -61 11 -90 29c-11 -27 -18 -48 -18 -62c0 -11 4 -17 14 -17c3 0 5 -3 5 -7c0 -6 -5 -13 -16 -13c-19 0 -27 13 -27 30c0 19 8 47 23 82c-55 42 -98 108 -98 169c0 246 110 509 202 509z" />
    <glyph glyph-name="Otilde" unicode="&#xd5;" horiz-adv-x="614" 
d="M689 770c0 -15 -16 -29 -22 -29c-5 0 -9 2 -9 5c0 1 0 3 2 5c4 4 6 7 6 10c0 15 -58 18 -205 18c-53 0 -61 50 -61 74c0 7 1 13 1 13c2 2 5 4 7 4c3 0 6 -3 6 -11c0 -38 275 -10 275 -89zM202 619c26 0 50 -4 71 -9c47 66 110 118 170 118c120 0 199 -77 199 -147
c0 -219 -271 -682 -435 -682c-95 0 -207 112 -207 211c0 246 110 509 202 509zM385 535c0 -6 -10 -32 -29 -32c-12 0 -24 -6 -35 -15c-36 -65 -63 -146 -63 -236c0 -27 29 -25 29 -28v-1c0 -4 0 -11 -18 -11c-21 0 -42 23 -57 63c-28 -90 -46 -187 -46 -248
c0 -49 11 -69 28 -69c80 0 302 441 302 659c0 16 -7 23 -19 23c-24 0 -67 -30 -108 -81c10 -10 16 -19 16 -24z" />
    <glyph glyph-name="Otilde.001" horiz-adv-x="576" 
d="M451 558c0 -20 -10 -24 -22 -24c-6 0 -12 1 -18 1c-54 0 -266 -284 -266 -526c0 -25 7 -36 19 -36c70 0 311 386 311 600c0 132 -103 147 -118 147c-16 0 -16 -15 -38 -15c-5 0 -10 2 -10 11c0 15 28 21 61 21c31 0 66 -5 84 -12c73 -28 169 -96 169 -171
c0 -223 -337 -635 -451 -635c-51 0 -172 76 -172 212c0 191 150 514 295 514c94 0 156 -61 156 -87zM682 756c0 -15 -16 -29 -22 -29c-5 0 -9 2 -9 5c0 1 0 3 2 5c4 4 6 7 6 10c0 15 -58 18 -205 18c-53 0 -61 50 -61 74c0 7 1 13 1 13c2 2 5 4 7 4c3 0 6 -3 6 -11
c0 -38 275 -10 275 -89z" />
    <glyph glyph-name="Otilde.002" horiz-adv-x="798" 
d="M226 115c0 37 5 79 15 122h-19c-112 0 -222 87 -222 214c0 133 251 327 532 327c225 0 308 -143 308 -199c0 -40 -11 -88 -29 -139c13 3 25 4 37 4c50 0 94 -93 94 -104c0 -6 -4 -8 -9 -8s-11 3 -11 8c0 9 -11 41 -66 41c-18 0 -43 -6 -75 -14
c-100 -219 -300 -464 -384 -464c-51 0 -171 76 -171 212zM700 557c0 113 -48 164 -163 164c-218 0 -401 -192 -401 -339c0 -80 56 -110 105 -110h9c48 173 160 357 270 357c94 0 156 -61 156 -87c0 -20 -10 -24 -22 -24c-6 0 -12 1 -18 1c-29 0 -103 -82 -166 -195
c68 24 137 53 200 76c18 57 30 111 30 157zM390 -43c48 0 177 183 253 367c-62 -19 -132 -40 -202 -57c-40 -85 -70 -183 -70 -274c0 -25 7 -36 19 -36zM895 788c0 -15 -16 -29 -22 -29c-5 0 -9 2 -9 5c0 1 0 3 2 5c4 4 6 7 6 10c0 15 -58 18 -205 18c-53 0 -61 50 -61 74
c0 7 1 13 1 13c2 2 5 4 7 4c3 0 6 -3 6 -11c0 -38 275 -10 275 -89z" />
    <glyph glyph-name="P" unicode="P" horiz-adv-x="707" 
d="M313 720c93 0 140 -72 140 -90c0 -25 -9 -55 -24 -89c85 114 173 197 234 197c45 0 145 -30 145 -89c0 -97 -98 -475 -378 -475c-47 0 -124 33 -142 54c-51 -102 -87 -199 -87 -261c0 -12 -14 -31 -29 -31c-17 0 -172 53 -172 158c0 116 297 492 297 595c0 10 0 31 16 31
zM336 250c201 0 306 284 306 391c0 25 -6 40 -17 40c-51 0 -206 -206 -313 -407v-6c0 -9 3 -18 24 -18z" />
    <glyph glyph-name="P.001" horiz-adv-x="702" 
d="M1 478v1c1 36 189 266 595 266c95 0 207 -70 207 -179v-4c-3 -139 -204 -323 -376 -323c-27 0 -49 10 -70 25c-60 -133 -123 -275 -124 -306c0 -10 -14 -16 -30 -16c-13 0 -26 3 -34 12c-11 12 -81 78 -81 125v1c1 46 202 406 203 470v5c-93 -58 -159 -133 -160 -207v-4
c0 -26 11 -12 11 -23c0 -6 -5 -15 -19 -15c-36 1 -122 99 -122 172zM458 507v-1c-1 -12 -19 -57 -45 -117c177 31 301 169 301 239c0 24 -15 41 -48 41c-105 0 -217 -31 -313 -79c52 -15 105 -60 105 -83z" />
    <glyph glyph-name="P.002" horiz-adv-x="960" 
d="M716 498c-1 -11 -18 -54 -43 -111c141 37 287 160 287 235c0 35 -32 59 -111 59c-341 0 -712 -187 -712 -418c0 -16 3 -20 6 -20s6 3 8 3c1 0 1 -1 1 -2c0 -8 -2 -23 -15 -23c-41 0 -137 102 -137 149c0 189 466 377 786 377c197 0 275 -94 275 -192
c0 -136 -205 -324 -376 -324h-5c-22 0 -44 11 -65 26c-60 -133 -124 -276 -124 -307c0 -10 -14 -16 -29 -16c-13 0 -27 4 -35 13l-2 2c-16 15 -79 78 -79 122v1c1 47 202 406 203 470c1 36 21 46 30 46c60 -1 137 -61 137 -90z" />
    <glyph glyph-name="Q" unicode="Q" horiz-adv-x="638" 
d="M703 -272c-112 0 -236 150 -341 253c-63 -59 -125 -95 -173 -95c-95 0 -189 111 -189 210c0 242 151 510 243 510c12 0 24 -1 36 -3c64 74 142 125 201 125c120 0 188 -76 188 -147c0 -167 -110 -378 -233 -524c131 -91 286 -226 357 -226c62 0 102 64 102 81
c0 5 2 8 6 8c7 0 19 -12 19 -34c0 -47 -169 -158 -216 -158zM419 522c0 -7 -12 -32 -31 -32c-76 0 -182 -227 -217 -387c27 21 61 36 100 36c24 0 57 -15 95 -37c83 138 159 337 159 515c0 32 -12 46 -32 46c-32 0 -81 -35 -130 -86c36 -20 56 -45 56 -55zM220 74
c-25 0 -48 -16 -60 -37c-1 -9 -1 -17 -1 -24c0 -56 15 -81 39 -81c29 0 71 35 115 93c-35 29 -66 49 -93 49z" />
    <glyph glyph-name="Q.001" horiz-adv-x="624" 
d="M48 -92c0 9 14 25 39 42c-50 41 -87 107 -87 169c0 242 150 510 243 510c12 0 24 -1 35 -3c65 75 143 126 202 126c120 0 187 -77 187 -148c0 -211 -174 -493 -331 -623c202 -83 431 -448 726 -448c267 0 311 174 311 192c0 8 4 11 9 11c11 0 27 -15 27 -37
c0 -18 -139 -268 -509 -268c-327 0 -571 478 -757 478c-41 0 -59 -29 -69 -29c-11 0 -26 9 -26 28zM419 545c0 -6 -12 -32 -32 -32c-59 0 -135 -123 -183 -249c-24 -61 -45 -129 -45 -194c0 -46 10 -71 27 -80c16 4 33 6 50 7c107 61 288 368 288 644c0 32 -12 46 -32 46
c-31 0 -81 -35 -130 -87c38 -20 57 -46 57 -55z" />
    <glyph glyph-name="R" unicode="R" horiz-adv-x="728" 
d="M330 281c-1 1 -1 3 -1 4c0 12 13 32 32 32c182 0 282 249 282 344c0 22 -6 36 -17 36c-81 0 -424 -520 -424 -713c0 -12 -14 -31 -29 -31c-17 0 -173 52 -173 157c0 116 298 493 298 595c0 11 0 32 16 32c93 0 139 -72 139 -90c0 -24 -8 -52 -21 -83
c83 111 168 191 232 191c44 0 144 -30 144 -89c0 -89 -52 -371 -260 -417c34 -106 77 -326 217 -326c29 0 16 39 27 39c6 0 24 -7 24 -25c0 -30 -50 -74 -149 -74c-235 0 -337 375 -337 418z" />
    <glyph glyph-name="R.001" horiz-adv-x="736" 
d="M0 606c0 64 287 158 522 158c149 0 299 -69 299 -192c0 -105 -151 -232 -301 -299c72 -119 138 -290 203 -290c7 0 11 2 15 2c5 0 10 -4 10 -10c0 -28 -92 -103 -170 -103c-24 0 -48 8 -66 26c-56 56 -94 212 -150 328c-9 -1 -18 -1 -26 -1c-9 0 -17 2 -24 5
c-49 -108 -91 -207 -91 -234c0 -17 -24 -33 -38 -33c-27 0 -125 92 -125 148c0 71 161 368 218 496c-85 -39 -147 -86 -147 -130c0 -29 11 -15 11 -24c0 -6 -4 -15 -19 -15c-36 0 -121 109 -121 168zM462 561c0 -9 -36 -85 -79 -178c161 30 341 173 341 245
c0 42 -47 59 -115 59c-58 0 -131 -13 -203 -33c32 -32 56 -73 56 -93z" />
    <glyph glyph-name="R.002" horiz-adv-x="1008" 
d="M1054 565c0 -109 -163 -242 -318 -307c199 -196 477 -555 707 -555c206 0 280 215 280 280c0 11 3 15 7 15c10 0 28 -26 28 -49c0 -99 -168 -359 -462 -359c-285 0 -585 496 -758 616c-45 -101 -83 -192 -83 -217c0 -17 -25 -33 -39 -33c-26 0 -124 92 -124 148
c0 78 197 431 232 529c-216 -71 -387 -207 -387 -364c0 -16 3 -20 6 -20s7 3 8 3s1 -2 1 -4c0 -6 -2 -21 -15 -21c-41 0 -137 102 -137 149c0 189 466 377 786 377c196 0 268 -89 268 -188zM696 554c0 -9 -36 -85 -79 -178c153 32 340 175 340 256c0 33 -31 55 -108 55
c-75 0 -151 -9 -224 -26c39 -32 71 -84 71 -107z" />
    <glyph glyph-name="Racute" unicode="&#x154;" horiz-adv-x="728" 
d="M671 925c26 0 55 -51 55 -66c0 -52 -119 -84 -157 -84c-9 0 -15 7 -15 12c0 3 2 5 5 5c18 0 96 78 96 108c0 4 -4 7 -4 11c0 5 7 14 20 14zM330 281c-1 1 -1 3 -1 4c0 12 13 32 32 32c182 0 282 249 282 344c0 22 -6 36 -17 36c-81 0 -424 -520 -424 -713
c0 -12 -14 -31 -29 -31c-17 0 -173 52 -173 157c0 116 298 493 298 595c0 11 0 32 16 32c93 0 139 -72 139 -90c0 -24 -8 -52 -21 -83c83 111 168 191 232 191c44 0 144 -30 144 -89c0 -89 -52 -371 -260 -417c34 -106 77 -326 217 -326c29 0 16 39 27 39c6 0 24 -7 24 -25
c0 -30 -50 -74 -149 -74c-235 0 -337 375 -337 418z" />
    <glyph glyph-name="Racute.001" horiz-adv-x="736" 
d="M671 938c26 0 55 -51 55 -66c0 -52 -119 -84 -157 -84c-9 0 -15 7 -15 12c0 3 2 5 5 5c18 0 96 78 96 108c0 4 -4 7 -4 11c0 5 7 14 20 14zM0 606c0 64 287 158 522 158c149 0 299 -69 299 -192c0 -105 -151 -232 -301 -299c72 -119 138 -290 203 -290c7 0 11 2 15 2
c5 0 10 -4 10 -10c0 -28 -92 -103 -170 -103c-24 0 -48 8 -66 26c-56 56 -94 212 -150 328c-9 -1 -18 -1 -26 -1c-9 0 -17 2 -24 5c-49 -108 -91 -207 -91 -234c0 -17 -24 -33 -38 -33c-27 0 -125 92 -125 148c0 71 161 368 218 496c-85 -39 -147 -86 -147 -130
c0 -29 11 -15 11 -24c0 -6 -4 -15 -19 -15c-36 0 -121 109 -121 168zM462 561c0 -9 -36 -85 -79 -178c161 30 341 173 341 245c0 42 -47 59 -115 59c-58 0 -131 -13 -203 -33c32 -32 56 -73 56 -93z" />
    <glyph glyph-name="Rcaron" unicode="&#x158;" horiz-adv-x="728" 
d="M475 807c12 8 14 13 14 23c0 24 0 96 -17 111c-2 2 -2 4 -2 5c0 4 5 6 11 6c20 0 58 -49 73 -99c15 9 38 12 61 12c39 0 78 -10 78 -27c0 -4 -1 -7 -4 -7c-1 0 -2 0 -3 1c-3 3 -8 4 -14 4c-28 0 -83 -32 -108 -58v-6c0 -16 -7 -21 -19 -21c-27 0 -73 33 -73 50
c0 3 1 4 3 6zM330 281c-1 1 -1 3 -1 4c0 12 13 32 32 32c182 0 282 249 282 344c0 22 -6 36 -17 36c-81 0 -424 -520 -424 -713c0 -12 -14 -31 -29 -31c-17 0 -173 52 -173 157c0 116 298 493 298 595c0 11 0 32 16 32c93 0 139 -72 139 -90c0 -24 -8 -52 -21 -83
c83 111 168 191 232 191c44 0 144 -30 144 -89c0 -89 -52 -371 -260 -417c34 -106 77 -326 217 -326c29 0 16 39 27 39c6 0 24 -7 24 -25c0 -30 -50 -74 -149 -74c-235 0 -337 375 -337 418z" />
    <glyph glyph-name="Rcaron.001" horiz-adv-x="736" 
d="M0 606c0 64 287 158 522 158c149 0 299 -69 299 -192c0 -105 -151 -232 -301 -299c72 -119 138 -290 203 -290c7 0 11 2 15 2c5 0 10 -4 10 -10c0 -28 -92 -103 -170 -103c-24 0 -48 8 -66 26c-56 56 -94 212 -150 328c-9 -1 -18 -1 -26 -1c-9 0 -17 2 -24 5
c-49 -108 -91 -207 -91 -234c0 -17 -24 -33 -38 -33c-27 0 -125 92 -125 148c0 71 161 368 218 496c-85 -39 -147 -86 -147 -130c0 -29 11 -15 11 -24c0 -6 -4 -15 -19 -15c-36 0 -121 109 -121 168zM462 561c0 -9 -36 -85 -79 -178c161 30 341 173 341 245
c0 42 -47 59 -115 59c-58 0 -131 -13 -203 -33c32 -32 56 -73 56 -93zM511 840c12 8 14 13 14 23c0 24 0 96 -17 111c-2 2 -2 4 -2 5c0 4 5 6 11 6c20 0 58 -49 73 -99c15 9 38 12 61 12c39 0 78 -10 78 -27c0 -4 -1 -7 -4 -7c-1 0 -2 0 -3 1c-3 3 -8 4 -14 4
c-28 0 -83 -32 -108 -58v-6c0 -16 -7 -21 -19 -21c-27 0 -73 33 -73 50c0 3 1 4 3 6z" />
    <glyph glyph-name="Rcommaaccent" unicode="&#x156;" horiz-adv-x="728" 
d="M293 17c42 0 88 -60 88 -95c0 -66 -141 -191 -188 -191c-9 0 -15 6 -15 10c0 2 2 3 4 3c24 0 94 149 94 224c0 7 -1 23 -7 29c-1 1 -1 3 -1 4c0 6 9 16 25 16zM330 281c-1 1 -1 3 -1 4c0 12 13 32 32 32c182 0 282 249 282 344c0 22 -6 36 -17 36
c-81 0 -424 -520 -424 -713c0 -12 -14 -31 -29 -31c-17 0 -173 52 -173 157c0 116 298 493 298 595c0 11 0 32 16 32c93 0 139 -72 139 -90c0 -24 -8 -52 -21 -83c83 111 168 191 232 191c44 0 144 -30 144 -89c0 -89 -52 -371 -260 -417c34 -106 77 -326 217 -326
c29 0 16 39 27 39c6 0 24 -7 24 -25c0 -30 -50 -74 -149 -74c-235 0 -337 375 -337 418z" />
    <glyph glyph-name="Rcommaaccent.001" horiz-adv-x="736" 
d="M0 606c0 64 287 158 522 158c149 0 299 -69 299 -192c0 -105 -151 -232 -301 -299c72 -119 138 -290 203 -290c7 0 11 2 15 2c5 0 10 -4 10 -10c0 -28 -92 -103 -170 -103c-24 0 -48 8 -66 26c-56 56 -94 212 -150 328c-9 -1 -18 -1 -26 -1c-9 0 -17 2 -24 5
c-49 -108 -91 -207 -91 -234c0 -17 -24 -33 -38 -33c-27 0 -125 92 -125 148c0 71 161 368 218 496c-85 -39 -147 -86 -147 -130c0 -29 11 -15 11 -24c0 -6 -4 -15 -19 -15c-36 0 -121 109 -121 168zM462 561c0 -9 -36 -85 -79 -178c161 30 341 173 341 245
c0 42 -47 59 -115 59c-58 0 -131 -13 -203 -33c32 -32 56 -73 56 -93zM293 17c42 0 88 -60 88 -95c0 -66 -141 -191 -188 -191c-9 0 -15 6 -15 10c0 2 2 3 4 3c24 0 94 149 94 224c0 7 -1 23 -7 29c-1 1 -1 3 -1 4c0 6 9 16 25 16z" />
    <glyph glyph-name="S" unicode="S" horiz-adv-x="606" 
d="M433 359c-22 0 -43 19 -43 30c0 5 4 8 12 8c28 0 167 176 167 229c0 7 -6 17 -29 17c-97 0 -397 -274 -397 -387c0 -4 3 -6 8 -6c31 0 141 63 213 63c88 0 176 -91 176 -142c0 -114 -149 -282 -235 -282c-78 0 -251 114 -251 183c0 16 29 39 37 39s15 -3 15 -11
c0 -10 -21 -19 -21 -32c0 -24 2 -66 94 -66c102 0 249 170 249 224c0 10 -6 16 -17 16c-49 0 -190 -87 -253 -87c-47 0 -158 73 -158 182c0 167 275 394 392 394c116 0 313 -63 313 -161c0 -99 -232 -211 -272 -211z" />
    <glyph glyph-name="S.001" horiz-adv-x="792" 
d="M0 1c0 21 3 26 9 26c8 0 20 -9 36 -9c49 0 122 35 202 90c-17 33 -26 66 -26 93c0 25 29 50 47 50c8 0 13 -5 13 -16c0 -12 -18 -4 -18 -21c0 -31 10 -56 26 -77c79 58 163 131 237 202c-30 72 -67 145 -67 231c0 167 182 288 248 288s196 -53 196 -169
c0 -57 -118 -184 -268 -315c26 -89 96 -172 96 -314c0 -91 -117 -158 -225 -158c-93 0 -195 94 -248 186c-101 -65 -186 -107 -230 -107c-12 0 -28 8 -28 20zM542 296c-78 -64 -160 -125 -236 -177c31 -28 76 -42 120 -42c70 0 135 38 135 121c0 33 -8 66 -19 98zM753 616
l-1 1c-10 0 -123 -84 -126 -176c76 81 127 150 127 175z" />
    <glyph glyph-name="S.002" horiz-adv-x="652" 
d="M179 582c0 85 136 171 254 171c55 0 110 -34 138 -76c27 34 56 60 80 60c17 0 39 -10 58 -29c20 -20 37 -41 37 -58c0 -8 -3 -14 -6 -14c-61 0 -178 -105 -178 -169c0 -6 -6 -8 -10 -8c-26 0 -56 27 -56 54c0 24 13 61 32 97c-16 5 -35 7 -57 7c-74 0 -166 -26 -166 -81
c0 -64 306 -229 306 -378c0 -139 -149 -188 -266 -188c-160 0 -224 55 -270 119c-62 85 -75 185 -75 196c0 19 39 46 53 46c3 0 5 -2 5 -5c0 -8 -18 -7 -18 -41c0 -35 75 -125 258 -125c145 0 196 32 196 53c0 99 -315 230 -315 369z" />
    <glyph glyph-name="Sacute" unicode="&#x15a;" horiz-adv-x="606" 
d="M597 896c26 0 55 -51 55 -66c0 -52 -119 -84 -157 -84c-9 0 -15 7 -15 12c0 3 2 5 5 5c18 0 96 78 96 108c0 4 -4 7 -4 11c0 5 7 14 20 14zM433 359c-22 0 -43 19 -43 30c0 5 4 8 12 8c28 0 167 176 167 229c0 7 -6 17 -29 17c-97 0 -397 -274 -397 -387c0 -4 3 -6 8 -6
c31 0 141 63 213 63c88 0 176 -91 176 -142c0 -114 -149 -282 -235 -282c-78 0 -251 114 -251 183c0 16 29 39 37 39s15 -3 15 -11c0 -10 -21 -19 -21 -32c0 -24 2 -66 94 -66c102 0 249 170 249 224c0 10 -6 16 -17 16c-49 0 -190 -87 -253 -87c-47 0 -158 73 -158 182
c0 167 275 394 392 394c116 0 313 -63 313 -161c0 -99 -232 -211 -272 -211z" />
    <glyph glyph-name="Sacute.001" horiz-adv-x="792" 
d="M875 1029c26 0 55 -51 55 -66c0 -52 -119 -84 -157 -84c-9 0 -15 7 -15 12c0 3 2 5 5 5c18 0 96 78 96 108c0 4 -4 7 -4 11c0 5 7 14 20 14zM0 1c0 21 3 26 9 26c8 0 20 -9 36 -9c49 0 122 35 202 90c-17 33 -26 66 -26 93c0 25 29 50 47 50c8 0 13 -5 13 -16
c0 -12 -18 -4 -18 -21c0 -31 10 -56 26 -77c79 58 163 131 237 202c-30 72 -67 145 -67 231c0 167 182 288 248 288s196 -53 196 -169c0 -57 -118 -184 -268 -315c26 -89 96 -172 96 -314c0 -91 -117 -158 -225 -158c-93 0 -195 94 -248 186c-101 -65 -186 -107 -230 -107
c-12 0 -28 8 -28 20zM542 296c-78 -64 -160 -125 -236 -177c31 -28 76 -42 120 -42c70 0 135 38 135 121c0 33 -8 66 -19 98zM753 616l-1 1c-10 0 -123 -84 -126 -176c76 81 127 150 127 175z" />
    <glyph glyph-name="Scaron" unicode="&#x160;" horiz-adv-x="606" 
d="M534 778c12 8 14 13 14 23c0 24 0 96 -17 111c-2 2 -2 4 -2 5c0 4 5 6 11 6c20 0 58 -49 73 -99c15 9 38 12 61 12c39 0 78 -10 78 -27c0 -4 -1 -7 -4 -7c-1 0 -2 0 -3 1c-3 3 -8 4 -14 4c-28 0 -83 -32 -108 -58v-6c0 -16 -7 -21 -19 -21c-27 0 -73 33 -73 50
c0 3 1 4 3 6zM433 359c-22 0 -43 19 -43 30c0 5 4 8 12 8c28 0 167 176 167 229c0 7 -6 17 -29 17c-97 0 -397 -274 -397 -387c0 -4 3 -6 8 -6c31 0 141 63 213 63c88 0 176 -91 176 -142c0 -114 -149 -282 -235 -282c-78 0 -251 114 -251 183c0 16 29 39 37 39
s15 -3 15 -11c0 -10 -21 -19 -21 -32c0 -24 2 -66 94 -66c102 0 249 170 249 224c0 10 -6 16 -17 16c-49 0 -190 -87 -253 -87c-47 0 -158 73 -158 182c0 167 275 394 392 394c116 0 313 -63 313 -161c0 -99 -232 -211 -272 -211z" />
    <glyph glyph-name="Scaron.001" horiz-adv-x="792" 
d="M790 897c12 8 14 13 14 23c0 24 0 96 -17 111c-2 2 -2 4 -2 5c0 4 5 6 11 6c20 0 58 -49 73 -99c15 9 38 12 61 12c39 0 78 -10 78 -27c0 -4 -1 -7 -4 -7c-1 0 -2 0 -3 1c-3 3 -8 4 -14 4c-28 0 -83 -32 -108 -58v-6c0 -16 -7 -21 -19 -21c-27 0 -73 33 -73 50
c0 3 1 4 3 6zM0 1c0 21 3 26 9 26c8 0 20 -9 36 -9c49 0 122 35 202 90c-17 33 -26 66 -26 93c0 25 29 50 47 50c8 0 13 -5 13 -16c0 -12 -18 -4 -18 -21c0 -31 10 -56 26 -77c79 58 163 131 237 202c-30 72 -67 145 -67 231c0 167 182 288 248 288s196 -53 196 -169
c0 -57 -118 -184 -268 -315c26 -89 96 -172 96 -314c0 -91 -117 -158 -225 -158c-93 0 -195 94 -248 186c-101 -65 -186 -107 -230 -107c-12 0 -28 8 -28 20zM542 296c-78 -64 -160 -125 -236 -177c31 -28 76 -42 120 -42c70 0 135 38 135 121c0 33 -8 66 -19 98zM753 616
l-1 1c-10 0 -123 -84 -126 -176c76 81 127 150 127 175z" />
    <glyph glyph-name="Scaron.002" horiz-adv-x="652" 
d="M528 798c12 8 14 13 14 23c0 24 0 96 -17 111c-2 2 -2 4 -2 5c0 4 5 6 11 6c20 0 58 -49 73 -99c15 9 38 12 61 12c39 0 78 -10 78 -27c0 -4 -1 -7 -4 -7c-1 0 -2 0 -3 1c-3 3 -8 4 -14 4c-28 0 -83 -32 -108 -58v-6c0 -16 -7 -21 -19 -21c-27 0 -73 33 -73 50
c0 3 1 4 3 6zM179 582c0 85 136 171 254 171c55 0 110 -34 138 -76c27 34 56 60 80 60c17 0 39 -10 58 -29c20 -20 37 -41 37 -58c0 -8 -3 -14 -6 -14c-61 0 -178 -105 -178 -169c0 -6 -6 -8 -10 -8c-26 0 -56 27 -56 54c0 24 13 61 32 97c-16 5 -35 7 -57 7
c-74 0 -166 -26 -166 -81c0 -64 306 -229 306 -378c0 -139 -149 -188 -266 -188c-160 0 -224 55 -270 119c-62 85 -75 185 -75 196c0 19 39 46 53 46c3 0 5 -2 5 -5c0 -8 -18 -7 -18 -41c0 -35 75 -125 258 -125c145 0 196 32 196 53c0 99 -315 230 -315 369z" />
    <glyph glyph-name="Scedilla" unicode="&#x15e;" horiz-adv-x="606" 
d="M433 359c-22 0 -43 19 -43 30c0 5 4 8 12 8c28 0 167 176 167 229c0 7 -6 17 -29 17c-97 0 -397 -274 -397 -387c0 -4 3 -6 8 -6c31 0 141 63 213 63c88 0 176 -91 176 -142c0 -114 -149 -282 -235 -282c-24 0 -57 11 -91 28l-6 -22c34 -9 63 -38 63 -83
c0 -44 -46 -80 -99 -80c-31 0 -45 17 -45 20c0 5 5 10 9 10c1 0 2 0 3 -1c2 -3 -1 -18 32 -18c39 0 56 31 56 57c0 18 -9 33 -23 33c-8 0 -18 -5 -30 -17c-1 -1 -4 -2 -5 -2c-24 0 -46 30 -46 52c0 3 3 10 7 10c13 16 21 70 22 78c-54 37 -98 83 -98 118c0 16 29 39 37 39
s15 -3 15 -11c0 -10 -21 -19 -21 -32c0 -24 2 -66 94 -66c102 0 249 170 249 224c0 10 -6 16 -17 16c-49 0 -190 -87 -253 -87c-47 0 -158 73 -158 182c0 167 275 394 392 394c116 0 313 -63 313 -161c0 -99 -232 -211 -272 -211z" />
    <glyph glyph-name="Scedilla.001" horiz-adv-x="792" 
d="M0 1c0 21 3 26 9 26c8 0 20 -9 36 -9c49 0 122 35 202 90c-17 33 -26 66 -26 93c0 25 29 50 47 50c8 0 13 -5 13 -16c0 -12 -18 -4 -18 -21c0 -31 10 -56 26 -77c79 58 163 131 237 202c-30 72 -67 145 -67 231c0 167 182 288 248 288s196 -53 196 -169
c0 -57 -118 -184 -268 -315c26 -89 96 -172 96 -314c0 -91 -117 -158 -225 -158c-20 0 -40 5 -60 12l-7 -25c34 -9 63 -38 63 -83c0 -44 -46 -80 -99 -80c-31 0 -45 17 -45 20c0 5 5 10 9 10c1 0 2 0 3 -1c2 -3 -1 -18 32 -18c39 0 56 31 56 57c0 18 -9 33 -23 33
c-8 0 -18 -5 -30 -17c-1 -1 -4 -2 -5 -2c-24 0 -46 30 -46 52c0 3 3 10 7 10c13 17 21 76 22 79c-50 36 -96 87 -125 139c-101 -65 -186 -107 -230 -107c-12 0 -28 8 -28 20zM542 296c-78 -64 -160 -125 -236 -177c31 -28 76 -42 120 -42c70 0 135 38 135 121
c0 33 -8 66 -19 98zM753 616l-1 1c-10 0 -123 -84 -126 -176c76 81 127 150 127 175z" />
    <glyph glyph-name="Scircumflex" unicode="&#x15c;" horiz-adv-x="606" 
d="M636 849c-13 -1 -18 -26 -18 -56c0 -37 8 -80 16 -87c2 -2 2 -4 2 -5c0 -4 -5 -6 -11 -6c-20 0 -58 49 -73 99c-15 -9 -38 -12 -61 -12c-39 0 -78 10 -78 27c0 4 1 7 4 7c1 0 2 0 3 -1c3 -3 8 -4 14 -4c28 0 83 32 108 58c1 17 8 42 27 42c25 0 74 -31 74 -49
c0 -5 -4 -13 -7 -13zM433 359c-22 0 -43 19 -43 30c0 5 4 8 12 8c28 0 167 176 167 229c0 7 -6 17 -29 17c-97 0 -397 -274 -397 -387c0 -4 3 -6 8 -6c31 0 141 63 213 63c88 0 176 -91 176 -142c0 -114 -149 -282 -235 -282c-78 0 -251 114 -251 183c0 16 29 39 37 39
s15 -3 15 -11c0 -10 -21 -19 -21 -32c0 -24 2 -66 94 -66c102 0 249 170 249 224c0 10 -6 16 -17 16c-49 0 -190 -87 -253 -87c-47 0 -158 73 -158 182c0 167 275 394 392 394c116 0 313 -63 313 -161c0 -99 -232 -211 -272 -211z" />
    <glyph glyph-name="Scircumflex.001" horiz-adv-x="792" 
d="M941 944c-13 -1 -18 -26 -18 -56c0 -37 8 -80 16 -87c2 -2 2 -4 2 -5c0 -4 -5 -6 -11 -6c-20 0 -58 49 -73 99c-15 -9 -38 -12 -61 -12c-39 0 -78 10 -78 27c0 4 1 7 4 7c1 0 2 0 3 -1c3 -3 8 -4 14 -4c28 0 83 32 108 58c1 17 8 42 27 42c25 0 74 -31 74 -49
c0 -5 -4 -13 -7 -13zM0 1c0 21 3 26 9 26c8 0 20 -9 36 -9c49 0 122 35 202 90c-17 33 -26 66 -26 93c0 25 29 50 47 50c8 0 13 -5 13 -16c0 -12 -18 -4 -18 -21c0 -31 10 -56 26 -77c79 58 163 131 237 202c-30 72 -67 145 -67 231c0 167 182 288 248 288s196 -53 196 -169
c0 -57 -118 -184 -268 -315c26 -89 96 -172 96 -314c0 -91 -117 -158 -225 -158c-93 0 -195 94 -248 186c-101 -65 -186 -107 -230 -107c-12 0 -28 8 -28 20zM542 296c-78 -64 -160 -125 -236 -177c31 -28 76 -42 120 -42c70 0 135 38 135 121c0 33 -8 66 -19 98zM753 616
l-1 1c-10 0 -123 -84 -126 -176c76 81 127 150 127 175z" />
    <glyph glyph-name="T" unicode="T" horiz-adv-x="724" 
d="M1403 808c8 0 11 -7 11 -24c0 -57 -139 -212 -204 -212c-43 0 -190 23 -364 42c-127 -126 -361 -557 -361 -782c0 -41 1 -62 13 -74c1 -1 2 -3 2 -5c0 -10 -15 -26 -24 -26c-50 0 -133 158 -133 238c13 194 161 500 270 670c-62 4 -122 7 -180 7
c-209 0 -378 -32 -378 -142c0 -64 65 -87 143 -87c116 0 259 50 259 89c0 4 2 5 4 5c3 0 8 -4 8 -11c0 -11 -45 -165 -288 -165c-112 0 -181 151 -181 248c0 30 7 55 21 69c71 71 234 95 389 95h282c43 41 61 41 95 41c15 0 62 -16 106 -39c237 5 471 16 499 45
c12 12 4 18 11 18z" />
    <glyph glyph-name="T.002" horiz-adv-x="492" 
d="M32 814c5 5 11 7 16 7c3 0 5 -1 5 -3c0 -10 27 -14 73 -14c74 0 199 10 337 20c13 18 24 32 34 41c37 34 55 34 89 34h8c10 0 84 -26 134 -60c45 2 89 3 131 3c176 0 176 -79 176 -100c0 -12 -13 -36 -25 -36c-1 0 -2 1 -2 2c0 2 2 7 2 13c0 15 -15 37 -123 37
c-70 0 -144 -4 -218 -9c-116 -98 -372 -591 -372 -831c0 -41 1 -62 12 -74c1 -2 2 -4 2 -6c0 -10 -14 -25 -24 -25c-49 0 -132 157 -132 232v6c11 185 142 488 245 671c-127 -15 -228 -28 -262 -28c-70 0 -110 74 -110 107c0 6 1 10 4 13z" />
    <glyph glyph-name="T.003" horiz-adv-x="724" 
d="M1467 924c8 0 11 -8 11 -24c0 -57 -139 -212 -204 -212c-45 0 -204 25 -389 45c-122 -124 -357 -587 -357 -817c0 -41 1 -62 13 -74c1 -1 2 -3 2 -5c0 -10 -15 -26 -24 -26c-50 0 -133 158 -133 233v6c13 197 159 526 265 703c-53 3 -105 5 -154 5
c-209 0 -378 -33 -378 -142c0 -64 65 -87 143 -87c116 0 260 50 260 89c0 3 2 5 4 5c3 0 7 -4 7 -11c0 -11 -45 -165 -288 -165c-112 0 -180 150 -180 247c0 31 7 56 21 70c71 71 233 95 388 95h251l4 4c37 35 55 35 91 35h6c7 0 52 -15 95 -37c249 4 505 15 535 45
c12 12 4 18 11 18z" />
    <glyph glyph-name="T.004" 
d="M982 834c16 0 76 -100 76 -145c0 -54 -42 -98 -192 -98c-51 0 -138 9 -235 19c-102 -156 -325 -617 -325 -766c0 -13 -24 -21 -24 -21c-69 0 -146 120 -146 168c0 71 167 501 262 641c-43 3 -85 5 -122 5c-90 0 -153 -11 -153 -45c0 -21 23 -28 41 -28c10 0 18 2 21 5
c2 1 3 2 5 2c3 0 6 -2 6 -6c0 -2 0 -4 -2 -6c-12 -11 -70 -39 -102 -39s-92 81 -92 142c0 62 58 100 188 100c131 0 503 -11 602 -11c170 0 188 30 188 55c0 6 -1 12 -1 17c0 6 2 11 5 11z" />
    <glyph glyph-name="Tbar" unicode="&#x166;" horiz-adv-x="724" 
d="M1403 808c8 0 11 -7 11 -24c0 -57 -139 -212 -204 -212c-43 0 -190 23 -364 42c-61 -61 -147 -191 -219 -335c54 -10 97 -18 102 -18c6 0 11 2 14 2c2 0 3 -1 3 -5v-4c-2 -16 -31 -59 -48 -59c-16 0 -56 7 -104 16c-63 -137 -109 -278 -109 -379c0 -41 1 -62 13 -74
c1 -1 2 -3 2 -5c0 -10 -15 -26 -24 -26c-50 0 -133 158 -133 238c5 79 33 178 72 278c-19 3 -35 4 -47 4c-14 0 -24 -2 -30 -6c-1 -1 -2 -1 -3 -1c-4 0 -7 5 -7 11c1 7 25 47 41 57c4 3 12 4 23 4c12 0 30 -1 50 -4c52 122 116 242 171 327c-62 4 -122 7 -180 7
c-209 0 -378 -32 -378 -142c0 -64 65 -87 143 -87c116 0 259 50 259 89c0 4 2 5 4 5c3 0 8 -4 8 -11c0 -11 -45 -165 -288 -165c-112 0 -181 151 -181 248c0 30 7 55 21 69c71 71 234 95 389 95h282c43 41 61 41 95 41c15 0 62 -16 106 -39c237 5 471 16 499 45
c12 12 4 18 11 18z" />
    <glyph glyph-name="Tbar.001" horiz-adv-x="492" 
d="M32 814c5 5 11 7 16 7c3 0 5 -1 5 -3c0 -10 27 -14 73 -14c74 0 199 10 337 20c13 18 24 32 34 41c37 34 55 34 89 34h8c10 0 84 -26 134 -60c45 2 89 3 131 3c176 0 176 -79 176 -100c0 -12 -13 -36 -25 -36c-1 0 -2 1 -2 2c0 2 2 7 2 13c0 15 -15 37 -123 37
c-70 0 -144 -4 -218 -9c-71 -60 -194 -267 -280 -475c41 -7 83 -13 85 -13c6 0 11 2 14 2c2 0 3 -1 3 -5v-4c-2 -16 -31 -59 -48 -59c-5 0 -38 5 -80 12c-40 -108 -66 -211 -66 -289c0 -41 1 -62 12 -74c1 -2 2 -4 2 -6c0 -10 -14 -25 -24 -25c-49 0 -132 157 -132 232v6
c3 54 16 118 36 186c-17 3 -30 5 -37 7c-16 2 -30 3 -41 3c-14 0 -24 -2 -30 -6c-1 -1 -2 -1 -3 -1c-4 0 -7 5 -7 11c1 7 25 47 41 57c4 3 12 4 23 4c6 0 16 -1 75 -9c50 148 124 306 188 419c-127 -15 -228 -28 -262 -28c-70 0 -110 74 -110 107c0 6 1 10 4 13z" />
    <glyph glyph-name="Tcaron" unicode="&#x164;" horiz-adv-x="724" 
d="M821 867c12 8 14 13 14 23c0 24 0 96 -17 111c-2 2 -2 4 -2 5c0 4 5 6 11 6c20 0 58 -49 73 -99c15 9 38 12 61 12c39 0 78 -10 78 -27c0 -4 -1 -7 -4 -7c-1 0 -2 0 -3 1c-3 3 -8 4 -14 4c-28 0 -83 -32 -108 -58v-6c0 -16 -7 -21 -19 -21c-27 0 -73 33 -73 50
c0 3 1 4 3 6zM1403 808c8 0 11 -7 11 -24c0 -57 -139 -212 -204 -212c-43 0 -190 23 -364 42c-127 -126 -361 -557 -361 -782c0 -41 1 -62 13 -74c1 -1 2 -3 2 -5c0 -10 -15 -26 -24 -26c-50 0 -133 158 -133 238c13 194 161 500 270 670c-62 4 -122 7 -180 7
c-209 0 -378 -32 -378 -142c0 -64 65 -87 143 -87c116 0 259 50 259 89c0 4 2 5 4 5c3 0 8 -4 8 -11c0 -11 -45 -165 -288 -165c-112 0 -181 151 -181 248c0 30 7 55 21 69c71 71 234 95 389 95h282c43 41 61 41 95 41c15 0 62 -16 106 -39c237 5 471 16 499 45
c12 12 4 18 11 18z" />
    <glyph glyph-name="Tcaron.001" horiz-adv-x="492" 
d="M634 965c12 8 14 13 14 23c0 24 0 96 -17 111c-2 2 -2 4 -2 5c0 4 5 6 11 6c20 0 58 -49 73 -99c15 9 38 12 61 12c39 0 78 -10 78 -27c0 -4 -1 -7 -4 -7c-1 0 -2 0 -3 1c-3 3 -8 4 -14 4c-28 0 -83 -32 -108 -58v-6c0 -16 -7 -21 -19 -21c-27 0 -73 33 -73 50
c0 3 1 4 3 6zM32 814c5 5 11 7 16 7c3 0 5 -1 5 -3c0 -10 27 -14 73 -14c74 0 199 10 337 20c13 18 24 32 34 41c37 34 55 34 89 34h8c10 0 84 -26 134 -60c45 2 89 3 131 3c176 0 176 -79 176 -100c0 -12 -13 -36 -25 -36c-1 0 -2 1 -2 2c0 2 2 7 2 13c0 15 -15 37 -123 37
c-70 0 -144 -4 -218 -9c-116 -98 -372 -591 -372 -831c0 -41 1 -62 12 -74c1 -2 2 -4 2 -6c0 -10 -14 -25 -24 -25c-49 0 -132 157 -132 232v6c11 185 142 488 245 671c-127 -15 -228 -28 -262 -28c-70 0 -110 74 -110 107c0 6 1 10 4 13z" />
    <glyph glyph-name="Tcommaaccent" unicode="&#x162;" horiz-adv-x="724" 
d="M328 -193c42 0 88 -60 88 -95c0 -66 -141 -191 -188 -191c-9 0 -15 6 -15 10c0 2 2 3 4 3c24 0 94 149 94 224c0 7 -1 23 -7 29c-1 1 -1 3 -1 4c0 6 9 16 25 16zM1403 808c8 0 11 -7 11 -24c0 -57 -139 -212 -204 -212c-43 0 -190 23 -364 42
c-127 -126 -361 -557 -361 -782c0 -41 1 -62 13 -74c1 -1 2 -3 2 -5c0 -10 -15 -26 -24 -26c-50 0 -133 158 -133 238c13 194 161 500 270 670c-62 4 -122 7 -180 7c-209 0 -378 -32 -378 -142c0 -64 65 -87 143 -87c116 0 259 50 259 89c0 4 2 5 4 5c3 0 8 -4 8 -11
c0 -11 -45 -165 -288 -165c-112 0 -181 151 -181 248c0 30 7 55 21 69c71 71 234 95 389 95h282c43 41 61 41 95 41c15 0 62 -16 106 -39c237 5 471 16 499 45c12 12 4 18 11 18z" />
    <glyph glyph-name="Tcommaaccent.001" horiz-adv-x="492" 
d="M101 -154c42 0 88 -60 88 -95c0 -66 -141 -191 -188 -191c-9 0 -15 6 -15 10c0 2 2 3 4 3c24 0 94 149 94 224c0 7 -1 23 -7 29c-1 1 -1 3 -1 4c0 6 9 16 25 16zM32 814c5 5 11 7 16 7c3 0 5 -1 5 -3c0 -10 27 -14 73 -14c74 0 199 10 337 20c13 18 24 32 34 41
c37 34 55 34 89 34h8c10 0 84 -26 134 -60c45 2 89 3 131 3c176 0 176 -79 176 -100c0 -12 -13 -36 -25 -36c-1 0 -2 1 -2 2c0 2 2 7 2 13c0 15 -15 37 -123 37c-70 0 -144 -4 -218 -9c-116 -98 -372 -591 -372 -831c0 -41 1 -62 12 -74c1 -2 2 -4 2 -6
c0 -10 -14 -25 -24 -25c-49 0 -132 157 -132 232v6c11 185 142 488 245 671c-127 -15 -228 -28 -262 -28c-70 0 -110 74 -110 107c0 6 1 10 4 13z" />
    <glyph glyph-name="Thorn" unicode="&#xde;" horiz-adv-x="707" 
d="M338 769c93 0 140 -72 140 -90c0 -72 -80 -200 -95 -234c85 114 158 155 219 155c45 0 145 -30 145 -89c0 -97 -83 -433 -363 -433c-47 0 -124 33 -142 54c-34 -81 -55 -145 -55 -207c0 -12 -14 -31 -29 -31c-17 0 -172 53 -172 158c0 116 336 583 336 686
c0 10 0 31 16 31zM290 154c201 0 291 242 291 349c0 25 -6 40 -17 40c-51 0 -191 -164 -298 -365v-6c0 -9 3 -18 24 -18z" />
    <glyph glyph-name="U" unicode="U" horiz-adv-x="976" 
d="M647 80c0 32 8 79 23 132c-116 -140 -267 -309 -335 -309c-64 0 -130 87 -130 141c0 35 258 573 258 687c0 29 -18 43 -44 43c-88 0 -277 -146 -277 -326c0 -113 45 -122 45 -129c0 -12 -4 -19 -14 -19c-31 0 -173 97 -173 187c0 133 224 344 370 344
c108 0 255 -112 255 -222c0 -102 -233 -562 -233 -590c0 -4 1 -5 6 -5c24 0 189 172 310 315c64 176 161 364 208 364c38 0 138 -59 138 -107c0 -31 -262 -402 -262 -634c0 -35 18 -67 48 -67c46 0 73 21 78 25c2 2 7 -5 7 -10c0 -2 -1 -4 -3 -6c-20 -21 -62 -53 -98 -53
c-23 0 -177 102 -177 239z" />
    <glyph glyph-name="U.001" horiz-adv-x="716" 
d="M687 740c38 0 135 -58 135 -105c0 -31 -277 -432 -277 -628c0 -27 13 -39 24 -39c6 0 7 7 10 7s5 -5 5 -7c0 -15 -31 -48 -56 -48c-33 0 -143 81 -143 149c0 23 16 81 41 154c-109 -129 -238 -267 -299 -267c-63 0 -127 86 -127 139c0 34 245 529 245 640
c0 67 -41 57 -41 65c0 7 4 19 14 19c43 0 193 -88 193 -157c0 -103 -228 -564 -228 -592c0 -3 2 -5 6 -5c22 0 168 151 284 285c73 185 171 390 214 390z" />
    <glyph glyph-name="U.002" horiz-adv-x="754" 
d="M628 709c34 0 166 -80 166 -152s-184 -305 -184 -502c0 -103 45 -101 45 -120c0 -7 -5 -10 -15 -10c-50 0 -204 85 -204 186c0 14 3 40 8 72c-87 -135 -184 -248 -257 -248c-58 0 -187 139 -187 231c0 271 134 578 209 653c12 12 33 17 56 17c64 0 150 -39 150 -74
c0 -71 -42 -119 -58 -119c-47 0 -176 -396 -176 -552c0 -38 8 -62 26 -62c115 0 279 413 351 577c27 61 49 103 70 103z" />
    <glyph glyph-name="Uacute" unicode="&#xda;" horiz-adv-x="976" 
d="M799 829c26 0 55 -51 55 -66c0 -52 -119 -84 -157 -84c-9 0 -15 7 -15 12c0 3 2 5 5 5c18 0 96 78 96 108c0 4 -4 7 -4 11c0 5 7 14 20 14zM647 80c0 32 8 79 23 132c-116 -140 -267 -309 -335 -309c-64 0 -130 87 -130 141c0 35 258 573 258 687c0 29 -18 43 -44 43
c-88 0 -277 -146 -277 -326c0 -113 45 -122 45 -129c0 -12 -4 -19 -14 -19c-31 0 -173 97 -173 187c0 133 224 344 370 344c108 0 255 -112 255 -222c0 -102 -233 -562 -233 -590c0 -4 1 -5 6 -5c24 0 189 172 310 315c64 176 161 364 208 364c38 0 138 -59 138 -107
c0 -31 -262 -402 -262 -634c0 -35 18 -67 48 -67c46 0 73 21 78 25c2 2 7 -5 7 -10c0 -2 -1 -4 -3 -6c-20 -21 -62 -53 -98 -53c-23 0 -177 102 -177 239z" />
    <glyph glyph-name="Uacute.001" horiz-adv-x="716" 
d="M574 864c26 0 55 -51 55 -66c0 -52 -119 -84 -157 -84c-9 0 -15 7 -15 12c0 3 2 5 5 5c18 0 96 78 96 108c0 4 -4 7 -4 11c0 5 7 14 20 14zM687 740c38 0 135 -58 135 -105c0 -31 -277 -432 -277 -628c0 -27 13 -39 24 -39c6 0 7 7 10 7s5 -5 5 -7c0 -15 -31 -48 -56 -48
c-33 0 -143 81 -143 149c0 23 16 81 41 154c-109 -129 -238 -267 -299 -267c-63 0 -127 86 -127 139c0 34 245 529 245 640c0 67 -41 57 -41 65c0 7 4 19 14 19c43 0 193 -88 193 -157c0 -103 -228 -564 -228 -592c0 -3 2 -5 6 -5c22 0 168 151 284 285
c73 185 171 390 214 390z" />
    <glyph glyph-name="Uacute.002" horiz-adv-x="754" 
d="M586 898c26 0 55 -51 55 -66c0 -52 -119 -84 -157 -84c-9 0 -15 7 -15 12c0 3 2 5 5 5c18 0 96 78 96 108c0 4 -4 7 -4 11c0 5 7 14 20 14zM628 709c34 0 166 -80 166 -152s-184 -305 -184 -502c0 -103 45 -101 45 -120c0 -7 -5 -10 -15 -10c-50 0 -204 85 -204 186
c0 14 3 40 8 72c-87 -135 -184 -248 -257 -248c-58 0 -187 139 -187 231c0 271 134 578 209 653c12 12 33 17 56 17c64 0 150 -39 150 -74c0 -71 -42 -119 -58 -119c-47 0 -176 -396 -176 -552c0 -38 8 -62 26 -62c115 0 279 413 351 577c27 61 49 103 70 103z" />
    <glyph glyph-name="Ubreve" unicode="&#x16c;" horiz-adv-x="976" 
d="M770 681c-54 0 -87 44 -87 87c0 20 6 37 21 54c4 5 12 9 19 9c23 0 54 -25 54 -37c0 -2 -1 -3 -2 -4c-12 -12 -18 -23 -18 -32c0 -17 18 -29 38 -29c22 0 46 14 46 49c0 4 -1 7 -3 9c-1 1 -1 2 -1 3c0 4 4 8 9 8c4 0 7 -3 7 -12c0 -53 -40 -105 -83 -105zM647 80
c0 32 8 79 23 132c-116 -140 -267 -309 -335 -309c-64 0 -130 87 -130 141c0 35 258 573 258 687c0 29 -18 43 -44 43c-88 0 -277 -146 -277 -326c0 -113 45 -122 45 -129c0 -12 -4 -19 -14 -19c-31 0 -173 97 -173 187c0 133 224 344 370 344c108 0 255 -112 255 -222
c0 -102 -233 -562 -233 -590c0 -4 1 -5 6 -5c24 0 189 172 310 315c64 176 161 364 208 364c38 0 138 -59 138 -107c0 -31 -262 -402 -262 -634c0 -35 18 -67 48 -67c46 0 73 21 78 25c2 2 7 -5 7 -10c0 -2 -1 -4 -3 -6c-20 -21 -62 -53 -98 -53c-23 0 -177 102 -177 239z
" />
    <glyph glyph-name="Ubreve.001" horiz-adv-x="716" 
d="M537 701c-54 0 -87 44 -87 87c0 20 6 37 21 54c4 5 12 9 19 9c23 0 54 -25 54 -37c0 -2 -1 -3 -2 -4c-12 -12 -18 -23 -18 -32c0 -17 18 -29 38 -29c22 0 46 14 46 49c0 4 -1 7 -3 9c-1 1 -1 2 -1 3c0 4 4 8 9 8c4 0 7 -3 7 -12c0 -53 -40 -105 -83 -105zM687 740
c38 0 135 -58 135 -105c0 -31 -277 -432 -277 -628c0 -27 13 -39 24 -39c6 0 7 7 10 7s5 -5 5 -7c0 -15 -31 -48 -56 -48c-33 0 -143 81 -143 149c0 23 16 81 41 154c-109 -129 -238 -267 -299 -267c-63 0 -127 86 -127 139c0 34 245 529 245 640c0 67 -41 57 -41 65
c0 7 4 19 14 19c43 0 193 -88 193 -157c0 -103 -228 -564 -228 -592c0 -3 2 -5 6 -5c22 0 168 151 284 285c73 185 171 390 214 390z" />
    <glyph glyph-name="Ucircumflex" unicode="&#xdb;" horiz-adv-x="976" 
d="M841 829c-13 -1 -18 -26 -18 -56c0 -37 8 -80 16 -87c2 -2 2 -4 2 -5c0 -4 -5 -6 -11 -6c-20 0 -58 49 -73 99c-15 -9 -38 -12 -61 -12c-39 0 -78 10 -78 27c0 4 1 7 4 7c1 0 2 0 3 -1c3 -3 8 -4 14 -4c28 0 83 32 108 58c1 17 8 42 27 42c25 0 74 -31 74 -49
c0 -5 -4 -13 -7 -13zM647 80c0 32 8 79 23 132c-116 -140 -267 -309 -335 -309c-64 0 -130 87 -130 141c0 35 258 573 258 687c0 29 -18 43 -44 43c-88 0 -277 -146 -277 -326c0 -113 45 -122 45 -129c0 -12 -4 -19 -14 -19c-31 0 -173 97 -173 187c0 133 224 344 370 344
c108 0 255 -112 255 -222c0 -102 -233 -562 -233 -590c0 -4 1 -5 6 -5c24 0 189 172 310 315c64 176 161 364 208 364c38 0 138 -59 138 -107c0 -31 -262 -402 -262 -634c0 -35 18 -67 48 -67c46 0 73 21 78 25c2 2 7 -5 7 -10c0 -2 -1 -4 -3 -6c-20 -21 -62 -53 -98 -53
c-23 0 -177 102 -177 239z" />
    <glyph glyph-name="Ucircumflex.001" horiz-adv-x="716" 
d="M629 849c-13 -1 -18 -26 -18 -56c0 -37 8 -80 16 -87c2 -2 2 -4 2 -5c0 -4 -5 -6 -11 -6c-20 0 -58 49 -73 99c-15 -9 -38 -12 -61 -12c-39 0 -78 10 -78 27c0 4 1 7 4 7c1 0 2 0 3 -1c3 -3 8 -4 14 -4c28 0 83 32 108 58c1 17 8 42 27 42c25 0 74 -31 74 -49
c0 -5 -4 -13 -7 -13zM687 740c38 0 135 -58 135 -105c0 -31 -277 -432 -277 -628c0 -27 13 -39 24 -39c6 0 7 7 10 7s5 -5 5 -7c0 -15 -31 -48 -56 -48c-33 0 -143 81 -143 149c0 23 16 81 41 154c-109 -129 -238 -267 -299 -267c-63 0 -127 86 -127 139
c0 34 245 529 245 640c0 67 -41 57 -41 65c0 7 4 19 14 19c43 0 193 -88 193 -157c0 -103 -228 -564 -228 -592c0 -3 2 -5 6 -5c22 0 168 151 284 285c73 185 171 390 214 390z" />
    <glyph glyph-name="Ucircumflex.002" horiz-adv-x="754" 
d="M628 709c34 0 166 -80 166 -152s-184 -305 -184 -502c0 -103 45 -101 45 -120c0 -7 -5 -10 -15 -10c-50 0 -204 85 -204 186c0 14 3 40 8 72c-87 -135 -184 -248 -257 -248c-58 0 -187 139 -187 231c0 271 134 578 209 653c12 12 33 17 56 17c64 0 150 -39 150 -74
c0 -71 -42 -119 -58 -119c-47 0 -176 -396 -176 -552c0 -38 8 -62 26 -62c115 0 279 413 351 577c27 61 49 103 70 103zM660 890c-13 -1 -18 -26 -18 -56c0 -37 8 -80 16 -87c2 -2 2 -4 2 -5c0 -4 -5 -6 -11 -6c-20 0 -58 49 -73 99c-15 -9 -38 -12 -61 -12
c-39 0 -78 10 -78 27c0 4 1 7 4 7c1 0 2 0 3 -1c3 -3 8 -4 14 -4c28 0 83 32 108 58c1 17 8 42 27 42c25 0 74 -31 74 -49c0 -5 -4 -13 -7 -13z" />
    <glyph glyph-name="Udieresis" unicode="&#xdc;" horiz-adv-x="976" 
d="M616 797c0 42 17 57 37 57c32 0 73 -36 73 -61c0 -17 -16 -13 -16 -44c0 -6 -3 -13 -20 -13c-45 0 -74 35 -74 61zM748 747c0 41 17 55 37 55c32 0 74 -36 74 -62c0 -16 -15 -24 -15 -42c0 -6 -4 -14 -20 -14c-46 0 -76 36 -76 63zM647 80c0 32 8 79 23 132
c-116 -140 -267 -309 -335 -309c-64 0 -130 87 -130 141c0 35 258 573 258 687c0 29 -18 43 -44 43c-88 0 -277 -146 -277 -326c0 -113 45 -122 45 -129c0 -12 -4 -19 -14 -19c-31 0 -173 97 -173 187c0 133 224 344 370 344c108 0 255 -112 255 -222
c0 -102 -233 -562 -233 -590c0 -4 1 -5 6 -5c24 0 189 172 310 315c64 176 161 364 208 364c38 0 138 -59 138 -107c0 -31 -262 -402 -262 -634c0 -35 18 -67 48 -67c46 0 73 21 78 25c2 2 7 -5 7 -10c0 -2 -1 -4 -3 -6c-20 -21 -62 -53 -98 -53c-23 0 -177 102 -177 239z
" />
    <glyph glyph-name="Udieresis.001" horiz-adv-x="716" 
d="M407 844c0 42 17 57 37 57c32 0 73 -36 73 -61c0 -17 -16 -13 -16 -44c0 -6 -3 -13 -20 -13c-45 0 -74 35 -74 61zM539 794c0 41 17 55 37 55c32 0 74 -36 74 -62c0 -16 -15 -24 -15 -42c0 -6 -4 -14 -20 -14c-46 0 -76 36 -76 63zM687 740c38 0 135 -58 135 -105
c0 -31 -277 -432 -277 -628c0 -27 13 -39 24 -39c6 0 7 7 10 7s5 -5 5 -7c0 -15 -31 -48 -56 -48c-33 0 -143 81 -143 149c0 23 16 81 41 154c-109 -129 -238 -267 -299 -267c-63 0 -127 86 -127 139c0 34 245 529 245 640c0 67 -41 57 -41 65c0 7 4 19 14 19
c43 0 193 -88 193 -157c0 -103 -228 -564 -228 -592c0 -3 2 -5 6 -5c22 0 168 151 284 285c73 185 171 390 214 390z" />
    <glyph glyph-name="Udieresis.002" horiz-adv-x="754" 
d="M628 709c34 0 166 -80 166 -152s-184 -305 -184 -502c0 -103 45 -101 45 -120c0 -7 -5 -10 -15 -10c-50 0 -204 85 -204 186c0 14 3 40 8 72c-87 -135 -184 -248 -257 -248c-58 0 -187 139 -187 231c0 271 134 578 209 653c12 12 33 17 56 17c64 0 150 -39 150 -74
c0 -71 -42 -119 -58 -119c-47 0 -176 -396 -176 -552c0 -38 8 -62 26 -62c115 0 279 413 351 577c27 61 49 103 70 103zM441 866c0 42 17 57 37 57c32 0 73 -36 73 -61c0 -17 -16 -13 -16 -44c0 -6 -3 -13 -20 -13c-45 0 -74 35 -74 61zM573 816c0 41 17 55 37 55
c32 0 74 -36 74 -62c0 -16 -15 -24 -15 -42c0 -6 -4 -14 -20 -14c-46 0 -76 36 -76 63z" />
    <glyph glyph-name="Ugrave" unicode="&#xd9;" horiz-adv-x="976" 
d="M725 862c14 0 21 -9 21 -14c0 -4 -4 -7 -4 -11c0 -30 78 -108 96 -108c3 0 5 -1 5 -4c0 -5 -6 -13 -16 -13c-37 0 -157 32 -157 84c0 15 30 66 55 66zM647 80c0 32 8 79 23 132c-116 -140 -267 -309 -335 -309c-64 0 -130 87 -130 141c0 35 258 573 258 687
c0 29 -18 43 -44 43c-88 0 -277 -146 -277 -326c0 -113 45 -122 45 -129c0 -12 -4 -19 -14 -19c-31 0 -173 97 -173 187c0 133 224 344 370 344c108 0 255 -112 255 -222c0 -102 -233 -562 -233 -590c0 -4 1 -5 6 -5c24 0 189 172 310 315c64 176 161 364 208 364
c38 0 138 -59 138 -107c0 -31 -262 -402 -262 -634c0 -35 18 -67 48 -67c46 0 73 21 78 25c2 2 7 -5 7 -10c0 -2 -1 -4 -3 -6c-20 -21 -62 -53 -98 -53c-23 0 -177 102 -177 239z" />
    <glyph glyph-name="Ugrave.001" horiz-adv-x="716" 
d="M505 902c14 0 21 -9 21 -14c0 -4 -4 -7 -4 -11c0 -30 78 -108 96 -108c3 0 5 -1 5 -4c0 -5 -6 -13 -16 -13c-37 0 -157 32 -157 84c0 15 30 66 55 66zM687 740c38 0 135 -58 135 -105c0 -31 -277 -432 -277 -628c0 -27 13 -39 24 -39c6 0 7 7 10 7s5 -5 5 -7
c0 -15 -31 -48 -56 -48c-33 0 -143 81 -143 149c0 23 16 81 41 154c-109 -129 -238 -267 -299 -267c-63 0 -127 86 -127 139c0 34 245 529 245 640c0 67 -41 57 -41 65c0 7 4 19 14 19c43 0 193 -88 193 -157c0 -103 -228 -564 -228 -592c0 -3 2 -5 6 -5
c22 0 168 151 284 285c73 185 171 390 214 390z" />
    <glyph glyph-name="Ugrave.002" horiz-adv-x="754" 
d="M628 709c34 0 166 -80 166 -152s-184 -305 -184 -502c0 -103 45 -101 45 -120c0 -7 -5 -10 -15 -10c-50 0 -204 85 -204 186c0 14 3 40 8 72c-87 -135 -184 -248 -257 -248c-58 0 -187 139 -187 231c0 271 134 578 209 653c12 12 33 17 56 17c64 0 150 -39 150 -74
c0 -71 -42 -119 -58 -119c-47 0 -176 -396 -176 -552c0 -38 8 -62 26 -62c115 0 279 413 351 577c27 61 49 103 70 103zM536 904c14 0 21 -9 21 -14c0 -4 -4 -7 -4 -11c0 -30 78 -108 96 -108c3 0 5 -1 5 -4c0 -5 -6 -13 -16 -13c-37 0 -157 32 -157 84c0 15 30 66 55 66z
" />
    <glyph glyph-name="Uhungarumlaut" unicode="&#x170;" horiz-adv-x="976" 
d="M892 752c0 -14 -7 -18 -12 -18c-3 0 -6 1 -6 2c2 2 3 4 3 5c0 4 -6 7 -9 7c-35 0 -77 -40 -84 -40c-8 0 -10 6 -10 8c0 22 32 95 66 95c28 0 52 -31 52 -59zM795 804c0 -7 -4 -12 -7 -12c-2 0 -5 4 -16 4c-35 0 -78 -35 -85 -35c-4 0 -7 2 -7 5c0 22 35 95 69 95
c9 0 46 -4 46 -57zM647 80c0 32 8 79 23 132c-116 -140 -267 -309 -335 -309c-64 0 -130 87 -130 141c0 35 258 573 258 687c0 29 -18 43 -44 43c-88 0 -277 -146 -277 -326c0 -113 45 -122 45 -129c0 -12 -4 -19 -14 -19c-31 0 -173 97 -173 187c0 133 224 344 370 344
c108 0 255 -112 255 -222c0 -102 -233 -562 -233 -590c0 -4 1 -5 6 -5c24 0 189 172 310 315c64 176 161 364 208 364c38 0 138 -59 138 -107c0 -31 -262 -402 -262 -634c0 -35 18 -67 48 -67c46 0 73 21 78 25c2 2 7 -5 7 -10c0 -2 -1 -4 -3 -6c-20 -21 -62 -53 -98 -53
c-23 0 -177 102 -177 239z" />
    <glyph glyph-name="Uhungarumlaut.001" horiz-adv-x="716" 
d="M576 840c0 -7 -4 -12 -7 -12c-2 0 -5 4 -16 4c-35 0 -78 -35 -85 -35c-4 0 -7 2 -7 5c0 22 35 95 69 95c9 0 46 -4 46 -57zM673 788c0 -14 -7 -18 -12 -18c-3 0 -6 1 -6 2c2 2 3 4 3 5c0 4 -6 7 -9 7c-35 0 -77 -40 -84 -40c-8 0 -10 6 -10 8c0 22 32 95 66 95
c28 0 52 -31 52 -59zM687 740c38 0 135 -58 135 -105c0 -31 -277 -432 -277 -628c0 -27 13 -39 24 -39c6 0 7 7 10 7s5 -5 5 -7c0 -15 -31 -48 -56 -48c-33 0 -143 81 -143 149c0 23 16 81 41 154c-109 -129 -238 -267 -299 -267c-63 0 -127 86 -127 139
c0 34 245 529 245 640c0 67 -41 57 -41 65c0 7 4 19 14 19c43 0 193 -88 193 -157c0 -103 -228 -564 -228 -592c0 -3 2 -5 6 -5c22 0 168 151 284 285c73 185 171 390 214 390z" />
    <glyph glyph-name="Umacron" unicode="&#x16a;" horiz-adv-x="976" 
d="M957 794v-4c-2 -16 -10 -38 -27 -38c-42 0 -206 52 -280 52c-14 0 -24 -2 -30 -6c-1 -1 -2 -1 -3 -1c-4 0 -7 5 -7 11c1 7 4 26 20 36c4 3 12 4 23 4c77 0 276 -51 287 -51c6 0 11 2 14 2c2 0 3 -1 3 -5zM647 80c0 32 8 79 23 132c-116 -140 -267 -309 -335 -309
c-64 0 -130 87 -130 141c0 35 258 573 258 687c0 29 -18 43 -44 43c-88 0 -277 -146 -277 -326c0 -113 45 -122 45 -129c0 -12 -4 -19 -14 -19c-31 0 -173 97 -173 187c0 133 224 344 370 344c108 0 255 -112 255 -222c0 -102 -233 -562 -233 -590c0 -4 1 -5 6 -5
c24 0 189 172 310 315c64 176 161 364 208 364c38 0 138 -59 138 -107c0 -31 -262 -402 -262 -634c0 -35 18 -67 48 -67c46 0 73 21 78 25c2 2 7 -5 7 -10c0 -2 -1 -4 -3 -6c-20 -21 -62 -53 -98 -53c-23 0 -177 102 -177 239z" />
    <glyph glyph-name="Umacron.001" horiz-adv-x="716" 
d="M742 819v-4c-2 -16 -10 -38 -27 -38c-42 0 -206 52 -280 52c-14 0 -24 -2 -30 -6c-1 -1 -2 -1 -3 -1c-4 0 -7 5 -7 11c1 7 4 26 20 36c4 3 12 4 23 4c77 0 276 -51 287 -51c6 0 11 2 14 2c2 0 3 -1 3 -5zM687 740c38 0 135 -58 135 -105c0 -31 -277 -432 -277 -628
c0 -27 13 -39 24 -39c6 0 7 7 10 7s5 -5 5 -7c0 -15 -31 -48 -56 -48c-33 0 -143 81 -143 149c0 23 16 81 41 154c-109 -129 -238 -267 -299 -267c-63 0 -127 86 -127 139c0 34 245 529 245 640c0 67 -41 57 -41 65c0 7 4 19 14 19c43 0 193 -88 193 -157
c0 -103 -228 -564 -228 -592c0 -3 2 -5 6 -5c22 0 168 151 284 285c73 185 171 390 214 390z" />
    <glyph glyph-name="Uogonek" unicode="&#x172;" horiz-adv-x="976" 
d="M647 80c0 32 8 79 23 132c-117 -131 -224 -277 -334 -309c-16 -10 -28 -28 -28 -51c0 -34 15 -56 35 -56c39 0 32 41 34 44c1 1 2 1 3 1c4 0 8 -5 8 -10c0 -3 -8 -45 -46 -45c-48 0 -93 27 -93 78c0 28 11 50 24 64c-38 29 -68 80 -68 116c0 35 258 573 258 687
c0 29 -18 43 -44 43c-88 0 -277 -146 -277 -326c0 -113 45 -122 45 -129c0 -12 -4 -19 -14 -19c-31 0 -173 97 -173 187c0 133 224 344 370 344c108 0 255 -112 255 -222c0 -102 -233 -562 -233 -590c0 -4 1 -5 6 -5c24 0 189 172 310 315c64 176 161 364 208 364
c38 0 138 -59 138 -107c0 -31 -262 -402 -262 -634c0 -35 18 -67 48 -67c46 0 73 21 78 25c2 2 7 -5 7 -10c0 -2 -1 -4 -3 -6c-20 -21 -62 -53 -98 -53c-23 0 -177 102 -177 239z" />
    </font>
</defs>
</svg>
